M48
; DRILL file {KiCad 7.0.5-0} date 2023 August 21, Monday 14:14:52
; FORMAT={-:-/ absolute / metric / decimal}
; #@! TF.CreationDate,2023-08-21T14:14:52+01:00
; #@! TF.GenerationSoftware,Kicad,Pcbnew,7.0.5-0
; #@! TF.FileFunction,NonPlated,1,2,NPTH
FMAT,2
METRIC
; #@! TA.AperFunction,NonPlated,NPTH,ComponentDrill
T1C0.850
; #@! TA.AperFunction,NonPlated,NPTH,ComponentDrill
T2C0.991
; #@! TA.AperFunction,NonPlated,NPTH,ComponentDrill
T3C1.702
; #@! TA.AperFunction,NonPlated,NPTH,ComponentDrill
T4C3.000
; #@! TA.AperFunction,NonPlated,NPTH,ComponentDrill
T5C3.429
%
G90
G05
T1
X97.9Y-27.75
X100.9Y-27.75
T2
X106.524Y-91.48
X111.744Y-100.522
X115.097Y-29.17
X115.097Y-47.17
X115.097Y-65.17
X122.415Y-85.735
X125.537Y-29.17
X125.537Y-47.17
X125.537Y-65.17
X132.597Y-26.77
X132.597Y-44.77
X132.597Y-62.77
X132.855Y-85.735
X143.037Y-26.77
X143.037Y-44.77
X143.037Y-62.77
X150.097Y-22.38
X150.097Y-40.38
X150.097Y-58.38
X160.537Y-22.38
X160.537Y-40.38
X160.537Y-58.38
X167.597Y-26.77
X167.597Y-44.77
X167.597Y-62.77
X178.037Y-26.77
X178.037Y-44.77
X178.037Y-62.77
X185.097Y-35.27
X185.097Y-53.27
X185.097Y-71.27
X195.537Y-35.27
X195.537Y-53.27
X195.537Y-71.27
T3
X102.746Y-93.338
X108.246Y-102.864
X114.817Y-33.37
X114.817Y-51.37
X114.817Y-69.37
X122.135Y-89.935
X125.817Y-33.37
X125.817Y-51.37
X125.817Y-69.37
X132.317Y-30.97
X132.317Y-48.97
X132.317Y-66.97
X133.135Y-89.935
X143.317Y-30.97
X143.317Y-48.97
X143.317Y-66.97
X149.817Y-26.58
X149.817Y-44.58
X149.817Y-62.58
X160.817Y-26.58
X160.817Y-44.58
X160.817Y-62.58
X167.317Y-30.97
X167.317Y-48.97
X167.317Y-66.97
X178.317Y-30.97
X178.317Y-48.97
X178.317Y-66.97
X184.817Y-39.47
X184.817Y-57.47
X184.817Y-75.47
X195.817Y-39.47
X195.817Y-57.47
X195.817Y-75.47
T4
X99.749Y-95.646
X100.343Y-101.076
X104.749Y-104.306
X115.317Y-37.12
X115.317Y-55.12
X115.317Y-73.12
X120.317Y-39.32
X120.317Y-57.32
X120.317Y-75.32
X122.635Y-93.685
X125.317Y-37.12
X125.317Y-55.12
X125.317Y-73.12
X127.635Y-95.885
X132.635Y-93.685
X132.817Y-34.72
X132.817Y-52.72
X132.817Y-70.72
X137.817Y-36.92
X137.817Y-54.92
X137.817Y-72.92
X142.817Y-34.72
X142.817Y-52.72
X142.817Y-70.72
X150.317Y-30.33
X150.317Y-48.33
X150.317Y-66.33
X155.317Y-32.53
X155.317Y-50.53
X155.317Y-68.53
X160.317Y-30.33
X160.317Y-48.33
X160.317Y-66.33
X167.817Y-34.72
X167.817Y-52.72
X167.817Y-70.72
X172.817Y-36.92
X172.817Y-54.92
X172.817Y-72.92
X177.817Y-34.72
X177.817Y-52.72
X177.817Y-70.72
X185.317Y-43.22
X185.317Y-61.22
X185.317Y-79.22
X190.317Y-45.42
X190.317Y-63.42
X190.317Y-81.42
X195.317Y-43.22
X195.317Y-61.22
X195.317Y-79.22
T5
X105.496Y-98.101
X120.317Y-33.37
X120.317Y-51.37
X120.317Y-69.37
X127.635Y-89.935
X137.817Y-30.97
X137.817Y-48.97
X137.817Y-66.97
X155.317Y-26.58
X155.317Y-44.58
X155.317Y-62.58
X172.817Y-30.97
X172.817Y-48.97
X172.817Y-66.97
X190.317Y-39.47
X190.317Y-57.47
X190.317Y-75.47
T0
M30
