%TF.GenerationSoftware,KiCad,Pcbnew,7.0.5-0*%
%TF.CreationDate,2023-08-21T14:14:50+01:00*%
%TF.ProjectId,draenog-34,64726165-6e6f-4672-9d33-342e6b696361,rev?*%
%TF.SameCoordinates,Original*%
%TF.FileFunction,Soldermask,Bot*%
%TF.FilePolarity,Negative*%
%FSLAX46Y46*%
G04 Gerber Fmt 4.6, Leading zero omitted, Abs format (unit mm)*
G04 Created by KiCad (PCBNEW 7.0.5-0) date 2023-08-21 14:14:50*
%MOMM*%
%LPD*%
G01*
G04 APERTURE LIST*
G04 Aperture macros list*
%AMRotRect*
0 Rectangle, with rotation*
0 The origin of the aperture is its center*
0 $1 length*
0 $2 width*
0 $3 Rotation angle, in degrees counterclockwise*
0 Add horizontal line*
21,1,$1,$2,0,0,$3*%
G04 Aperture macros list end*
%ADD10C,1.701800*%
%ADD11C,0.990600*%
%ADD12C,3.000000*%
%ADD13C,3.429000*%
%ADD14RotRect,2.600000X2.600000X300.000000*%
%ADD15C,1.397000*%
%ADD16R,1.300000X0.950000*%
%ADD17R,2.600000X2.600000*%
%ADD18C,2.000000*%
%ADD19C,1.524000*%
%ADD20RotRect,1.300000X0.950000X300.000000*%
%ADD21C,0.850000*%
G04 APERTURE END LIST*
D10*
%TO.C,SW4*%
X102746249Y-93337806D03*
D11*
X106523556Y-91480293D03*
D12*
X99748654Y-95645819D03*
D13*
X105496249Y-98100946D03*
D12*
X100343398Y-101075946D03*
X104748654Y-104306073D03*
D11*
X111743556Y-100521599D03*
D10*
X108246249Y-102864086D03*
D14*
X101980898Y-103912179D03*
X98111154Y-92809586D03*
%TD*%
D15*
%TO.C,B+1*%
X92250000Y-27000000D03*
%TD*%
D16*
%TO.C,D9*%
X158342000Y-35580000D03*
X161892000Y-35580000D03*
%TD*%
D10*
%TO.C,SW_R2_C2*%
X149817000Y-62580000D03*
D11*
X150097000Y-58380000D03*
D12*
X150317000Y-66330000D03*
D13*
X155317000Y-62580000D03*
D12*
X155317000Y-68530000D03*
X160317000Y-66330000D03*
D11*
X160537000Y-58380000D03*
D10*
X160817000Y-62580000D03*
D17*
X158592000Y-68530000D03*
X147042000Y-66330000D03*
%TD*%
D10*
%TO.C,SW_R2_C0*%
X184817000Y-75470000D03*
D11*
X185097000Y-71270000D03*
D12*
X185317000Y-79220000D03*
D13*
X190317000Y-75470000D03*
D12*
X190317000Y-81420000D03*
X195317000Y-79220000D03*
D11*
X195537000Y-71270000D03*
D10*
X195817000Y-75470000D03*
D17*
X193592000Y-81420000D03*
X182042000Y-79220000D03*
%TD*%
D18*
%TO.C,SW_RST1*%
X95381756Y-65191877D03*
X100706244Y-68920123D03*
%TD*%
D10*
%TO.C,SW_R2_C3*%
X132317000Y-66970000D03*
D11*
X132597000Y-62770000D03*
D12*
X132817000Y-70720000D03*
D13*
X137817000Y-66970000D03*
D12*
X137817000Y-72920000D03*
X142817000Y-70720000D03*
D11*
X143037000Y-62770000D03*
D10*
X143317000Y-66970000D03*
D17*
X141092000Y-72920000D03*
X129542000Y-70720000D03*
%TD*%
D16*
%TO.C,D5*%
X140842000Y-39970000D03*
X144392000Y-39970000D03*
%TD*%
D15*
%TO.C,B-1*%
X107250000Y-27000000D03*
%TD*%
D10*
%TO.C,SW_R1_C1*%
X167317000Y-48970000D03*
D11*
X167597000Y-44770000D03*
D12*
X167817000Y-52720000D03*
D13*
X172817000Y-48970000D03*
D12*
X172817000Y-54920000D03*
X177817000Y-52720000D03*
D11*
X178037000Y-44770000D03*
D10*
X178317000Y-48970000D03*
D17*
X176092000Y-54920000D03*
X164542000Y-52720000D03*
%TD*%
D19*
%TO.C,U1*%
X90805000Y-33365000D03*
X107351400Y-32095000D03*
X90805000Y-35905000D03*
X107351400Y-34635000D03*
X90805000Y-38445000D03*
X107351400Y-37175000D03*
X90805000Y-40985000D03*
X107351400Y-39715000D03*
X90805000Y-43525000D03*
X107351400Y-42255000D03*
X90805000Y-46065000D03*
X107351400Y-44795000D03*
X90805000Y-48605000D03*
X107351400Y-47335000D03*
X90805000Y-51145000D03*
X107351400Y-49875000D03*
X90805000Y-53685000D03*
X107351400Y-52415000D03*
X90805000Y-56225000D03*
X107351400Y-54955000D03*
X90805000Y-58765000D03*
X107351400Y-57495000D03*
X90805000Y-61305000D03*
X107351400Y-60035000D03*
X92131400Y-60035000D03*
X106045000Y-61305000D03*
X92131400Y-57495000D03*
X106045000Y-58765000D03*
X92131400Y-54955000D03*
X106045000Y-56225000D03*
X92131400Y-52415000D03*
X106045000Y-53685000D03*
X92131400Y-49875000D03*
X106045000Y-51145000D03*
X92131400Y-47335000D03*
X106045000Y-48605000D03*
X92131400Y-44795000D03*
X106045000Y-46065000D03*
X92131400Y-42255000D03*
X106045000Y-43525000D03*
X92131400Y-39715000D03*
X106045000Y-40985000D03*
X92131400Y-37175000D03*
X106045000Y-38445000D03*
X92131400Y-34635000D03*
X106045000Y-35905000D03*
X92131400Y-32095000D03*
X106045000Y-33365000D03*
%TD*%
D16*
%TO.C,D8*%
X131025000Y-80600000D03*
X134575000Y-80600000D03*
%TD*%
D10*
%TO.C,SW_R0_C4*%
X114817000Y-33370000D03*
D11*
X115097000Y-29170000D03*
D12*
X115317000Y-37120000D03*
D13*
X120317000Y-33370000D03*
D12*
X120317000Y-39320000D03*
X125317000Y-37120000D03*
D11*
X125537000Y-29170000D03*
D10*
X125817000Y-33370000D03*
D17*
X123592000Y-39320000D03*
X112042000Y-37120000D03*
%TD*%
D10*
%TO.C,SW_R0_C0*%
X184817000Y-39470000D03*
D11*
X185097000Y-35270000D03*
D12*
X185317000Y-43220000D03*
D13*
X190317000Y-39470000D03*
D12*
X190317000Y-45420000D03*
X195317000Y-43220000D03*
D11*
X195537000Y-35270000D03*
D10*
X195817000Y-39470000D03*
D17*
X193592000Y-45420000D03*
X182042000Y-43220000D03*
%TD*%
D10*
%TO.C,SW_R1_C2*%
X149817000Y-44580000D03*
D11*
X150097000Y-40380000D03*
D12*
X150317000Y-48330000D03*
D13*
X155317000Y-44580000D03*
D12*
X155317000Y-50530000D03*
X160317000Y-48330000D03*
D11*
X160537000Y-40380000D03*
D10*
X160817000Y-44580000D03*
D17*
X158592000Y-50530000D03*
X147042000Y-48330000D03*
%TD*%
D10*
%TO.C,SW_R0_C1*%
X167317000Y-30970000D03*
D11*
X167597000Y-26770000D03*
D12*
X167817000Y-34720000D03*
D13*
X172817000Y-30970000D03*
D12*
X172817000Y-36920000D03*
X177817000Y-34720000D03*
D11*
X178037000Y-26770000D03*
D10*
X178317000Y-30970000D03*
D17*
X176092000Y-36920000D03*
X164542000Y-34720000D03*
%TD*%
D10*
%TO.C,SW_R1_C0*%
X184817000Y-57470000D03*
D11*
X185097000Y-53270000D03*
D12*
X185317000Y-61220000D03*
D13*
X190317000Y-57470000D03*
D12*
X190317000Y-63420000D03*
X195317000Y-61220000D03*
D11*
X195537000Y-53270000D03*
D10*
X195817000Y-57470000D03*
D17*
X193592000Y-63420000D03*
X182042000Y-61220000D03*
%TD*%
D10*
%TO.C,SW_R2_C4*%
X114817000Y-69370000D03*
D11*
X115097000Y-65170000D03*
D12*
X115317000Y-73120000D03*
D13*
X120317000Y-69370000D03*
D12*
X120317000Y-75320000D03*
X125317000Y-73120000D03*
D11*
X125537000Y-65170000D03*
D10*
X125817000Y-69370000D03*
D17*
X123592000Y-75320000D03*
X112042000Y-73120000D03*
%TD*%
D10*
%TO.C,SW_R1_C4*%
X114817000Y-51370000D03*
D11*
X115097000Y-47170000D03*
D12*
X115317000Y-55120000D03*
D13*
X120317000Y-51370000D03*
D12*
X120317000Y-57320000D03*
X125317000Y-55120000D03*
D11*
X125537000Y-47170000D03*
D10*
X125817000Y-51370000D03*
D17*
X123592000Y-57320000D03*
X112042000Y-55120000D03*
%TD*%
D20*
%TO.C,D4*%
X110087500Y-87533863D03*
X111862500Y-90608253D03*
%TD*%
D16*
%TO.C,D16*%
X193342000Y-66470000D03*
X196892000Y-66470000D03*
%TD*%
%TO.C,D6*%
X140842000Y-57970000D03*
X144392000Y-57970000D03*
%TD*%
D10*
%TO.C,SW_R0_C3*%
X132317000Y-30970000D03*
D11*
X132597000Y-26770000D03*
D12*
X132817000Y-34720000D03*
D13*
X137817000Y-30970000D03*
D12*
X137817000Y-36920000D03*
X142817000Y-34720000D03*
D11*
X143037000Y-26770000D03*
D10*
X143317000Y-30970000D03*
D17*
X141092000Y-36920000D03*
X129542000Y-34720000D03*
%TD*%
D16*
%TO.C,D1*%
X123342000Y-42370000D03*
X126892000Y-42370000D03*
%TD*%
%TO.C,D13*%
X175842000Y-57970000D03*
X179392000Y-57970000D03*
%TD*%
D10*
%TO.C,SW_R0_C2*%
X149817000Y-26580000D03*
D11*
X150097000Y-22380000D03*
D12*
X150317000Y-30330000D03*
D13*
X155317000Y-26580000D03*
D12*
X155317000Y-32530000D03*
X160317000Y-30330000D03*
D11*
X160537000Y-22380000D03*
D10*
X160817000Y-26580000D03*
D17*
X158592000Y-32530000D03*
X147042000Y-30330000D03*
%TD*%
D10*
%TO.C,SW_R2_C1*%
X167317000Y-66970000D03*
D11*
X167597000Y-62770000D03*
D12*
X167817000Y-70720000D03*
D13*
X172817000Y-66970000D03*
D12*
X172817000Y-72920000D03*
X177817000Y-70720000D03*
D11*
X178037000Y-62770000D03*
D10*
X178317000Y-66970000D03*
D17*
X176092000Y-72920000D03*
X164542000Y-70720000D03*
%TD*%
D16*
%TO.C,D17*%
X193342000Y-84470000D03*
X196892000Y-84470000D03*
%TD*%
%TO.C,D14*%
X175842000Y-75970000D03*
X179392000Y-75970000D03*
%TD*%
%TO.C,D15*%
X193342000Y-48470000D03*
X196892000Y-48470000D03*
%TD*%
%TO.C,D10*%
X158342000Y-53580000D03*
X161892000Y-53580000D03*
%TD*%
D21*
%TO.C,SW_PWR1*%
X97900000Y-27750000D03*
X100900000Y-27750000D03*
%TD*%
D16*
%TO.C,D12*%
X175842000Y-39970000D03*
X179392000Y-39970000D03*
%TD*%
%TO.C,D2*%
X123342000Y-60370000D03*
X126892000Y-60370000D03*
%TD*%
D17*
%TO.C,SW8*%
X119360000Y-93685000D03*
X130910000Y-95885000D03*
D10*
X133135000Y-89935000D03*
D11*
X132855000Y-85735000D03*
D12*
X132635000Y-93685000D03*
X127635000Y-95885000D03*
D13*
X127635000Y-89935000D03*
D12*
X122635000Y-93685000D03*
D11*
X122415000Y-85735000D03*
D10*
X122135000Y-89935000D03*
%TD*%
%TO.C,SW_R1_C3*%
X132317000Y-48970000D03*
D11*
X132597000Y-44770000D03*
D12*
X132817000Y-52720000D03*
D13*
X137817000Y-48970000D03*
D12*
X137817000Y-54920000D03*
X142817000Y-52720000D03*
D11*
X143037000Y-44770000D03*
D10*
X143317000Y-48970000D03*
D17*
X141092000Y-54920000D03*
X129542000Y-52720000D03*
%TD*%
D16*
%TO.C,D3*%
X123342000Y-78370000D03*
X126892000Y-78370000D03*
%TD*%
%TO.C,D11*%
X158342000Y-71580000D03*
X161892000Y-71580000D03*
%TD*%
%TO.C,D7*%
X140842000Y-75970000D03*
X144392000Y-75970000D03*
%TD*%
M02*
