%TF.GenerationSoftware,KiCad,Pcbnew,7.0.5-0*%
%TF.CreationDate,2023-08-21T14:14:49+01:00*%
%TF.ProjectId,draenog-34,64726165-6e6f-4672-9d33-342e6b696361,rev?*%
%TF.SameCoordinates,Original*%
%TF.FileFunction,Legend,Top*%
%TF.FilePolarity,Positive*%
%FSLAX46Y46*%
G04 Gerber Fmt 4.6, Leading zero omitted, Abs format (unit mm)*
G04 Created by KiCad (PCBNEW 7.0.5-0) date 2023-08-21 14:14:49*
%MOMM*%
%LPD*%
G01*
G04 APERTURE LIST*
%ADD10C,0.150000*%
%ADD11C,0.125000*%
%ADD12C,0.120000*%
%ADD13C,1.397000*%
%ADD14C,2.000000*%
%ADD15C,1.524000*%
G04 APERTURE END LIST*
D10*
X151720779Y-78609819D02*
X151720779Y-77609819D01*
X151720779Y-77609819D02*
X151958874Y-77609819D01*
X151958874Y-77609819D02*
X152101731Y-77657438D01*
X152101731Y-77657438D02*
X152196969Y-77752676D01*
X152196969Y-77752676D02*
X152244588Y-77847914D01*
X152244588Y-77847914D02*
X152292207Y-78038390D01*
X152292207Y-78038390D02*
X152292207Y-78181247D01*
X152292207Y-78181247D02*
X152244588Y-78371723D01*
X152244588Y-78371723D02*
X152196969Y-78466961D01*
X152196969Y-78466961D02*
X152101731Y-78562200D01*
X152101731Y-78562200D02*
X151958874Y-78609819D01*
X151958874Y-78609819D02*
X151720779Y-78609819D01*
X153292207Y-78609819D02*
X152958874Y-78133628D01*
X152720779Y-78609819D02*
X152720779Y-77609819D01*
X152720779Y-77609819D02*
X153101731Y-77609819D01*
X153101731Y-77609819D02*
X153196969Y-77657438D01*
X153196969Y-77657438D02*
X153244588Y-77705057D01*
X153244588Y-77705057D02*
X153292207Y-77800295D01*
X153292207Y-77800295D02*
X153292207Y-77943152D01*
X153292207Y-77943152D02*
X153244588Y-78038390D01*
X153244588Y-78038390D02*
X153196969Y-78086009D01*
X153196969Y-78086009D02*
X153101731Y-78133628D01*
X153101731Y-78133628D02*
X152720779Y-78133628D01*
X153673160Y-78324104D02*
X154149350Y-78324104D01*
X153577922Y-78609819D02*
X153911255Y-77609819D01*
X153911255Y-77609819D02*
X154244588Y-78609819D01*
X154577922Y-78086009D02*
X154911255Y-78086009D01*
X155054112Y-78609819D02*
X154577922Y-78609819D01*
X154577922Y-78609819D02*
X154577922Y-77609819D01*
X154577922Y-77609819D02*
X155054112Y-77609819D01*
X155482684Y-78609819D02*
X155482684Y-77609819D01*
X155482684Y-77609819D02*
X156054112Y-78609819D01*
X156054112Y-78609819D02*
X156054112Y-77609819D01*
X156720779Y-77609819D02*
X156911255Y-77609819D01*
X156911255Y-77609819D02*
X157006493Y-77657438D01*
X157006493Y-77657438D02*
X157101731Y-77752676D01*
X157101731Y-77752676D02*
X157149350Y-77943152D01*
X157149350Y-77943152D02*
X157149350Y-78276485D01*
X157149350Y-78276485D02*
X157101731Y-78466961D01*
X157101731Y-78466961D02*
X157006493Y-78562200D01*
X157006493Y-78562200D02*
X156911255Y-78609819D01*
X156911255Y-78609819D02*
X156720779Y-78609819D01*
X156720779Y-78609819D02*
X156625541Y-78562200D01*
X156625541Y-78562200D02*
X156530303Y-78466961D01*
X156530303Y-78466961D02*
X156482684Y-78276485D01*
X156482684Y-78276485D02*
X156482684Y-77943152D01*
X156482684Y-77943152D02*
X156530303Y-77752676D01*
X156530303Y-77752676D02*
X156625541Y-77657438D01*
X156625541Y-77657438D02*
X156720779Y-77609819D01*
X158101731Y-77657438D02*
X158006493Y-77609819D01*
X158006493Y-77609819D02*
X157863636Y-77609819D01*
X157863636Y-77609819D02*
X157720779Y-77657438D01*
X157720779Y-77657438D02*
X157625541Y-77752676D01*
X157625541Y-77752676D02*
X157577922Y-77847914D01*
X157577922Y-77847914D02*
X157530303Y-78038390D01*
X157530303Y-78038390D02*
X157530303Y-78181247D01*
X157530303Y-78181247D02*
X157577922Y-78371723D01*
X157577922Y-78371723D02*
X157625541Y-78466961D01*
X157625541Y-78466961D02*
X157720779Y-78562200D01*
X157720779Y-78562200D02*
X157863636Y-78609819D01*
X157863636Y-78609819D02*
X157958874Y-78609819D01*
X157958874Y-78609819D02*
X158101731Y-78562200D01*
X158101731Y-78562200D02*
X158149350Y-78514580D01*
X158149350Y-78514580D02*
X158149350Y-78181247D01*
X158149350Y-78181247D02*
X157958874Y-78181247D01*
X158577922Y-78228866D02*
X159339827Y-78228866D01*
X159720779Y-77609819D02*
X160339826Y-77609819D01*
X160339826Y-77609819D02*
X160006493Y-77990771D01*
X160006493Y-77990771D02*
X160149350Y-77990771D01*
X160149350Y-77990771D02*
X160244588Y-78038390D01*
X160244588Y-78038390D02*
X160292207Y-78086009D01*
X160292207Y-78086009D02*
X160339826Y-78181247D01*
X160339826Y-78181247D02*
X160339826Y-78419342D01*
X160339826Y-78419342D02*
X160292207Y-78514580D01*
X160292207Y-78514580D02*
X160244588Y-78562200D01*
X160244588Y-78562200D02*
X160149350Y-78609819D01*
X160149350Y-78609819D02*
X159863636Y-78609819D01*
X159863636Y-78609819D02*
X159768398Y-78562200D01*
X159768398Y-78562200D02*
X159720779Y-78514580D01*
X161196969Y-77943152D02*
X161196969Y-78609819D01*
X160958874Y-77562200D02*
X160720779Y-78276485D01*
X160720779Y-78276485D02*
X161339826Y-78276485D01*
X162482684Y-78609819D02*
X162482684Y-77943152D01*
X162482684Y-78133628D02*
X162530303Y-78038390D01*
X162530303Y-78038390D02*
X162577922Y-77990771D01*
X162577922Y-77990771D02*
X162673160Y-77943152D01*
X162673160Y-77943152D02*
X162768398Y-77943152D01*
X163292208Y-77609819D02*
X163387446Y-77609819D01*
X163387446Y-77609819D02*
X163482684Y-77657438D01*
X163482684Y-77657438D02*
X163530303Y-77705057D01*
X163530303Y-77705057D02*
X163577922Y-77800295D01*
X163577922Y-77800295D02*
X163625541Y-77990771D01*
X163625541Y-77990771D02*
X163625541Y-78228866D01*
X163625541Y-78228866D02*
X163577922Y-78419342D01*
X163577922Y-78419342D02*
X163530303Y-78514580D01*
X163530303Y-78514580D02*
X163482684Y-78562200D01*
X163482684Y-78562200D02*
X163387446Y-78609819D01*
X163387446Y-78609819D02*
X163292208Y-78609819D01*
X163292208Y-78609819D02*
X163196970Y-78562200D01*
X163196970Y-78562200D02*
X163149351Y-78514580D01*
X163149351Y-78514580D02*
X163101732Y-78419342D01*
X163101732Y-78419342D02*
X163054113Y-78228866D01*
X163054113Y-78228866D02*
X163054113Y-77990771D01*
X163054113Y-77990771D02*
X163101732Y-77800295D01*
X163101732Y-77800295D02*
X163149351Y-77705057D01*
X163149351Y-77705057D02*
X163196970Y-77657438D01*
X163196970Y-77657438D02*
X163292208Y-77609819D01*
X164054113Y-78514580D02*
X164101732Y-78562200D01*
X164101732Y-78562200D02*
X164054113Y-78609819D01*
X164054113Y-78609819D02*
X164006494Y-78562200D01*
X164006494Y-78562200D02*
X164054113Y-78514580D01*
X164054113Y-78514580D02*
X164054113Y-78609819D01*
X165054112Y-78609819D02*
X164482684Y-78609819D01*
X164768398Y-78609819D02*
X164768398Y-77609819D01*
X164768398Y-77609819D02*
X164673160Y-77752676D01*
X164673160Y-77752676D02*
X164577922Y-77847914D01*
X164577922Y-77847914D02*
X164482684Y-77895533D01*
X166768398Y-77657438D02*
X166673160Y-77609819D01*
X166673160Y-77609819D02*
X166530303Y-77609819D01*
X166530303Y-77609819D02*
X166387446Y-77657438D01*
X166387446Y-77657438D02*
X166292208Y-77752676D01*
X166292208Y-77752676D02*
X166244589Y-77847914D01*
X166244589Y-77847914D02*
X166196970Y-78038390D01*
X166196970Y-78038390D02*
X166196970Y-78181247D01*
X166196970Y-78181247D02*
X166244589Y-78371723D01*
X166244589Y-78371723D02*
X166292208Y-78466961D01*
X166292208Y-78466961D02*
X166387446Y-78562200D01*
X166387446Y-78562200D02*
X166530303Y-78609819D01*
X166530303Y-78609819D02*
X166625541Y-78609819D01*
X166625541Y-78609819D02*
X166768398Y-78562200D01*
X166768398Y-78562200D02*
X166816017Y-78514580D01*
X166816017Y-78514580D02*
X166816017Y-78181247D01*
X166816017Y-78181247D02*
X166625541Y-78181247D01*
X167816017Y-78609819D02*
X167482684Y-78133628D01*
X167244589Y-78609819D02*
X167244589Y-77609819D01*
X167244589Y-77609819D02*
X167625541Y-77609819D01*
X167625541Y-77609819D02*
X167720779Y-77657438D01*
X167720779Y-77657438D02*
X167768398Y-77705057D01*
X167768398Y-77705057D02*
X167816017Y-77800295D01*
X167816017Y-77800295D02*
X167816017Y-77943152D01*
X167816017Y-77943152D02*
X167768398Y-78038390D01*
X167768398Y-78038390D02*
X167720779Y-78086009D01*
X167720779Y-78086009D02*
X167625541Y-78133628D01*
X167625541Y-78133628D02*
X167244589Y-78133628D01*
X168196970Y-78562200D02*
X168339827Y-78609819D01*
X168339827Y-78609819D02*
X168577922Y-78609819D01*
X168577922Y-78609819D02*
X168673160Y-78562200D01*
X168673160Y-78562200D02*
X168720779Y-78514580D01*
X168720779Y-78514580D02*
X168768398Y-78419342D01*
X168768398Y-78419342D02*
X168768398Y-78324104D01*
X168768398Y-78324104D02*
X168720779Y-78228866D01*
X168720779Y-78228866D02*
X168673160Y-78181247D01*
X168673160Y-78181247D02*
X168577922Y-78133628D01*
X168577922Y-78133628D02*
X168387446Y-78086009D01*
X168387446Y-78086009D02*
X168292208Y-78038390D01*
X168292208Y-78038390D02*
X168244589Y-77990771D01*
X168244589Y-77990771D02*
X168196970Y-77895533D01*
X168196970Y-77895533D02*
X168196970Y-77800295D01*
X168196970Y-77800295D02*
X168244589Y-77705057D01*
X168244589Y-77705057D02*
X168292208Y-77657438D01*
X168292208Y-77657438D02*
X168387446Y-77609819D01*
X168387446Y-77609819D02*
X168625541Y-77609819D01*
X168625541Y-77609819D02*
X168768398Y-77657438D01*
X169196970Y-78228866D02*
X169958875Y-78228866D01*
X170720779Y-77609819D02*
X170720779Y-78324104D01*
X170720779Y-78324104D02*
X170673160Y-78466961D01*
X170673160Y-78466961D02*
X170577922Y-78562200D01*
X170577922Y-78562200D02*
X170435065Y-78609819D01*
X170435065Y-78609819D02*
X170339827Y-78609819D01*
%TO.C,SW4*%
X108349215Y-100046828D02*
X108379404Y-100194356D01*
X108379404Y-100194356D02*
X108498451Y-100400552D01*
X108498451Y-100400552D02*
X108587310Y-100459221D01*
X108587310Y-100459221D02*
X108652359Y-100476651D01*
X108652359Y-100476651D02*
X108758647Y-100470272D01*
X108758647Y-100470272D02*
X108841125Y-100422652D01*
X108841125Y-100422652D02*
X108899794Y-100333794D01*
X108899794Y-100333794D02*
X108917224Y-100268745D01*
X108917224Y-100268745D02*
X108910844Y-100162457D01*
X108910844Y-100162457D02*
X108856846Y-99973690D01*
X108856846Y-99973690D02*
X108850466Y-99867402D01*
X108850466Y-99867402D02*
X108867896Y-99802353D01*
X108867896Y-99802353D02*
X108926565Y-99713495D01*
X108926565Y-99713495D02*
X109009043Y-99665876D01*
X109009043Y-99665876D02*
X109115332Y-99659496D01*
X109115332Y-99659496D02*
X109180380Y-99676926D01*
X109180380Y-99676926D02*
X109269239Y-99735595D01*
X109269239Y-99735595D02*
X109388286Y-99941792D01*
X109388286Y-99941792D02*
X109418476Y-100089319D01*
X109626382Y-100354185D02*
X108879404Y-101060381D01*
X108879404Y-101060381D02*
X109593232Y-100868196D01*
X109593232Y-100868196D02*
X109069880Y-101390296D01*
X109069880Y-101390296D02*
X110054953Y-101096492D01*
X110171040Y-101964227D02*
X109593689Y-102297560D01*
X110381907Y-101567554D02*
X109644269Y-101718501D01*
X109644269Y-101718501D02*
X109953793Y-102254612D01*
%TO.C,B+1*%
X91417848Y-28593464D02*
X91533962Y-28632169D01*
X91533962Y-28632169D02*
X91572667Y-28670873D01*
X91572667Y-28670873D02*
X91611371Y-28748283D01*
X91611371Y-28748283D02*
X91611371Y-28864397D01*
X91611371Y-28864397D02*
X91572667Y-28941807D01*
X91572667Y-28941807D02*
X91533962Y-28980512D01*
X91533962Y-28980512D02*
X91456552Y-29019216D01*
X91456552Y-29019216D02*
X91146914Y-29019216D01*
X91146914Y-29019216D02*
X91146914Y-28206416D01*
X91146914Y-28206416D02*
X91417848Y-28206416D01*
X91417848Y-28206416D02*
X91495257Y-28245121D01*
X91495257Y-28245121D02*
X91533962Y-28283826D01*
X91533962Y-28283826D02*
X91572667Y-28361235D01*
X91572667Y-28361235D02*
X91572667Y-28438645D01*
X91572667Y-28438645D02*
X91533962Y-28516054D01*
X91533962Y-28516054D02*
X91495257Y-28554759D01*
X91495257Y-28554759D02*
X91417848Y-28593464D01*
X91417848Y-28593464D02*
X91146914Y-28593464D01*
X91959714Y-28709578D02*
X92578991Y-28709578D01*
X92269352Y-29019216D02*
X92269352Y-28399940D01*
X93391791Y-29019216D02*
X92927334Y-29019216D01*
X93159562Y-29019216D02*
X93159562Y-28206416D01*
X93159562Y-28206416D02*
X93082153Y-28322531D01*
X93082153Y-28322531D02*
X93004743Y-28399940D01*
X93004743Y-28399940D02*
X92927334Y-28438645D01*
%TO.C,SW_R2_C2*%
X156190571Y-61082200D02*
X156333428Y-61129819D01*
X156333428Y-61129819D02*
X156571523Y-61129819D01*
X156571523Y-61129819D02*
X156666761Y-61082200D01*
X156666761Y-61082200D02*
X156714380Y-61034580D01*
X156714380Y-61034580D02*
X156761999Y-60939342D01*
X156761999Y-60939342D02*
X156761999Y-60844104D01*
X156761999Y-60844104D02*
X156714380Y-60748866D01*
X156714380Y-60748866D02*
X156666761Y-60701247D01*
X156666761Y-60701247D02*
X156571523Y-60653628D01*
X156571523Y-60653628D02*
X156381047Y-60606009D01*
X156381047Y-60606009D02*
X156285809Y-60558390D01*
X156285809Y-60558390D02*
X156238190Y-60510771D01*
X156238190Y-60510771D02*
X156190571Y-60415533D01*
X156190571Y-60415533D02*
X156190571Y-60320295D01*
X156190571Y-60320295D02*
X156238190Y-60225057D01*
X156238190Y-60225057D02*
X156285809Y-60177438D01*
X156285809Y-60177438D02*
X156381047Y-60129819D01*
X156381047Y-60129819D02*
X156619142Y-60129819D01*
X156619142Y-60129819D02*
X156761999Y-60177438D01*
X157095333Y-60129819D02*
X157333428Y-61129819D01*
X157333428Y-61129819D02*
X157523904Y-60415533D01*
X157523904Y-60415533D02*
X157714380Y-61129819D01*
X157714380Y-61129819D02*
X157952476Y-60129819D01*
X158095333Y-61225057D02*
X158857237Y-61225057D01*
X159666761Y-61129819D02*
X159333428Y-60653628D01*
X159095333Y-61129819D02*
X159095333Y-60129819D01*
X159095333Y-60129819D02*
X159476285Y-60129819D01*
X159476285Y-60129819D02*
X159571523Y-60177438D01*
X159571523Y-60177438D02*
X159619142Y-60225057D01*
X159619142Y-60225057D02*
X159666761Y-60320295D01*
X159666761Y-60320295D02*
X159666761Y-60463152D01*
X159666761Y-60463152D02*
X159619142Y-60558390D01*
X159619142Y-60558390D02*
X159571523Y-60606009D01*
X159571523Y-60606009D02*
X159476285Y-60653628D01*
X159476285Y-60653628D02*
X159095333Y-60653628D01*
X160047714Y-60225057D02*
X160095333Y-60177438D01*
X160095333Y-60177438D02*
X160190571Y-60129819D01*
X160190571Y-60129819D02*
X160428666Y-60129819D01*
X160428666Y-60129819D02*
X160523904Y-60177438D01*
X160523904Y-60177438D02*
X160571523Y-60225057D01*
X160571523Y-60225057D02*
X160619142Y-60320295D01*
X160619142Y-60320295D02*
X160619142Y-60415533D01*
X160619142Y-60415533D02*
X160571523Y-60558390D01*
X160571523Y-60558390D02*
X160000095Y-61129819D01*
X160000095Y-61129819D02*
X160619142Y-61129819D01*
X160809619Y-61225057D02*
X161571523Y-61225057D01*
X162381047Y-61034580D02*
X162333428Y-61082200D01*
X162333428Y-61082200D02*
X162190571Y-61129819D01*
X162190571Y-61129819D02*
X162095333Y-61129819D01*
X162095333Y-61129819D02*
X161952476Y-61082200D01*
X161952476Y-61082200D02*
X161857238Y-60986961D01*
X161857238Y-60986961D02*
X161809619Y-60891723D01*
X161809619Y-60891723D02*
X161762000Y-60701247D01*
X161762000Y-60701247D02*
X161762000Y-60558390D01*
X161762000Y-60558390D02*
X161809619Y-60367914D01*
X161809619Y-60367914D02*
X161857238Y-60272676D01*
X161857238Y-60272676D02*
X161952476Y-60177438D01*
X161952476Y-60177438D02*
X162095333Y-60129819D01*
X162095333Y-60129819D02*
X162190571Y-60129819D01*
X162190571Y-60129819D02*
X162333428Y-60177438D01*
X162333428Y-60177438D02*
X162381047Y-60225057D01*
X162762000Y-60225057D02*
X162809619Y-60177438D01*
X162809619Y-60177438D02*
X162904857Y-60129819D01*
X162904857Y-60129819D02*
X163142952Y-60129819D01*
X163142952Y-60129819D02*
X163238190Y-60177438D01*
X163238190Y-60177438D02*
X163285809Y-60225057D01*
X163285809Y-60225057D02*
X163333428Y-60320295D01*
X163333428Y-60320295D02*
X163333428Y-60415533D01*
X163333428Y-60415533D02*
X163285809Y-60558390D01*
X163285809Y-60558390D02*
X162714381Y-61129819D01*
X162714381Y-61129819D02*
X163333428Y-61129819D01*
%TO.C,SW_R2_C0*%
X191190571Y-73972200D02*
X191333428Y-74019819D01*
X191333428Y-74019819D02*
X191571523Y-74019819D01*
X191571523Y-74019819D02*
X191666761Y-73972200D01*
X191666761Y-73972200D02*
X191714380Y-73924580D01*
X191714380Y-73924580D02*
X191761999Y-73829342D01*
X191761999Y-73829342D02*
X191761999Y-73734104D01*
X191761999Y-73734104D02*
X191714380Y-73638866D01*
X191714380Y-73638866D02*
X191666761Y-73591247D01*
X191666761Y-73591247D02*
X191571523Y-73543628D01*
X191571523Y-73543628D02*
X191381047Y-73496009D01*
X191381047Y-73496009D02*
X191285809Y-73448390D01*
X191285809Y-73448390D02*
X191238190Y-73400771D01*
X191238190Y-73400771D02*
X191190571Y-73305533D01*
X191190571Y-73305533D02*
X191190571Y-73210295D01*
X191190571Y-73210295D02*
X191238190Y-73115057D01*
X191238190Y-73115057D02*
X191285809Y-73067438D01*
X191285809Y-73067438D02*
X191381047Y-73019819D01*
X191381047Y-73019819D02*
X191619142Y-73019819D01*
X191619142Y-73019819D02*
X191761999Y-73067438D01*
X192095333Y-73019819D02*
X192333428Y-74019819D01*
X192333428Y-74019819D02*
X192523904Y-73305533D01*
X192523904Y-73305533D02*
X192714380Y-74019819D01*
X192714380Y-74019819D02*
X192952476Y-73019819D01*
X193095333Y-74115057D02*
X193857237Y-74115057D01*
X194666761Y-74019819D02*
X194333428Y-73543628D01*
X194095333Y-74019819D02*
X194095333Y-73019819D01*
X194095333Y-73019819D02*
X194476285Y-73019819D01*
X194476285Y-73019819D02*
X194571523Y-73067438D01*
X194571523Y-73067438D02*
X194619142Y-73115057D01*
X194619142Y-73115057D02*
X194666761Y-73210295D01*
X194666761Y-73210295D02*
X194666761Y-73353152D01*
X194666761Y-73353152D02*
X194619142Y-73448390D01*
X194619142Y-73448390D02*
X194571523Y-73496009D01*
X194571523Y-73496009D02*
X194476285Y-73543628D01*
X194476285Y-73543628D02*
X194095333Y-73543628D01*
X195047714Y-73115057D02*
X195095333Y-73067438D01*
X195095333Y-73067438D02*
X195190571Y-73019819D01*
X195190571Y-73019819D02*
X195428666Y-73019819D01*
X195428666Y-73019819D02*
X195523904Y-73067438D01*
X195523904Y-73067438D02*
X195571523Y-73115057D01*
X195571523Y-73115057D02*
X195619142Y-73210295D01*
X195619142Y-73210295D02*
X195619142Y-73305533D01*
X195619142Y-73305533D02*
X195571523Y-73448390D01*
X195571523Y-73448390D02*
X195000095Y-74019819D01*
X195000095Y-74019819D02*
X195619142Y-74019819D01*
X195809619Y-74115057D02*
X196571523Y-74115057D01*
X197381047Y-73924580D02*
X197333428Y-73972200D01*
X197333428Y-73972200D02*
X197190571Y-74019819D01*
X197190571Y-74019819D02*
X197095333Y-74019819D01*
X197095333Y-74019819D02*
X196952476Y-73972200D01*
X196952476Y-73972200D02*
X196857238Y-73876961D01*
X196857238Y-73876961D02*
X196809619Y-73781723D01*
X196809619Y-73781723D02*
X196762000Y-73591247D01*
X196762000Y-73591247D02*
X196762000Y-73448390D01*
X196762000Y-73448390D02*
X196809619Y-73257914D01*
X196809619Y-73257914D02*
X196857238Y-73162676D01*
X196857238Y-73162676D02*
X196952476Y-73067438D01*
X196952476Y-73067438D02*
X197095333Y-73019819D01*
X197095333Y-73019819D02*
X197190571Y-73019819D01*
X197190571Y-73019819D02*
X197333428Y-73067438D01*
X197333428Y-73067438D02*
X197381047Y-73115057D01*
X198000095Y-73019819D02*
X198095333Y-73019819D01*
X198095333Y-73019819D02*
X198190571Y-73067438D01*
X198190571Y-73067438D02*
X198238190Y-73115057D01*
X198238190Y-73115057D02*
X198285809Y-73210295D01*
X198285809Y-73210295D02*
X198333428Y-73400771D01*
X198333428Y-73400771D02*
X198333428Y-73638866D01*
X198333428Y-73638866D02*
X198285809Y-73829342D01*
X198285809Y-73829342D02*
X198238190Y-73924580D01*
X198238190Y-73924580D02*
X198190571Y-73972200D01*
X198190571Y-73972200D02*
X198095333Y-74019819D01*
X198095333Y-74019819D02*
X198000095Y-74019819D01*
X198000095Y-74019819D02*
X197904857Y-73972200D01*
X197904857Y-73972200D02*
X197857238Y-73924580D01*
X197857238Y-73924580D02*
X197809619Y-73829342D01*
X197809619Y-73829342D02*
X197762000Y-73638866D01*
X197762000Y-73638866D02*
X197762000Y-73400771D01*
X197762000Y-73400771D02*
X197809619Y-73210295D01*
X197809619Y-73210295D02*
X197857238Y-73115057D01*
X197857238Y-73115057D02*
X197904857Y-73067438D01*
X197904857Y-73067438D02*
X198000095Y-73019819D01*
%TO.C,SW_RST1*%
X96593405Y-66595514D02*
X96593486Y-66014249D01*
X96125318Y-66267756D02*
X96698895Y-65448604D01*
X96698895Y-65448604D02*
X97010952Y-65667109D01*
X97010952Y-65667109D02*
X97061654Y-65760743D01*
X97061654Y-65760743D02*
X97073348Y-65827063D01*
X97073348Y-65827063D02*
X97057729Y-65932391D01*
X97057729Y-65932391D02*
X96975789Y-66049412D01*
X96975789Y-66049412D02*
X96882156Y-66100114D01*
X96882156Y-66100114D02*
X96815835Y-66111808D01*
X96815835Y-66111808D02*
X96710508Y-66096189D01*
X96710508Y-66096189D02*
X96398450Y-65877683D01*
X97244915Y-66412253D02*
X97517966Y-66603445D01*
X97334543Y-67114464D02*
X96944470Y-66841332D01*
X96944470Y-66841332D02*
X97518047Y-66022180D01*
X97518047Y-66022180D02*
X97908119Y-66295312D01*
X97673914Y-67293962D02*
X97763622Y-67414909D01*
X97763622Y-67414909D02*
X97958658Y-67551475D01*
X97958658Y-67551475D02*
X98063986Y-67567094D01*
X98063986Y-67567094D02*
X98130307Y-67555400D01*
X98130307Y-67555400D02*
X98223940Y-67504698D01*
X98223940Y-67504698D02*
X98278566Y-67426684D01*
X98278566Y-67426684D02*
X98294186Y-67321356D01*
X98294186Y-67321356D02*
X98282491Y-67255036D01*
X98282491Y-67255036D02*
X98231790Y-67161402D01*
X98231790Y-67161402D02*
X98103074Y-67013142D01*
X98103074Y-67013142D02*
X98052373Y-66919509D01*
X98052373Y-66919509D02*
X98040679Y-66853188D01*
X98040679Y-66853188D02*
X98056298Y-66747861D01*
X98056298Y-66747861D02*
X98110924Y-66669846D01*
X98110924Y-66669846D02*
X98204558Y-66619145D01*
X98204558Y-66619145D02*
X98270878Y-66607451D01*
X98270878Y-66607451D02*
X98376206Y-66623070D01*
X98376206Y-66623070D02*
X98571242Y-66759636D01*
X98571242Y-66759636D02*
X98660951Y-66880582D01*
X98766197Y-67477466D02*
X99039248Y-67668658D01*
X98855825Y-68179677D02*
X98465753Y-67906546D01*
X98465753Y-67906546D02*
X99039329Y-67087394D01*
X99039329Y-67087394D02*
X99429401Y-67360525D01*
X99663445Y-67524404D02*
X100131532Y-67852162D01*
X99323912Y-68507435D02*
X99897488Y-67688283D01*
%TO.C,SW_R2_C3*%
X138690571Y-65472200D02*
X138833428Y-65519819D01*
X138833428Y-65519819D02*
X139071523Y-65519819D01*
X139071523Y-65519819D02*
X139166761Y-65472200D01*
X139166761Y-65472200D02*
X139214380Y-65424580D01*
X139214380Y-65424580D02*
X139261999Y-65329342D01*
X139261999Y-65329342D02*
X139261999Y-65234104D01*
X139261999Y-65234104D02*
X139214380Y-65138866D01*
X139214380Y-65138866D02*
X139166761Y-65091247D01*
X139166761Y-65091247D02*
X139071523Y-65043628D01*
X139071523Y-65043628D02*
X138881047Y-64996009D01*
X138881047Y-64996009D02*
X138785809Y-64948390D01*
X138785809Y-64948390D02*
X138738190Y-64900771D01*
X138738190Y-64900771D02*
X138690571Y-64805533D01*
X138690571Y-64805533D02*
X138690571Y-64710295D01*
X138690571Y-64710295D02*
X138738190Y-64615057D01*
X138738190Y-64615057D02*
X138785809Y-64567438D01*
X138785809Y-64567438D02*
X138881047Y-64519819D01*
X138881047Y-64519819D02*
X139119142Y-64519819D01*
X139119142Y-64519819D02*
X139261999Y-64567438D01*
X139595333Y-64519819D02*
X139833428Y-65519819D01*
X139833428Y-65519819D02*
X140023904Y-64805533D01*
X140023904Y-64805533D02*
X140214380Y-65519819D01*
X140214380Y-65519819D02*
X140452476Y-64519819D01*
X140595333Y-65615057D02*
X141357237Y-65615057D01*
X142166761Y-65519819D02*
X141833428Y-65043628D01*
X141595333Y-65519819D02*
X141595333Y-64519819D01*
X141595333Y-64519819D02*
X141976285Y-64519819D01*
X141976285Y-64519819D02*
X142071523Y-64567438D01*
X142071523Y-64567438D02*
X142119142Y-64615057D01*
X142119142Y-64615057D02*
X142166761Y-64710295D01*
X142166761Y-64710295D02*
X142166761Y-64853152D01*
X142166761Y-64853152D02*
X142119142Y-64948390D01*
X142119142Y-64948390D02*
X142071523Y-64996009D01*
X142071523Y-64996009D02*
X141976285Y-65043628D01*
X141976285Y-65043628D02*
X141595333Y-65043628D01*
X142547714Y-64615057D02*
X142595333Y-64567438D01*
X142595333Y-64567438D02*
X142690571Y-64519819D01*
X142690571Y-64519819D02*
X142928666Y-64519819D01*
X142928666Y-64519819D02*
X143023904Y-64567438D01*
X143023904Y-64567438D02*
X143071523Y-64615057D01*
X143071523Y-64615057D02*
X143119142Y-64710295D01*
X143119142Y-64710295D02*
X143119142Y-64805533D01*
X143119142Y-64805533D02*
X143071523Y-64948390D01*
X143071523Y-64948390D02*
X142500095Y-65519819D01*
X142500095Y-65519819D02*
X143119142Y-65519819D01*
X143309619Y-65615057D02*
X144071523Y-65615057D01*
X144881047Y-65424580D02*
X144833428Y-65472200D01*
X144833428Y-65472200D02*
X144690571Y-65519819D01*
X144690571Y-65519819D02*
X144595333Y-65519819D01*
X144595333Y-65519819D02*
X144452476Y-65472200D01*
X144452476Y-65472200D02*
X144357238Y-65376961D01*
X144357238Y-65376961D02*
X144309619Y-65281723D01*
X144309619Y-65281723D02*
X144262000Y-65091247D01*
X144262000Y-65091247D02*
X144262000Y-64948390D01*
X144262000Y-64948390D02*
X144309619Y-64757914D01*
X144309619Y-64757914D02*
X144357238Y-64662676D01*
X144357238Y-64662676D02*
X144452476Y-64567438D01*
X144452476Y-64567438D02*
X144595333Y-64519819D01*
X144595333Y-64519819D02*
X144690571Y-64519819D01*
X144690571Y-64519819D02*
X144833428Y-64567438D01*
X144833428Y-64567438D02*
X144881047Y-64615057D01*
X145214381Y-64519819D02*
X145833428Y-64519819D01*
X145833428Y-64519819D02*
X145500095Y-64900771D01*
X145500095Y-64900771D02*
X145642952Y-64900771D01*
X145642952Y-64900771D02*
X145738190Y-64948390D01*
X145738190Y-64948390D02*
X145785809Y-64996009D01*
X145785809Y-64996009D02*
X145833428Y-65091247D01*
X145833428Y-65091247D02*
X145833428Y-65329342D01*
X145833428Y-65329342D02*
X145785809Y-65424580D01*
X145785809Y-65424580D02*
X145738190Y-65472200D01*
X145738190Y-65472200D02*
X145642952Y-65519819D01*
X145642952Y-65519819D02*
X145357238Y-65519819D01*
X145357238Y-65519819D02*
X145262000Y-65472200D01*
X145262000Y-65472200D02*
X145214381Y-65424580D01*
%TO.C,B-1*%
X106417848Y-28593464D02*
X106533962Y-28632169D01*
X106533962Y-28632169D02*
X106572667Y-28670873D01*
X106572667Y-28670873D02*
X106611371Y-28748283D01*
X106611371Y-28748283D02*
X106611371Y-28864397D01*
X106611371Y-28864397D02*
X106572667Y-28941807D01*
X106572667Y-28941807D02*
X106533962Y-28980512D01*
X106533962Y-28980512D02*
X106456552Y-29019216D01*
X106456552Y-29019216D02*
X106146914Y-29019216D01*
X106146914Y-29019216D02*
X106146914Y-28206416D01*
X106146914Y-28206416D02*
X106417848Y-28206416D01*
X106417848Y-28206416D02*
X106495257Y-28245121D01*
X106495257Y-28245121D02*
X106533962Y-28283826D01*
X106533962Y-28283826D02*
X106572667Y-28361235D01*
X106572667Y-28361235D02*
X106572667Y-28438645D01*
X106572667Y-28438645D02*
X106533962Y-28516054D01*
X106533962Y-28516054D02*
X106495257Y-28554759D01*
X106495257Y-28554759D02*
X106417848Y-28593464D01*
X106417848Y-28593464D02*
X106146914Y-28593464D01*
X106959714Y-28709578D02*
X107578991Y-28709578D01*
X108391791Y-29019216D02*
X107927334Y-29019216D01*
X108159562Y-29019216D02*
X108159562Y-28206416D01*
X108159562Y-28206416D02*
X108082153Y-28322531D01*
X108082153Y-28322531D02*
X108004743Y-28399940D01*
X108004743Y-28399940D02*
X107927334Y-28438645D01*
%TO.C,SW_R1_C1*%
X173690571Y-47472200D02*
X173833428Y-47519819D01*
X173833428Y-47519819D02*
X174071523Y-47519819D01*
X174071523Y-47519819D02*
X174166761Y-47472200D01*
X174166761Y-47472200D02*
X174214380Y-47424580D01*
X174214380Y-47424580D02*
X174261999Y-47329342D01*
X174261999Y-47329342D02*
X174261999Y-47234104D01*
X174261999Y-47234104D02*
X174214380Y-47138866D01*
X174214380Y-47138866D02*
X174166761Y-47091247D01*
X174166761Y-47091247D02*
X174071523Y-47043628D01*
X174071523Y-47043628D02*
X173881047Y-46996009D01*
X173881047Y-46996009D02*
X173785809Y-46948390D01*
X173785809Y-46948390D02*
X173738190Y-46900771D01*
X173738190Y-46900771D02*
X173690571Y-46805533D01*
X173690571Y-46805533D02*
X173690571Y-46710295D01*
X173690571Y-46710295D02*
X173738190Y-46615057D01*
X173738190Y-46615057D02*
X173785809Y-46567438D01*
X173785809Y-46567438D02*
X173881047Y-46519819D01*
X173881047Y-46519819D02*
X174119142Y-46519819D01*
X174119142Y-46519819D02*
X174261999Y-46567438D01*
X174595333Y-46519819D02*
X174833428Y-47519819D01*
X174833428Y-47519819D02*
X175023904Y-46805533D01*
X175023904Y-46805533D02*
X175214380Y-47519819D01*
X175214380Y-47519819D02*
X175452476Y-46519819D01*
X175595333Y-47615057D02*
X176357237Y-47615057D01*
X177166761Y-47519819D02*
X176833428Y-47043628D01*
X176595333Y-47519819D02*
X176595333Y-46519819D01*
X176595333Y-46519819D02*
X176976285Y-46519819D01*
X176976285Y-46519819D02*
X177071523Y-46567438D01*
X177071523Y-46567438D02*
X177119142Y-46615057D01*
X177119142Y-46615057D02*
X177166761Y-46710295D01*
X177166761Y-46710295D02*
X177166761Y-46853152D01*
X177166761Y-46853152D02*
X177119142Y-46948390D01*
X177119142Y-46948390D02*
X177071523Y-46996009D01*
X177071523Y-46996009D02*
X176976285Y-47043628D01*
X176976285Y-47043628D02*
X176595333Y-47043628D01*
X178119142Y-47519819D02*
X177547714Y-47519819D01*
X177833428Y-47519819D02*
X177833428Y-46519819D01*
X177833428Y-46519819D02*
X177738190Y-46662676D01*
X177738190Y-46662676D02*
X177642952Y-46757914D01*
X177642952Y-46757914D02*
X177547714Y-46805533D01*
X178309619Y-47615057D02*
X179071523Y-47615057D01*
X179881047Y-47424580D02*
X179833428Y-47472200D01*
X179833428Y-47472200D02*
X179690571Y-47519819D01*
X179690571Y-47519819D02*
X179595333Y-47519819D01*
X179595333Y-47519819D02*
X179452476Y-47472200D01*
X179452476Y-47472200D02*
X179357238Y-47376961D01*
X179357238Y-47376961D02*
X179309619Y-47281723D01*
X179309619Y-47281723D02*
X179262000Y-47091247D01*
X179262000Y-47091247D02*
X179262000Y-46948390D01*
X179262000Y-46948390D02*
X179309619Y-46757914D01*
X179309619Y-46757914D02*
X179357238Y-46662676D01*
X179357238Y-46662676D02*
X179452476Y-46567438D01*
X179452476Y-46567438D02*
X179595333Y-46519819D01*
X179595333Y-46519819D02*
X179690571Y-46519819D01*
X179690571Y-46519819D02*
X179833428Y-46567438D01*
X179833428Y-46567438D02*
X179881047Y-46615057D01*
X180833428Y-47519819D02*
X180262000Y-47519819D01*
X180547714Y-47519819D02*
X180547714Y-46519819D01*
X180547714Y-46519819D02*
X180452476Y-46662676D01*
X180452476Y-46662676D02*
X180357238Y-46757914D01*
X180357238Y-46757914D02*
X180262000Y-46805533D01*
D11*
%TO.C,U1*%
X89147380Y-50192035D02*
X89123571Y-50227750D01*
X89123571Y-50227750D02*
X89052142Y-50263464D01*
X89052142Y-50263464D02*
X89004523Y-50263464D01*
X89004523Y-50263464D02*
X88933095Y-50227750D01*
X88933095Y-50227750D02*
X88885476Y-50156321D01*
X88885476Y-50156321D02*
X88861666Y-50084892D01*
X88861666Y-50084892D02*
X88837857Y-49942035D01*
X88837857Y-49942035D02*
X88837857Y-49834892D01*
X88837857Y-49834892D02*
X88861666Y-49692035D01*
X88861666Y-49692035D02*
X88885476Y-49620607D01*
X88885476Y-49620607D02*
X88933095Y-49549178D01*
X88933095Y-49549178D02*
X89004523Y-49513464D01*
X89004523Y-49513464D02*
X89052142Y-49513464D01*
X89052142Y-49513464D02*
X89123571Y-49549178D01*
X89123571Y-49549178D02*
X89147380Y-49584892D01*
X89456904Y-49513464D02*
X89552142Y-49513464D01*
X89552142Y-49513464D02*
X89599761Y-49549178D01*
X89599761Y-49549178D02*
X89647380Y-49620607D01*
X89647380Y-49620607D02*
X89671190Y-49763464D01*
X89671190Y-49763464D02*
X89671190Y-50013464D01*
X89671190Y-50013464D02*
X89647380Y-50156321D01*
X89647380Y-50156321D02*
X89599761Y-50227750D01*
X89599761Y-50227750D02*
X89552142Y-50263464D01*
X89552142Y-50263464D02*
X89456904Y-50263464D01*
X89456904Y-50263464D02*
X89409285Y-50227750D01*
X89409285Y-50227750D02*
X89361666Y-50156321D01*
X89361666Y-50156321D02*
X89337857Y-50013464D01*
X89337857Y-50013464D02*
X89337857Y-49763464D01*
X89337857Y-49763464D02*
X89361666Y-49620607D01*
X89361666Y-49620607D02*
X89409285Y-49549178D01*
X89409285Y-49549178D02*
X89456904Y-49513464D01*
X90123571Y-50263464D02*
X89885476Y-50263464D01*
X89885476Y-50263464D02*
X89885476Y-49513464D01*
X90242619Y-49513464D02*
X90552143Y-49513464D01*
X90552143Y-49513464D02*
X90385476Y-49799178D01*
X90385476Y-49799178D02*
X90456905Y-49799178D01*
X90456905Y-49799178D02*
X90504524Y-49834892D01*
X90504524Y-49834892D02*
X90528333Y-49870607D01*
X90528333Y-49870607D02*
X90552143Y-49942035D01*
X90552143Y-49942035D02*
X90552143Y-50120607D01*
X90552143Y-50120607D02*
X90528333Y-50192035D01*
X90528333Y-50192035D02*
X90504524Y-50227750D01*
X90504524Y-50227750D02*
X90456905Y-50263464D01*
X90456905Y-50263464D02*
X90314048Y-50263464D01*
X90314048Y-50263464D02*
X90266429Y-50227750D01*
X90266429Y-50227750D02*
X90242619Y-50192035D01*
X104264047Y-55358964D02*
X104097381Y-55001821D01*
X103978333Y-55358964D02*
X103978333Y-54608964D01*
X103978333Y-54608964D02*
X104168809Y-54608964D01*
X104168809Y-54608964D02*
X104216428Y-54644678D01*
X104216428Y-54644678D02*
X104240238Y-54680392D01*
X104240238Y-54680392D02*
X104264047Y-54751821D01*
X104264047Y-54751821D02*
X104264047Y-54858964D01*
X104264047Y-54858964D02*
X104240238Y-54930392D01*
X104240238Y-54930392D02*
X104216428Y-54966107D01*
X104216428Y-54966107D02*
X104168809Y-55001821D01*
X104168809Y-55001821D02*
X103978333Y-55001821D01*
X104573571Y-54608964D02*
X104668809Y-54608964D01*
X104668809Y-54608964D02*
X104716428Y-54644678D01*
X104716428Y-54644678D02*
X104764047Y-54716107D01*
X104764047Y-54716107D02*
X104787857Y-54858964D01*
X104787857Y-54858964D02*
X104787857Y-55108964D01*
X104787857Y-55108964D02*
X104764047Y-55251821D01*
X104764047Y-55251821D02*
X104716428Y-55323250D01*
X104716428Y-55323250D02*
X104668809Y-55358964D01*
X104668809Y-55358964D02*
X104573571Y-55358964D01*
X104573571Y-55358964D02*
X104525952Y-55323250D01*
X104525952Y-55323250D02*
X104478333Y-55251821D01*
X104478333Y-55251821D02*
X104454524Y-55108964D01*
X104454524Y-55108964D02*
X104454524Y-54858964D01*
X104454524Y-54858964D02*
X104478333Y-54716107D01*
X104478333Y-54716107D02*
X104525952Y-54644678D01*
X104525952Y-54644678D02*
X104573571Y-54608964D01*
X104954524Y-54608964D02*
X105073572Y-55358964D01*
X105073572Y-55358964D02*
X105168810Y-54823250D01*
X105168810Y-54823250D02*
X105264048Y-55358964D01*
X105264048Y-55358964D02*
X105383096Y-54608964D01*
X105525953Y-54608964D02*
X105835477Y-54608964D01*
X105835477Y-54608964D02*
X105668810Y-54894678D01*
X105668810Y-54894678D02*
X105740239Y-54894678D01*
X105740239Y-54894678D02*
X105787858Y-54930392D01*
X105787858Y-54930392D02*
X105811667Y-54966107D01*
X105811667Y-54966107D02*
X105835477Y-55037535D01*
X105835477Y-55037535D02*
X105835477Y-55216107D01*
X105835477Y-55216107D02*
X105811667Y-55287535D01*
X105811667Y-55287535D02*
X105787858Y-55323250D01*
X105787858Y-55323250D02*
X105740239Y-55358964D01*
X105740239Y-55358964D02*
X105597382Y-55358964D01*
X105597382Y-55358964D02*
X105549763Y-55323250D01*
X105549763Y-55323250D02*
X105525953Y-55287535D01*
X89312834Y-39305464D02*
X89479500Y-40055464D01*
X89479500Y-40055464D02*
X89646167Y-39305464D01*
X90098547Y-39984035D02*
X90074738Y-40019750D01*
X90074738Y-40019750D02*
X90003309Y-40055464D01*
X90003309Y-40055464D02*
X89955690Y-40055464D01*
X89955690Y-40055464D02*
X89884262Y-40019750D01*
X89884262Y-40019750D02*
X89836643Y-39948321D01*
X89836643Y-39948321D02*
X89812833Y-39876892D01*
X89812833Y-39876892D02*
X89789024Y-39734035D01*
X89789024Y-39734035D02*
X89789024Y-39626892D01*
X89789024Y-39626892D02*
X89812833Y-39484035D01*
X89812833Y-39484035D02*
X89836643Y-39412607D01*
X89836643Y-39412607D02*
X89884262Y-39341178D01*
X89884262Y-39341178D02*
X89955690Y-39305464D01*
X89955690Y-39305464D02*
X90003309Y-39305464D01*
X90003309Y-39305464D02*
X90074738Y-39341178D01*
X90074738Y-39341178D02*
X90098547Y-39376892D01*
X90598547Y-39984035D02*
X90574738Y-40019750D01*
X90574738Y-40019750D02*
X90503309Y-40055464D01*
X90503309Y-40055464D02*
X90455690Y-40055464D01*
X90455690Y-40055464D02*
X90384262Y-40019750D01*
X90384262Y-40019750D02*
X90336643Y-39948321D01*
X90336643Y-39948321D02*
X90312833Y-39876892D01*
X90312833Y-39876892D02*
X90289024Y-39734035D01*
X90289024Y-39734035D02*
X90289024Y-39626892D01*
X90289024Y-39626892D02*
X90312833Y-39484035D01*
X90312833Y-39484035D02*
X90336643Y-39412607D01*
X90336643Y-39412607D02*
X90384262Y-39341178D01*
X90384262Y-39341178D02*
X90455690Y-39305464D01*
X90455690Y-39305464D02*
X90503309Y-39305464D01*
X90503309Y-39305464D02*
X90574738Y-39341178D01*
X90574738Y-39341178D02*
X90598547Y-39376892D01*
X89634261Y-32435464D02*
X89467595Y-32078321D01*
X89348547Y-32435464D02*
X89348547Y-31685464D01*
X89348547Y-31685464D02*
X89539023Y-31685464D01*
X89539023Y-31685464D02*
X89586642Y-31721178D01*
X89586642Y-31721178D02*
X89610452Y-31756892D01*
X89610452Y-31756892D02*
X89634261Y-31828321D01*
X89634261Y-31828321D02*
X89634261Y-31935464D01*
X89634261Y-31935464D02*
X89610452Y-32006892D01*
X89610452Y-32006892D02*
X89586642Y-32042607D01*
X89586642Y-32042607D02*
X89539023Y-32078321D01*
X89539023Y-32078321D02*
X89348547Y-32078321D01*
X89824738Y-32221178D02*
X90062833Y-32221178D01*
X89777119Y-32435464D02*
X89943785Y-31685464D01*
X89943785Y-31685464D02*
X90110452Y-32435464D01*
X90229499Y-31685464D02*
X90348547Y-32435464D01*
X90348547Y-32435464D02*
X90443785Y-31899750D01*
X90443785Y-31899750D02*
X90539023Y-32435464D01*
X90539023Y-32435464D02*
X90658071Y-31685464D01*
D10*
D11*
X89197380Y-52692035D02*
X89173571Y-52727750D01*
X89173571Y-52727750D02*
X89102142Y-52763464D01*
X89102142Y-52763464D02*
X89054523Y-52763464D01*
X89054523Y-52763464D02*
X88983095Y-52727750D01*
X88983095Y-52727750D02*
X88935476Y-52656321D01*
X88935476Y-52656321D02*
X88911666Y-52584892D01*
X88911666Y-52584892D02*
X88887857Y-52442035D01*
X88887857Y-52442035D02*
X88887857Y-52334892D01*
X88887857Y-52334892D02*
X88911666Y-52192035D01*
X88911666Y-52192035D02*
X88935476Y-52120607D01*
X88935476Y-52120607D02*
X88983095Y-52049178D01*
X88983095Y-52049178D02*
X89054523Y-52013464D01*
X89054523Y-52013464D02*
X89102142Y-52013464D01*
X89102142Y-52013464D02*
X89173571Y-52049178D01*
X89173571Y-52049178D02*
X89197380Y-52084892D01*
X89506904Y-52013464D02*
X89602142Y-52013464D01*
X89602142Y-52013464D02*
X89649761Y-52049178D01*
X89649761Y-52049178D02*
X89697380Y-52120607D01*
X89697380Y-52120607D02*
X89721190Y-52263464D01*
X89721190Y-52263464D02*
X89721190Y-52513464D01*
X89721190Y-52513464D02*
X89697380Y-52656321D01*
X89697380Y-52656321D02*
X89649761Y-52727750D01*
X89649761Y-52727750D02*
X89602142Y-52763464D01*
X89602142Y-52763464D02*
X89506904Y-52763464D01*
X89506904Y-52763464D02*
X89459285Y-52727750D01*
X89459285Y-52727750D02*
X89411666Y-52656321D01*
X89411666Y-52656321D02*
X89387857Y-52513464D01*
X89387857Y-52513464D02*
X89387857Y-52263464D01*
X89387857Y-52263464D02*
X89411666Y-52120607D01*
X89411666Y-52120607D02*
X89459285Y-52049178D01*
X89459285Y-52049178D02*
X89506904Y-52013464D01*
X90173571Y-52763464D02*
X89935476Y-52763464D01*
X89935476Y-52763464D02*
X89935476Y-52013464D01*
X90554524Y-52263464D02*
X90554524Y-52763464D01*
X90435476Y-51977750D02*
X90316429Y-52513464D01*
X90316429Y-52513464D02*
X90625952Y-52513464D01*
X104692619Y-60046107D02*
X104764047Y-60081821D01*
X104764047Y-60081821D02*
X104787857Y-60117535D01*
X104787857Y-60117535D02*
X104811666Y-60188964D01*
X104811666Y-60188964D02*
X104811666Y-60296107D01*
X104811666Y-60296107D02*
X104787857Y-60367535D01*
X104787857Y-60367535D02*
X104764047Y-60403250D01*
X104764047Y-60403250D02*
X104716428Y-60438964D01*
X104716428Y-60438964D02*
X104525952Y-60438964D01*
X104525952Y-60438964D02*
X104525952Y-59688964D01*
X104525952Y-59688964D02*
X104692619Y-59688964D01*
X104692619Y-59688964D02*
X104740238Y-59724678D01*
X104740238Y-59724678D02*
X104764047Y-59760392D01*
X104764047Y-59760392D02*
X104787857Y-59831821D01*
X104787857Y-59831821D02*
X104787857Y-59903250D01*
X104787857Y-59903250D02*
X104764047Y-59974678D01*
X104764047Y-59974678D02*
X104740238Y-60010392D01*
X104740238Y-60010392D02*
X104692619Y-60046107D01*
X104692619Y-60046107D02*
X104525952Y-60046107D01*
X105264047Y-59688964D02*
X105025952Y-59688964D01*
X105025952Y-59688964D02*
X105002143Y-60046107D01*
X105002143Y-60046107D02*
X105025952Y-60010392D01*
X105025952Y-60010392D02*
X105073571Y-59974678D01*
X105073571Y-59974678D02*
X105192619Y-59974678D01*
X105192619Y-59974678D02*
X105240238Y-60010392D01*
X105240238Y-60010392D02*
X105264047Y-60046107D01*
X105264047Y-60046107D02*
X105287857Y-60117535D01*
X105287857Y-60117535D02*
X105287857Y-60296107D01*
X105287857Y-60296107D02*
X105264047Y-60367535D01*
X105264047Y-60367535D02*
X105240238Y-60403250D01*
X105240238Y-60403250D02*
X105192619Y-60438964D01*
X105192619Y-60438964D02*
X105073571Y-60438964D01*
X105073571Y-60438964D02*
X105025952Y-60403250D01*
X105025952Y-60403250D02*
X105002143Y-60367535D01*
X104692619Y-57442607D02*
X104764047Y-57478321D01*
X104764047Y-57478321D02*
X104787857Y-57514035D01*
X104787857Y-57514035D02*
X104811666Y-57585464D01*
X104811666Y-57585464D02*
X104811666Y-57692607D01*
X104811666Y-57692607D02*
X104787857Y-57764035D01*
X104787857Y-57764035D02*
X104764047Y-57799750D01*
X104764047Y-57799750D02*
X104716428Y-57835464D01*
X104716428Y-57835464D02*
X104525952Y-57835464D01*
X104525952Y-57835464D02*
X104525952Y-57085464D01*
X104525952Y-57085464D02*
X104692619Y-57085464D01*
X104692619Y-57085464D02*
X104740238Y-57121178D01*
X104740238Y-57121178D02*
X104764047Y-57156892D01*
X104764047Y-57156892D02*
X104787857Y-57228321D01*
X104787857Y-57228321D02*
X104787857Y-57299750D01*
X104787857Y-57299750D02*
X104764047Y-57371178D01*
X104764047Y-57371178D02*
X104740238Y-57406892D01*
X104740238Y-57406892D02*
X104692619Y-57442607D01*
X104692619Y-57442607D02*
X104525952Y-57442607D01*
X105240238Y-57335464D02*
X105240238Y-57835464D01*
X105121190Y-57049750D02*
X105002143Y-57585464D01*
X105002143Y-57585464D02*
X105311666Y-57585464D01*
X104873571Y-32435464D02*
X104635476Y-32435464D01*
X104635476Y-32435464D02*
X104635476Y-31685464D01*
X105040238Y-32042607D02*
X105206905Y-32042607D01*
X105278333Y-32435464D02*
X105040238Y-32435464D01*
X105040238Y-32435464D02*
X105040238Y-31685464D01*
X105040238Y-31685464D02*
X105278333Y-31685464D01*
X105492619Y-32435464D02*
X105492619Y-31685464D01*
X105492619Y-31685464D02*
X105611667Y-31685464D01*
X105611667Y-31685464D02*
X105683095Y-31721178D01*
X105683095Y-31721178D02*
X105730714Y-31792607D01*
X105730714Y-31792607D02*
X105754524Y-31864035D01*
X105754524Y-31864035D02*
X105778333Y-32006892D01*
X105778333Y-32006892D02*
X105778333Y-32114035D01*
X105778333Y-32114035D02*
X105754524Y-32256892D01*
X105754524Y-32256892D02*
X105730714Y-32328321D01*
X105730714Y-32328321D02*
X105683095Y-32399750D01*
X105683095Y-32399750D02*
X105611667Y-32435464D01*
X105611667Y-32435464D02*
X105492619Y-32435464D01*
X89197380Y-55287535D02*
X89173571Y-55323250D01*
X89173571Y-55323250D02*
X89102142Y-55358964D01*
X89102142Y-55358964D02*
X89054523Y-55358964D01*
X89054523Y-55358964D02*
X88983095Y-55323250D01*
X88983095Y-55323250D02*
X88935476Y-55251821D01*
X88935476Y-55251821D02*
X88911666Y-55180392D01*
X88911666Y-55180392D02*
X88887857Y-55037535D01*
X88887857Y-55037535D02*
X88887857Y-54930392D01*
X88887857Y-54930392D02*
X88911666Y-54787535D01*
X88911666Y-54787535D02*
X88935476Y-54716107D01*
X88935476Y-54716107D02*
X88983095Y-54644678D01*
X88983095Y-54644678D02*
X89054523Y-54608964D01*
X89054523Y-54608964D02*
X89102142Y-54608964D01*
X89102142Y-54608964D02*
X89173571Y-54644678D01*
X89173571Y-54644678D02*
X89197380Y-54680392D01*
X89506904Y-54608964D02*
X89602142Y-54608964D01*
X89602142Y-54608964D02*
X89649761Y-54644678D01*
X89649761Y-54644678D02*
X89697380Y-54716107D01*
X89697380Y-54716107D02*
X89721190Y-54858964D01*
X89721190Y-54858964D02*
X89721190Y-55108964D01*
X89721190Y-55108964D02*
X89697380Y-55251821D01*
X89697380Y-55251821D02*
X89649761Y-55323250D01*
X89649761Y-55323250D02*
X89602142Y-55358964D01*
X89602142Y-55358964D02*
X89506904Y-55358964D01*
X89506904Y-55358964D02*
X89459285Y-55323250D01*
X89459285Y-55323250D02*
X89411666Y-55251821D01*
X89411666Y-55251821D02*
X89387857Y-55108964D01*
X89387857Y-55108964D02*
X89387857Y-54858964D01*
X89387857Y-54858964D02*
X89411666Y-54716107D01*
X89411666Y-54716107D02*
X89459285Y-54644678D01*
X89459285Y-54644678D02*
X89506904Y-54608964D01*
X90173571Y-55358964D02*
X89935476Y-55358964D01*
X89935476Y-55358964D02*
X89935476Y-54608964D01*
X90578333Y-54608964D02*
X90340238Y-54608964D01*
X90340238Y-54608964D02*
X90316429Y-54966107D01*
X90316429Y-54966107D02*
X90340238Y-54930392D01*
X90340238Y-54930392D02*
X90387857Y-54894678D01*
X90387857Y-54894678D02*
X90506905Y-54894678D01*
X90506905Y-54894678D02*
X90554524Y-54930392D01*
X90554524Y-54930392D02*
X90578333Y-54966107D01*
X90578333Y-54966107D02*
X90602143Y-55037535D01*
X90602143Y-55037535D02*
X90602143Y-55216107D01*
X90602143Y-55216107D02*
X90578333Y-55287535D01*
X90578333Y-55287535D02*
X90554524Y-55323250D01*
X90554524Y-55323250D02*
X90506905Y-55358964D01*
X90506905Y-55358964D02*
X90387857Y-55358964D01*
X90387857Y-55358964D02*
X90340238Y-55323250D01*
X90340238Y-55323250D02*
X90316429Y-55287535D01*
X104314047Y-50215464D02*
X104147381Y-49858321D01*
X104028333Y-50215464D02*
X104028333Y-49465464D01*
X104028333Y-49465464D02*
X104218809Y-49465464D01*
X104218809Y-49465464D02*
X104266428Y-49501178D01*
X104266428Y-49501178D02*
X104290238Y-49536892D01*
X104290238Y-49536892D02*
X104314047Y-49608321D01*
X104314047Y-49608321D02*
X104314047Y-49715464D01*
X104314047Y-49715464D02*
X104290238Y-49786892D01*
X104290238Y-49786892D02*
X104266428Y-49822607D01*
X104266428Y-49822607D02*
X104218809Y-49858321D01*
X104218809Y-49858321D02*
X104028333Y-49858321D01*
X104623571Y-49465464D02*
X104718809Y-49465464D01*
X104718809Y-49465464D02*
X104766428Y-49501178D01*
X104766428Y-49501178D02*
X104814047Y-49572607D01*
X104814047Y-49572607D02*
X104837857Y-49715464D01*
X104837857Y-49715464D02*
X104837857Y-49965464D01*
X104837857Y-49965464D02*
X104814047Y-50108321D01*
X104814047Y-50108321D02*
X104766428Y-50179750D01*
X104766428Y-50179750D02*
X104718809Y-50215464D01*
X104718809Y-50215464D02*
X104623571Y-50215464D01*
X104623571Y-50215464D02*
X104575952Y-50179750D01*
X104575952Y-50179750D02*
X104528333Y-50108321D01*
X104528333Y-50108321D02*
X104504524Y-49965464D01*
X104504524Y-49965464D02*
X104504524Y-49715464D01*
X104504524Y-49715464D02*
X104528333Y-49572607D01*
X104528333Y-49572607D02*
X104575952Y-49501178D01*
X104575952Y-49501178D02*
X104623571Y-49465464D01*
X105004524Y-49465464D02*
X105123572Y-50215464D01*
X105123572Y-50215464D02*
X105218810Y-49679750D01*
X105218810Y-49679750D02*
X105314048Y-50215464D01*
X105314048Y-50215464D02*
X105433096Y-49465464D01*
X105885477Y-50215464D02*
X105599763Y-50215464D01*
X105742620Y-50215464D02*
X105742620Y-49465464D01*
X105742620Y-49465464D02*
X105695001Y-49572607D01*
X105695001Y-49572607D02*
X105647382Y-49644035D01*
X105647382Y-49644035D02*
X105599763Y-49679750D01*
X89542619Y-57470607D02*
X89614047Y-57506321D01*
X89614047Y-57506321D02*
X89637857Y-57542035D01*
X89637857Y-57542035D02*
X89661666Y-57613464D01*
X89661666Y-57613464D02*
X89661666Y-57720607D01*
X89661666Y-57720607D02*
X89637857Y-57792035D01*
X89637857Y-57792035D02*
X89614047Y-57827750D01*
X89614047Y-57827750D02*
X89566428Y-57863464D01*
X89566428Y-57863464D02*
X89375952Y-57863464D01*
X89375952Y-57863464D02*
X89375952Y-57113464D01*
X89375952Y-57113464D02*
X89542619Y-57113464D01*
X89542619Y-57113464D02*
X89590238Y-57149178D01*
X89590238Y-57149178D02*
X89614047Y-57184892D01*
X89614047Y-57184892D02*
X89637857Y-57256321D01*
X89637857Y-57256321D02*
X89637857Y-57327750D01*
X89637857Y-57327750D02*
X89614047Y-57399178D01*
X89614047Y-57399178D02*
X89590238Y-57434892D01*
X89590238Y-57434892D02*
X89542619Y-57470607D01*
X89542619Y-57470607D02*
X89375952Y-57470607D01*
X89852143Y-57184892D02*
X89875952Y-57149178D01*
X89875952Y-57149178D02*
X89923571Y-57113464D01*
X89923571Y-57113464D02*
X90042619Y-57113464D01*
X90042619Y-57113464D02*
X90090238Y-57149178D01*
X90090238Y-57149178D02*
X90114047Y-57184892D01*
X90114047Y-57184892D02*
X90137857Y-57256321D01*
X90137857Y-57256321D02*
X90137857Y-57327750D01*
X90137857Y-57327750D02*
X90114047Y-57434892D01*
X90114047Y-57434892D02*
X89828333Y-57863464D01*
X89828333Y-57863464D02*
X90137857Y-57863464D01*
X104264047Y-47713464D02*
X104097381Y-47356321D01*
X103978333Y-47713464D02*
X103978333Y-46963464D01*
X103978333Y-46963464D02*
X104168809Y-46963464D01*
X104168809Y-46963464D02*
X104216428Y-46999178D01*
X104216428Y-46999178D02*
X104240238Y-47034892D01*
X104240238Y-47034892D02*
X104264047Y-47106321D01*
X104264047Y-47106321D02*
X104264047Y-47213464D01*
X104264047Y-47213464D02*
X104240238Y-47284892D01*
X104240238Y-47284892D02*
X104216428Y-47320607D01*
X104216428Y-47320607D02*
X104168809Y-47356321D01*
X104168809Y-47356321D02*
X103978333Y-47356321D01*
X104573571Y-46963464D02*
X104668809Y-46963464D01*
X104668809Y-46963464D02*
X104716428Y-46999178D01*
X104716428Y-46999178D02*
X104764047Y-47070607D01*
X104764047Y-47070607D02*
X104787857Y-47213464D01*
X104787857Y-47213464D02*
X104787857Y-47463464D01*
X104787857Y-47463464D02*
X104764047Y-47606321D01*
X104764047Y-47606321D02*
X104716428Y-47677750D01*
X104716428Y-47677750D02*
X104668809Y-47713464D01*
X104668809Y-47713464D02*
X104573571Y-47713464D01*
X104573571Y-47713464D02*
X104525952Y-47677750D01*
X104525952Y-47677750D02*
X104478333Y-47606321D01*
X104478333Y-47606321D02*
X104454524Y-47463464D01*
X104454524Y-47463464D02*
X104454524Y-47213464D01*
X104454524Y-47213464D02*
X104478333Y-47070607D01*
X104478333Y-47070607D02*
X104525952Y-46999178D01*
X104525952Y-46999178D02*
X104573571Y-46963464D01*
X104954524Y-46963464D02*
X105073572Y-47713464D01*
X105073572Y-47713464D02*
X105168810Y-47177750D01*
X105168810Y-47177750D02*
X105264048Y-47713464D01*
X105264048Y-47713464D02*
X105383096Y-46963464D01*
X105668810Y-46963464D02*
X105716429Y-46963464D01*
X105716429Y-46963464D02*
X105764048Y-46999178D01*
X105764048Y-46999178D02*
X105787858Y-47034892D01*
X105787858Y-47034892D02*
X105811667Y-47106321D01*
X105811667Y-47106321D02*
X105835477Y-47249178D01*
X105835477Y-47249178D02*
X105835477Y-47427750D01*
X105835477Y-47427750D02*
X105811667Y-47570607D01*
X105811667Y-47570607D02*
X105787858Y-47642035D01*
X105787858Y-47642035D02*
X105764048Y-47677750D01*
X105764048Y-47677750D02*
X105716429Y-47713464D01*
X105716429Y-47713464D02*
X105668810Y-47713464D01*
X105668810Y-47713464D02*
X105621191Y-47677750D01*
X105621191Y-47677750D02*
X105597382Y-47642035D01*
X105597382Y-47642035D02*
X105573572Y-47570607D01*
X105573572Y-47570607D02*
X105549763Y-47427750D01*
X105549763Y-47427750D02*
X105549763Y-47249178D01*
X105549763Y-47249178D02*
X105573572Y-47106321D01*
X105573572Y-47106321D02*
X105597382Y-47034892D01*
X105597382Y-47034892D02*
X105621191Y-46999178D01*
X105621191Y-46999178D02*
X105668810Y-46963464D01*
X104560762Y-45099750D02*
X104632190Y-45135464D01*
X104632190Y-45135464D02*
X104751238Y-45135464D01*
X104751238Y-45135464D02*
X104798857Y-45099750D01*
X104798857Y-45099750D02*
X104822666Y-45064035D01*
X104822666Y-45064035D02*
X104846476Y-44992607D01*
X104846476Y-44992607D02*
X104846476Y-44921178D01*
X104846476Y-44921178D02*
X104822666Y-44849750D01*
X104822666Y-44849750D02*
X104798857Y-44814035D01*
X104798857Y-44814035D02*
X104751238Y-44778321D01*
X104751238Y-44778321D02*
X104656000Y-44742607D01*
X104656000Y-44742607D02*
X104608381Y-44706892D01*
X104608381Y-44706892D02*
X104584571Y-44671178D01*
X104584571Y-44671178D02*
X104560762Y-44599750D01*
X104560762Y-44599750D02*
X104560762Y-44528321D01*
X104560762Y-44528321D02*
X104584571Y-44456892D01*
X104584571Y-44456892D02*
X104608381Y-44421178D01*
X104608381Y-44421178D02*
X104656000Y-44385464D01*
X104656000Y-44385464D02*
X104775047Y-44385464D01*
X104775047Y-44385464D02*
X104846476Y-44421178D01*
X105346475Y-45064035D02*
X105322666Y-45099750D01*
X105322666Y-45099750D02*
X105251237Y-45135464D01*
X105251237Y-45135464D02*
X105203618Y-45135464D01*
X105203618Y-45135464D02*
X105132190Y-45099750D01*
X105132190Y-45099750D02*
X105084571Y-45028321D01*
X105084571Y-45028321D02*
X105060761Y-44956892D01*
X105060761Y-44956892D02*
X105036952Y-44814035D01*
X105036952Y-44814035D02*
X105036952Y-44706892D01*
X105036952Y-44706892D02*
X105060761Y-44564035D01*
X105060761Y-44564035D02*
X105084571Y-44492607D01*
X105084571Y-44492607D02*
X105132190Y-44421178D01*
X105132190Y-44421178D02*
X105203618Y-44385464D01*
X105203618Y-44385464D02*
X105251237Y-44385464D01*
X105251237Y-44385464D02*
X105322666Y-44421178D01*
X105322666Y-44421178D02*
X105346475Y-44456892D01*
X105798856Y-45135464D02*
X105560761Y-45135464D01*
X105560761Y-45135464D02*
X105560761Y-44385464D01*
X89247380Y-42542035D02*
X89223571Y-42577750D01*
X89223571Y-42577750D02*
X89152142Y-42613464D01*
X89152142Y-42613464D02*
X89104523Y-42613464D01*
X89104523Y-42613464D02*
X89033095Y-42577750D01*
X89033095Y-42577750D02*
X88985476Y-42506321D01*
X88985476Y-42506321D02*
X88961666Y-42434892D01*
X88961666Y-42434892D02*
X88937857Y-42292035D01*
X88937857Y-42292035D02*
X88937857Y-42184892D01*
X88937857Y-42184892D02*
X88961666Y-42042035D01*
X88961666Y-42042035D02*
X88985476Y-41970607D01*
X88985476Y-41970607D02*
X89033095Y-41899178D01*
X89033095Y-41899178D02*
X89104523Y-41863464D01*
X89104523Y-41863464D02*
X89152142Y-41863464D01*
X89152142Y-41863464D02*
X89223571Y-41899178D01*
X89223571Y-41899178D02*
X89247380Y-41934892D01*
X89556904Y-41863464D02*
X89652142Y-41863464D01*
X89652142Y-41863464D02*
X89699761Y-41899178D01*
X89699761Y-41899178D02*
X89747380Y-41970607D01*
X89747380Y-41970607D02*
X89771190Y-42113464D01*
X89771190Y-42113464D02*
X89771190Y-42363464D01*
X89771190Y-42363464D02*
X89747380Y-42506321D01*
X89747380Y-42506321D02*
X89699761Y-42577750D01*
X89699761Y-42577750D02*
X89652142Y-42613464D01*
X89652142Y-42613464D02*
X89556904Y-42613464D01*
X89556904Y-42613464D02*
X89509285Y-42577750D01*
X89509285Y-42577750D02*
X89461666Y-42506321D01*
X89461666Y-42506321D02*
X89437857Y-42363464D01*
X89437857Y-42363464D02*
X89437857Y-42113464D01*
X89437857Y-42113464D02*
X89461666Y-41970607D01*
X89461666Y-41970607D02*
X89509285Y-41899178D01*
X89509285Y-41899178D02*
X89556904Y-41863464D01*
X90223571Y-42613464D02*
X89985476Y-42613464D01*
X89985476Y-42613464D02*
X89985476Y-41863464D01*
X90485476Y-41863464D02*
X90533095Y-41863464D01*
X90533095Y-41863464D02*
X90580714Y-41899178D01*
X90580714Y-41899178D02*
X90604524Y-41934892D01*
X90604524Y-41934892D02*
X90628333Y-42006321D01*
X90628333Y-42006321D02*
X90652143Y-42149178D01*
X90652143Y-42149178D02*
X90652143Y-42327750D01*
X90652143Y-42327750D02*
X90628333Y-42470607D01*
X90628333Y-42470607D02*
X90604524Y-42542035D01*
X90604524Y-42542035D02*
X90580714Y-42577750D01*
X90580714Y-42577750D02*
X90533095Y-42613464D01*
X90533095Y-42613464D02*
X90485476Y-42613464D01*
X90485476Y-42613464D02*
X90437857Y-42577750D01*
X90437857Y-42577750D02*
X90414048Y-42542035D01*
X90414048Y-42542035D02*
X90390238Y-42470607D01*
X90390238Y-42470607D02*
X90366429Y-42327750D01*
X90366429Y-42327750D02*
X90366429Y-42149178D01*
X90366429Y-42149178D02*
X90390238Y-42006321D01*
X90390238Y-42006321D02*
X90414048Y-41934892D01*
X90414048Y-41934892D02*
X90437857Y-41899178D01*
X90437857Y-41899178D02*
X90485476Y-41863464D01*
X89598547Y-34261178D02*
X89550928Y-34225464D01*
X89550928Y-34225464D02*
X89479499Y-34225464D01*
X89479499Y-34225464D02*
X89408071Y-34261178D01*
X89408071Y-34261178D02*
X89360452Y-34332607D01*
X89360452Y-34332607D02*
X89336642Y-34404035D01*
X89336642Y-34404035D02*
X89312833Y-34546892D01*
X89312833Y-34546892D02*
X89312833Y-34654035D01*
X89312833Y-34654035D02*
X89336642Y-34796892D01*
X89336642Y-34796892D02*
X89360452Y-34868321D01*
X89360452Y-34868321D02*
X89408071Y-34939750D01*
X89408071Y-34939750D02*
X89479499Y-34975464D01*
X89479499Y-34975464D02*
X89527118Y-34975464D01*
X89527118Y-34975464D02*
X89598547Y-34939750D01*
X89598547Y-34939750D02*
X89622356Y-34904035D01*
X89622356Y-34904035D02*
X89622356Y-34654035D01*
X89622356Y-34654035D02*
X89527118Y-34654035D01*
X89836642Y-34975464D02*
X89836642Y-34225464D01*
X89836642Y-34225464D02*
X90122356Y-34975464D01*
X90122356Y-34975464D02*
X90122356Y-34225464D01*
X90360452Y-34975464D02*
X90360452Y-34225464D01*
X90360452Y-34225464D02*
X90479500Y-34225464D01*
X90479500Y-34225464D02*
X90550928Y-34261178D01*
X90550928Y-34261178D02*
X90598547Y-34332607D01*
X90598547Y-34332607D02*
X90622357Y-34404035D01*
X90622357Y-34404035D02*
X90646166Y-34546892D01*
X90646166Y-34546892D02*
X90646166Y-34654035D01*
X90646166Y-34654035D02*
X90622357Y-34796892D01*
X90622357Y-34796892D02*
X90598547Y-34868321D01*
X90598547Y-34868321D02*
X90550928Y-34939750D01*
X90550928Y-34939750D02*
X90479500Y-34975464D01*
X90479500Y-34975464D02*
X90360452Y-34975464D01*
X89247380Y-47604035D02*
X89223571Y-47639750D01*
X89223571Y-47639750D02*
X89152142Y-47675464D01*
X89152142Y-47675464D02*
X89104523Y-47675464D01*
X89104523Y-47675464D02*
X89033095Y-47639750D01*
X89033095Y-47639750D02*
X88985476Y-47568321D01*
X88985476Y-47568321D02*
X88961666Y-47496892D01*
X88961666Y-47496892D02*
X88937857Y-47354035D01*
X88937857Y-47354035D02*
X88937857Y-47246892D01*
X88937857Y-47246892D02*
X88961666Y-47104035D01*
X88961666Y-47104035D02*
X88985476Y-47032607D01*
X88985476Y-47032607D02*
X89033095Y-46961178D01*
X89033095Y-46961178D02*
X89104523Y-46925464D01*
X89104523Y-46925464D02*
X89152142Y-46925464D01*
X89152142Y-46925464D02*
X89223571Y-46961178D01*
X89223571Y-46961178D02*
X89247380Y-46996892D01*
X89556904Y-46925464D02*
X89652142Y-46925464D01*
X89652142Y-46925464D02*
X89699761Y-46961178D01*
X89699761Y-46961178D02*
X89747380Y-47032607D01*
X89747380Y-47032607D02*
X89771190Y-47175464D01*
X89771190Y-47175464D02*
X89771190Y-47425464D01*
X89771190Y-47425464D02*
X89747380Y-47568321D01*
X89747380Y-47568321D02*
X89699761Y-47639750D01*
X89699761Y-47639750D02*
X89652142Y-47675464D01*
X89652142Y-47675464D02*
X89556904Y-47675464D01*
X89556904Y-47675464D02*
X89509285Y-47639750D01*
X89509285Y-47639750D02*
X89461666Y-47568321D01*
X89461666Y-47568321D02*
X89437857Y-47425464D01*
X89437857Y-47425464D02*
X89437857Y-47175464D01*
X89437857Y-47175464D02*
X89461666Y-47032607D01*
X89461666Y-47032607D02*
X89509285Y-46961178D01*
X89509285Y-46961178D02*
X89556904Y-46925464D01*
X90223571Y-47675464D02*
X89985476Y-47675464D01*
X89985476Y-47675464D02*
X89985476Y-46925464D01*
X90366429Y-46996892D02*
X90390238Y-46961178D01*
X90390238Y-46961178D02*
X90437857Y-46925464D01*
X90437857Y-46925464D02*
X90556905Y-46925464D01*
X90556905Y-46925464D02*
X90604524Y-46961178D01*
X90604524Y-46961178D02*
X90628333Y-46996892D01*
X90628333Y-46996892D02*
X90652143Y-47068321D01*
X90652143Y-47068321D02*
X90652143Y-47139750D01*
X90652143Y-47139750D02*
X90628333Y-47246892D01*
X90628333Y-47246892D02*
X90342619Y-47675464D01*
X90342619Y-47675464D02*
X90652143Y-47675464D01*
X104775047Y-39404678D02*
X104727428Y-39368964D01*
X104727428Y-39368964D02*
X104655999Y-39368964D01*
X104655999Y-39368964D02*
X104584571Y-39404678D01*
X104584571Y-39404678D02*
X104536952Y-39476107D01*
X104536952Y-39476107D02*
X104513142Y-39547535D01*
X104513142Y-39547535D02*
X104489333Y-39690392D01*
X104489333Y-39690392D02*
X104489333Y-39797535D01*
X104489333Y-39797535D02*
X104513142Y-39940392D01*
X104513142Y-39940392D02*
X104536952Y-40011821D01*
X104536952Y-40011821D02*
X104584571Y-40083250D01*
X104584571Y-40083250D02*
X104655999Y-40118964D01*
X104655999Y-40118964D02*
X104703618Y-40118964D01*
X104703618Y-40118964D02*
X104775047Y-40083250D01*
X104775047Y-40083250D02*
X104798856Y-40047535D01*
X104798856Y-40047535D02*
X104798856Y-39797535D01*
X104798856Y-39797535D02*
X104703618Y-39797535D01*
X105013142Y-40118964D02*
X105013142Y-39368964D01*
X105013142Y-39368964D02*
X105298856Y-40118964D01*
X105298856Y-40118964D02*
X105298856Y-39368964D01*
X105536952Y-40118964D02*
X105536952Y-39368964D01*
X105536952Y-39368964D02*
X105656000Y-39368964D01*
X105656000Y-39368964D02*
X105727428Y-39404678D01*
X105727428Y-39404678D02*
X105775047Y-39476107D01*
X105775047Y-39476107D02*
X105798857Y-39547535D01*
X105798857Y-39547535D02*
X105822666Y-39690392D01*
X105822666Y-39690392D02*
X105822666Y-39797535D01*
X105822666Y-39797535D02*
X105798857Y-39940392D01*
X105798857Y-39940392D02*
X105775047Y-40011821D01*
X105775047Y-40011821D02*
X105727428Y-40083250D01*
X105727428Y-40083250D02*
X105656000Y-40118964D01*
X105656000Y-40118964D02*
X105536952Y-40118964D01*
X104295000Y-34963464D02*
X104295000Y-34213464D01*
X104295000Y-34213464D02*
X104414048Y-34213464D01*
X104414048Y-34213464D02*
X104485476Y-34249178D01*
X104485476Y-34249178D02*
X104533095Y-34320607D01*
X104533095Y-34320607D02*
X104556905Y-34392035D01*
X104556905Y-34392035D02*
X104580714Y-34534892D01*
X104580714Y-34534892D02*
X104580714Y-34642035D01*
X104580714Y-34642035D02*
X104556905Y-34784892D01*
X104556905Y-34784892D02*
X104533095Y-34856321D01*
X104533095Y-34856321D02*
X104485476Y-34927750D01*
X104485476Y-34927750D02*
X104414048Y-34963464D01*
X104414048Y-34963464D02*
X104295000Y-34963464D01*
X104771191Y-34749178D02*
X105009286Y-34749178D01*
X104723572Y-34963464D02*
X104890238Y-34213464D01*
X104890238Y-34213464D02*
X105056905Y-34963464D01*
X105152143Y-34213464D02*
X105437857Y-34213464D01*
X105295000Y-34963464D02*
X105295000Y-34213464D01*
X105580714Y-34749178D02*
X105818809Y-34749178D01*
X105533095Y-34963464D02*
X105699761Y-34213464D01*
X105699761Y-34213464D02*
X105866428Y-34963464D01*
X104264047Y-52763464D02*
X104097381Y-52406321D01*
X103978333Y-52763464D02*
X103978333Y-52013464D01*
X103978333Y-52013464D02*
X104168809Y-52013464D01*
X104168809Y-52013464D02*
X104216428Y-52049178D01*
X104216428Y-52049178D02*
X104240238Y-52084892D01*
X104240238Y-52084892D02*
X104264047Y-52156321D01*
X104264047Y-52156321D02*
X104264047Y-52263464D01*
X104264047Y-52263464D02*
X104240238Y-52334892D01*
X104240238Y-52334892D02*
X104216428Y-52370607D01*
X104216428Y-52370607D02*
X104168809Y-52406321D01*
X104168809Y-52406321D02*
X103978333Y-52406321D01*
X104573571Y-52013464D02*
X104668809Y-52013464D01*
X104668809Y-52013464D02*
X104716428Y-52049178D01*
X104716428Y-52049178D02*
X104764047Y-52120607D01*
X104764047Y-52120607D02*
X104787857Y-52263464D01*
X104787857Y-52263464D02*
X104787857Y-52513464D01*
X104787857Y-52513464D02*
X104764047Y-52656321D01*
X104764047Y-52656321D02*
X104716428Y-52727750D01*
X104716428Y-52727750D02*
X104668809Y-52763464D01*
X104668809Y-52763464D02*
X104573571Y-52763464D01*
X104573571Y-52763464D02*
X104525952Y-52727750D01*
X104525952Y-52727750D02*
X104478333Y-52656321D01*
X104478333Y-52656321D02*
X104454524Y-52513464D01*
X104454524Y-52513464D02*
X104454524Y-52263464D01*
X104454524Y-52263464D02*
X104478333Y-52120607D01*
X104478333Y-52120607D02*
X104525952Y-52049178D01*
X104525952Y-52049178D02*
X104573571Y-52013464D01*
X104954524Y-52013464D02*
X105073572Y-52763464D01*
X105073572Y-52763464D02*
X105168810Y-52227750D01*
X105168810Y-52227750D02*
X105264048Y-52763464D01*
X105264048Y-52763464D02*
X105383096Y-52013464D01*
X105549763Y-52084892D02*
X105573572Y-52049178D01*
X105573572Y-52049178D02*
X105621191Y-52013464D01*
X105621191Y-52013464D02*
X105740239Y-52013464D01*
X105740239Y-52013464D02*
X105787858Y-52049178D01*
X105787858Y-52049178D02*
X105811667Y-52084892D01*
X105811667Y-52084892D02*
X105835477Y-52156321D01*
X105835477Y-52156321D02*
X105835477Y-52227750D01*
X105835477Y-52227750D02*
X105811667Y-52334892D01*
X105811667Y-52334892D02*
X105525953Y-52763464D01*
X105525953Y-52763464D02*
X105835477Y-52763464D01*
X104838547Y-36864678D02*
X104790928Y-36828964D01*
X104790928Y-36828964D02*
X104719499Y-36828964D01*
X104719499Y-36828964D02*
X104648071Y-36864678D01*
X104648071Y-36864678D02*
X104600452Y-36936107D01*
X104600452Y-36936107D02*
X104576642Y-37007535D01*
X104576642Y-37007535D02*
X104552833Y-37150392D01*
X104552833Y-37150392D02*
X104552833Y-37257535D01*
X104552833Y-37257535D02*
X104576642Y-37400392D01*
X104576642Y-37400392D02*
X104600452Y-37471821D01*
X104600452Y-37471821D02*
X104648071Y-37543250D01*
X104648071Y-37543250D02*
X104719499Y-37578964D01*
X104719499Y-37578964D02*
X104767118Y-37578964D01*
X104767118Y-37578964D02*
X104838547Y-37543250D01*
X104838547Y-37543250D02*
X104862356Y-37507535D01*
X104862356Y-37507535D02*
X104862356Y-37257535D01*
X104862356Y-37257535D02*
X104767118Y-37257535D01*
X105076642Y-37578964D02*
X105076642Y-36828964D01*
X105076642Y-36828964D02*
X105362356Y-37578964D01*
X105362356Y-37578964D02*
X105362356Y-36828964D01*
X105600452Y-37578964D02*
X105600452Y-36828964D01*
X105600452Y-36828964D02*
X105719500Y-36828964D01*
X105719500Y-36828964D02*
X105790928Y-36864678D01*
X105790928Y-36864678D02*
X105838547Y-36936107D01*
X105838547Y-36936107D02*
X105862357Y-37007535D01*
X105862357Y-37007535D02*
X105886166Y-37150392D01*
X105886166Y-37150392D02*
X105886166Y-37257535D01*
X105886166Y-37257535D02*
X105862357Y-37400392D01*
X105862357Y-37400392D02*
X105838547Y-37471821D01*
X105838547Y-37471821D02*
X105790928Y-37543250D01*
X105790928Y-37543250D02*
X105719500Y-37578964D01*
X105719500Y-37578964D02*
X105600452Y-37578964D01*
X89442619Y-60020607D02*
X89514047Y-60056321D01*
X89514047Y-60056321D02*
X89537857Y-60092035D01*
X89537857Y-60092035D02*
X89561666Y-60163464D01*
X89561666Y-60163464D02*
X89561666Y-60270607D01*
X89561666Y-60270607D02*
X89537857Y-60342035D01*
X89537857Y-60342035D02*
X89514047Y-60377750D01*
X89514047Y-60377750D02*
X89466428Y-60413464D01*
X89466428Y-60413464D02*
X89275952Y-60413464D01*
X89275952Y-60413464D02*
X89275952Y-59663464D01*
X89275952Y-59663464D02*
X89442619Y-59663464D01*
X89442619Y-59663464D02*
X89490238Y-59699178D01*
X89490238Y-59699178D02*
X89514047Y-59734892D01*
X89514047Y-59734892D02*
X89537857Y-59806321D01*
X89537857Y-59806321D02*
X89537857Y-59877750D01*
X89537857Y-59877750D02*
X89514047Y-59949178D01*
X89514047Y-59949178D02*
X89490238Y-59984892D01*
X89490238Y-59984892D02*
X89442619Y-60020607D01*
X89442619Y-60020607D02*
X89275952Y-60020607D01*
X89990238Y-59663464D02*
X89895000Y-59663464D01*
X89895000Y-59663464D02*
X89847381Y-59699178D01*
X89847381Y-59699178D02*
X89823571Y-59734892D01*
X89823571Y-59734892D02*
X89775952Y-59842035D01*
X89775952Y-59842035D02*
X89752143Y-59984892D01*
X89752143Y-59984892D02*
X89752143Y-60270607D01*
X89752143Y-60270607D02*
X89775952Y-60342035D01*
X89775952Y-60342035D02*
X89799762Y-60377750D01*
X89799762Y-60377750D02*
X89847381Y-60413464D01*
X89847381Y-60413464D02*
X89942619Y-60413464D01*
X89942619Y-60413464D02*
X89990238Y-60377750D01*
X89990238Y-60377750D02*
X90014047Y-60342035D01*
X90014047Y-60342035D02*
X90037857Y-60270607D01*
X90037857Y-60270607D02*
X90037857Y-60092035D01*
X90037857Y-60092035D02*
X90014047Y-60020607D01*
X90014047Y-60020607D02*
X89990238Y-59984892D01*
X89990238Y-59984892D02*
X89942619Y-59949178D01*
X89942619Y-59949178D02*
X89847381Y-59949178D01*
X89847381Y-59949178D02*
X89799762Y-59984892D01*
X89799762Y-59984892D02*
X89775952Y-60020607D01*
X89775952Y-60020607D02*
X89752143Y-60092035D01*
X89297380Y-45064035D02*
X89273571Y-45099750D01*
X89273571Y-45099750D02*
X89202142Y-45135464D01*
X89202142Y-45135464D02*
X89154523Y-45135464D01*
X89154523Y-45135464D02*
X89083095Y-45099750D01*
X89083095Y-45099750D02*
X89035476Y-45028321D01*
X89035476Y-45028321D02*
X89011666Y-44956892D01*
X89011666Y-44956892D02*
X88987857Y-44814035D01*
X88987857Y-44814035D02*
X88987857Y-44706892D01*
X88987857Y-44706892D02*
X89011666Y-44564035D01*
X89011666Y-44564035D02*
X89035476Y-44492607D01*
X89035476Y-44492607D02*
X89083095Y-44421178D01*
X89083095Y-44421178D02*
X89154523Y-44385464D01*
X89154523Y-44385464D02*
X89202142Y-44385464D01*
X89202142Y-44385464D02*
X89273571Y-44421178D01*
X89273571Y-44421178D02*
X89297380Y-44456892D01*
X89606904Y-44385464D02*
X89702142Y-44385464D01*
X89702142Y-44385464D02*
X89749761Y-44421178D01*
X89749761Y-44421178D02*
X89797380Y-44492607D01*
X89797380Y-44492607D02*
X89821190Y-44635464D01*
X89821190Y-44635464D02*
X89821190Y-44885464D01*
X89821190Y-44885464D02*
X89797380Y-45028321D01*
X89797380Y-45028321D02*
X89749761Y-45099750D01*
X89749761Y-45099750D02*
X89702142Y-45135464D01*
X89702142Y-45135464D02*
X89606904Y-45135464D01*
X89606904Y-45135464D02*
X89559285Y-45099750D01*
X89559285Y-45099750D02*
X89511666Y-45028321D01*
X89511666Y-45028321D02*
X89487857Y-44885464D01*
X89487857Y-44885464D02*
X89487857Y-44635464D01*
X89487857Y-44635464D02*
X89511666Y-44492607D01*
X89511666Y-44492607D02*
X89559285Y-44421178D01*
X89559285Y-44421178D02*
X89606904Y-44385464D01*
X90273571Y-45135464D02*
X90035476Y-45135464D01*
X90035476Y-45135464D02*
X90035476Y-44385464D01*
X90702143Y-45135464D02*
X90416429Y-45135464D01*
X90559286Y-45135464D02*
X90559286Y-44385464D01*
X90559286Y-44385464D02*
X90511667Y-44492607D01*
X90511667Y-44492607D02*
X90464048Y-44564035D01*
X90464048Y-44564035D02*
X90416429Y-44599750D01*
X104548858Y-42559750D02*
X104620286Y-42595464D01*
X104620286Y-42595464D02*
X104739334Y-42595464D01*
X104739334Y-42595464D02*
X104786953Y-42559750D01*
X104786953Y-42559750D02*
X104810762Y-42524035D01*
X104810762Y-42524035D02*
X104834572Y-42452607D01*
X104834572Y-42452607D02*
X104834572Y-42381178D01*
X104834572Y-42381178D02*
X104810762Y-42309750D01*
X104810762Y-42309750D02*
X104786953Y-42274035D01*
X104786953Y-42274035D02*
X104739334Y-42238321D01*
X104739334Y-42238321D02*
X104644096Y-42202607D01*
X104644096Y-42202607D02*
X104596477Y-42166892D01*
X104596477Y-42166892D02*
X104572667Y-42131178D01*
X104572667Y-42131178D02*
X104548858Y-42059750D01*
X104548858Y-42059750D02*
X104548858Y-41988321D01*
X104548858Y-41988321D02*
X104572667Y-41916892D01*
X104572667Y-41916892D02*
X104596477Y-41881178D01*
X104596477Y-41881178D02*
X104644096Y-41845464D01*
X104644096Y-41845464D02*
X104763143Y-41845464D01*
X104763143Y-41845464D02*
X104834572Y-41881178D01*
X105048857Y-42595464D02*
X105048857Y-41845464D01*
X105048857Y-41845464D02*
X105167905Y-41845464D01*
X105167905Y-41845464D02*
X105239333Y-41881178D01*
X105239333Y-41881178D02*
X105286952Y-41952607D01*
X105286952Y-41952607D02*
X105310762Y-42024035D01*
X105310762Y-42024035D02*
X105334571Y-42166892D01*
X105334571Y-42166892D02*
X105334571Y-42274035D01*
X105334571Y-42274035D02*
X105310762Y-42416892D01*
X105310762Y-42416892D02*
X105286952Y-42488321D01*
X105286952Y-42488321D02*
X105239333Y-42559750D01*
X105239333Y-42559750D02*
X105167905Y-42595464D01*
X105167905Y-42595464D02*
X105048857Y-42595464D01*
X105525048Y-42381178D02*
X105763143Y-42381178D01*
X105477429Y-42595464D02*
X105644095Y-41845464D01*
X105644095Y-41845464D02*
X105810762Y-42595464D01*
X89705690Y-37578964D02*
X89539024Y-37221821D01*
X89419976Y-37578964D02*
X89419976Y-36828964D01*
X89419976Y-36828964D02*
X89610452Y-36828964D01*
X89610452Y-36828964D02*
X89658071Y-36864678D01*
X89658071Y-36864678D02*
X89681881Y-36900392D01*
X89681881Y-36900392D02*
X89705690Y-36971821D01*
X89705690Y-36971821D02*
X89705690Y-37078964D01*
X89705690Y-37078964D02*
X89681881Y-37150392D01*
X89681881Y-37150392D02*
X89658071Y-37186107D01*
X89658071Y-37186107D02*
X89610452Y-37221821D01*
X89610452Y-37221821D02*
X89419976Y-37221821D01*
X89896167Y-37543250D02*
X89967595Y-37578964D01*
X89967595Y-37578964D02*
X90086643Y-37578964D01*
X90086643Y-37578964D02*
X90134262Y-37543250D01*
X90134262Y-37543250D02*
X90158071Y-37507535D01*
X90158071Y-37507535D02*
X90181881Y-37436107D01*
X90181881Y-37436107D02*
X90181881Y-37364678D01*
X90181881Y-37364678D02*
X90158071Y-37293250D01*
X90158071Y-37293250D02*
X90134262Y-37257535D01*
X90134262Y-37257535D02*
X90086643Y-37221821D01*
X90086643Y-37221821D02*
X89991405Y-37186107D01*
X89991405Y-37186107D02*
X89943786Y-37150392D01*
X89943786Y-37150392D02*
X89919976Y-37114678D01*
X89919976Y-37114678D02*
X89896167Y-37043250D01*
X89896167Y-37043250D02*
X89896167Y-36971821D01*
X89896167Y-36971821D02*
X89919976Y-36900392D01*
X89919976Y-36900392D02*
X89943786Y-36864678D01*
X89943786Y-36864678D02*
X89991405Y-36828964D01*
X89991405Y-36828964D02*
X90110452Y-36828964D01*
X90110452Y-36828964D02*
X90181881Y-36864678D01*
X90324738Y-36828964D02*
X90610452Y-36828964D01*
X90467595Y-37578964D02*
X90467595Y-36828964D01*
D10*
%TO.C,SW_R0_C4*%
X121190571Y-31872200D02*
X121333428Y-31919819D01*
X121333428Y-31919819D02*
X121571523Y-31919819D01*
X121571523Y-31919819D02*
X121666761Y-31872200D01*
X121666761Y-31872200D02*
X121714380Y-31824580D01*
X121714380Y-31824580D02*
X121761999Y-31729342D01*
X121761999Y-31729342D02*
X121761999Y-31634104D01*
X121761999Y-31634104D02*
X121714380Y-31538866D01*
X121714380Y-31538866D02*
X121666761Y-31491247D01*
X121666761Y-31491247D02*
X121571523Y-31443628D01*
X121571523Y-31443628D02*
X121381047Y-31396009D01*
X121381047Y-31396009D02*
X121285809Y-31348390D01*
X121285809Y-31348390D02*
X121238190Y-31300771D01*
X121238190Y-31300771D02*
X121190571Y-31205533D01*
X121190571Y-31205533D02*
X121190571Y-31110295D01*
X121190571Y-31110295D02*
X121238190Y-31015057D01*
X121238190Y-31015057D02*
X121285809Y-30967438D01*
X121285809Y-30967438D02*
X121381047Y-30919819D01*
X121381047Y-30919819D02*
X121619142Y-30919819D01*
X121619142Y-30919819D02*
X121761999Y-30967438D01*
X122095333Y-30919819D02*
X122333428Y-31919819D01*
X122333428Y-31919819D02*
X122523904Y-31205533D01*
X122523904Y-31205533D02*
X122714380Y-31919819D01*
X122714380Y-31919819D02*
X122952476Y-30919819D01*
X123095333Y-32015057D02*
X123857237Y-32015057D01*
X124666761Y-31919819D02*
X124333428Y-31443628D01*
X124095333Y-31919819D02*
X124095333Y-30919819D01*
X124095333Y-30919819D02*
X124476285Y-30919819D01*
X124476285Y-30919819D02*
X124571523Y-30967438D01*
X124571523Y-30967438D02*
X124619142Y-31015057D01*
X124619142Y-31015057D02*
X124666761Y-31110295D01*
X124666761Y-31110295D02*
X124666761Y-31253152D01*
X124666761Y-31253152D02*
X124619142Y-31348390D01*
X124619142Y-31348390D02*
X124571523Y-31396009D01*
X124571523Y-31396009D02*
X124476285Y-31443628D01*
X124476285Y-31443628D02*
X124095333Y-31443628D01*
X125285809Y-30919819D02*
X125381047Y-30919819D01*
X125381047Y-30919819D02*
X125476285Y-30967438D01*
X125476285Y-30967438D02*
X125523904Y-31015057D01*
X125523904Y-31015057D02*
X125571523Y-31110295D01*
X125571523Y-31110295D02*
X125619142Y-31300771D01*
X125619142Y-31300771D02*
X125619142Y-31538866D01*
X125619142Y-31538866D02*
X125571523Y-31729342D01*
X125571523Y-31729342D02*
X125523904Y-31824580D01*
X125523904Y-31824580D02*
X125476285Y-31872200D01*
X125476285Y-31872200D02*
X125381047Y-31919819D01*
X125381047Y-31919819D02*
X125285809Y-31919819D01*
X125285809Y-31919819D02*
X125190571Y-31872200D01*
X125190571Y-31872200D02*
X125142952Y-31824580D01*
X125142952Y-31824580D02*
X125095333Y-31729342D01*
X125095333Y-31729342D02*
X125047714Y-31538866D01*
X125047714Y-31538866D02*
X125047714Y-31300771D01*
X125047714Y-31300771D02*
X125095333Y-31110295D01*
X125095333Y-31110295D02*
X125142952Y-31015057D01*
X125142952Y-31015057D02*
X125190571Y-30967438D01*
X125190571Y-30967438D02*
X125285809Y-30919819D01*
X125809619Y-32015057D02*
X126571523Y-32015057D01*
X127381047Y-31824580D02*
X127333428Y-31872200D01*
X127333428Y-31872200D02*
X127190571Y-31919819D01*
X127190571Y-31919819D02*
X127095333Y-31919819D01*
X127095333Y-31919819D02*
X126952476Y-31872200D01*
X126952476Y-31872200D02*
X126857238Y-31776961D01*
X126857238Y-31776961D02*
X126809619Y-31681723D01*
X126809619Y-31681723D02*
X126762000Y-31491247D01*
X126762000Y-31491247D02*
X126762000Y-31348390D01*
X126762000Y-31348390D02*
X126809619Y-31157914D01*
X126809619Y-31157914D02*
X126857238Y-31062676D01*
X126857238Y-31062676D02*
X126952476Y-30967438D01*
X126952476Y-30967438D02*
X127095333Y-30919819D01*
X127095333Y-30919819D02*
X127190571Y-30919819D01*
X127190571Y-30919819D02*
X127333428Y-30967438D01*
X127333428Y-30967438D02*
X127381047Y-31015057D01*
X128238190Y-31253152D02*
X128238190Y-31919819D01*
X128000095Y-30872200D02*
X127762000Y-31586485D01*
X127762000Y-31586485D02*
X128381047Y-31586485D01*
%TO.C,SW_R0_C0*%
X191190571Y-37972200D02*
X191333428Y-38019819D01*
X191333428Y-38019819D02*
X191571523Y-38019819D01*
X191571523Y-38019819D02*
X191666761Y-37972200D01*
X191666761Y-37972200D02*
X191714380Y-37924580D01*
X191714380Y-37924580D02*
X191761999Y-37829342D01*
X191761999Y-37829342D02*
X191761999Y-37734104D01*
X191761999Y-37734104D02*
X191714380Y-37638866D01*
X191714380Y-37638866D02*
X191666761Y-37591247D01*
X191666761Y-37591247D02*
X191571523Y-37543628D01*
X191571523Y-37543628D02*
X191381047Y-37496009D01*
X191381047Y-37496009D02*
X191285809Y-37448390D01*
X191285809Y-37448390D02*
X191238190Y-37400771D01*
X191238190Y-37400771D02*
X191190571Y-37305533D01*
X191190571Y-37305533D02*
X191190571Y-37210295D01*
X191190571Y-37210295D02*
X191238190Y-37115057D01*
X191238190Y-37115057D02*
X191285809Y-37067438D01*
X191285809Y-37067438D02*
X191381047Y-37019819D01*
X191381047Y-37019819D02*
X191619142Y-37019819D01*
X191619142Y-37019819D02*
X191761999Y-37067438D01*
X192095333Y-37019819D02*
X192333428Y-38019819D01*
X192333428Y-38019819D02*
X192523904Y-37305533D01*
X192523904Y-37305533D02*
X192714380Y-38019819D01*
X192714380Y-38019819D02*
X192952476Y-37019819D01*
X193095333Y-38115057D02*
X193857237Y-38115057D01*
X194666761Y-38019819D02*
X194333428Y-37543628D01*
X194095333Y-38019819D02*
X194095333Y-37019819D01*
X194095333Y-37019819D02*
X194476285Y-37019819D01*
X194476285Y-37019819D02*
X194571523Y-37067438D01*
X194571523Y-37067438D02*
X194619142Y-37115057D01*
X194619142Y-37115057D02*
X194666761Y-37210295D01*
X194666761Y-37210295D02*
X194666761Y-37353152D01*
X194666761Y-37353152D02*
X194619142Y-37448390D01*
X194619142Y-37448390D02*
X194571523Y-37496009D01*
X194571523Y-37496009D02*
X194476285Y-37543628D01*
X194476285Y-37543628D02*
X194095333Y-37543628D01*
X195285809Y-37019819D02*
X195381047Y-37019819D01*
X195381047Y-37019819D02*
X195476285Y-37067438D01*
X195476285Y-37067438D02*
X195523904Y-37115057D01*
X195523904Y-37115057D02*
X195571523Y-37210295D01*
X195571523Y-37210295D02*
X195619142Y-37400771D01*
X195619142Y-37400771D02*
X195619142Y-37638866D01*
X195619142Y-37638866D02*
X195571523Y-37829342D01*
X195571523Y-37829342D02*
X195523904Y-37924580D01*
X195523904Y-37924580D02*
X195476285Y-37972200D01*
X195476285Y-37972200D02*
X195381047Y-38019819D01*
X195381047Y-38019819D02*
X195285809Y-38019819D01*
X195285809Y-38019819D02*
X195190571Y-37972200D01*
X195190571Y-37972200D02*
X195142952Y-37924580D01*
X195142952Y-37924580D02*
X195095333Y-37829342D01*
X195095333Y-37829342D02*
X195047714Y-37638866D01*
X195047714Y-37638866D02*
X195047714Y-37400771D01*
X195047714Y-37400771D02*
X195095333Y-37210295D01*
X195095333Y-37210295D02*
X195142952Y-37115057D01*
X195142952Y-37115057D02*
X195190571Y-37067438D01*
X195190571Y-37067438D02*
X195285809Y-37019819D01*
X195809619Y-38115057D02*
X196571523Y-38115057D01*
X197381047Y-37924580D02*
X197333428Y-37972200D01*
X197333428Y-37972200D02*
X197190571Y-38019819D01*
X197190571Y-38019819D02*
X197095333Y-38019819D01*
X197095333Y-38019819D02*
X196952476Y-37972200D01*
X196952476Y-37972200D02*
X196857238Y-37876961D01*
X196857238Y-37876961D02*
X196809619Y-37781723D01*
X196809619Y-37781723D02*
X196762000Y-37591247D01*
X196762000Y-37591247D02*
X196762000Y-37448390D01*
X196762000Y-37448390D02*
X196809619Y-37257914D01*
X196809619Y-37257914D02*
X196857238Y-37162676D01*
X196857238Y-37162676D02*
X196952476Y-37067438D01*
X196952476Y-37067438D02*
X197095333Y-37019819D01*
X197095333Y-37019819D02*
X197190571Y-37019819D01*
X197190571Y-37019819D02*
X197333428Y-37067438D01*
X197333428Y-37067438D02*
X197381047Y-37115057D01*
X198000095Y-37019819D02*
X198095333Y-37019819D01*
X198095333Y-37019819D02*
X198190571Y-37067438D01*
X198190571Y-37067438D02*
X198238190Y-37115057D01*
X198238190Y-37115057D02*
X198285809Y-37210295D01*
X198285809Y-37210295D02*
X198333428Y-37400771D01*
X198333428Y-37400771D02*
X198333428Y-37638866D01*
X198333428Y-37638866D02*
X198285809Y-37829342D01*
X198285809Y-37829342D02*
X198238190Y-37924580D01*
X198238190Y-37924580D02*
X198190571Y-37972200D01*
X198190571Y-37972200D02*
X198095333Y-38019819D01*
X198095333Y-38019819D02*
X198000095Y-38019819D01*
X198000095Y-38019819D02*
X197904857Y-37972200D01*
X197904857Y-37972200D02*
X197857238Y-37924580D01*
X197857238Y-37924580D02*
X197809619Y-37829342D01*
X197809619Y-37829342D02*
X197762000Y-37638866D01*
X197762000Y-37638866D02*
X197762000Y-37400771D01*
X197762000Y-37400771D02*
X197809619Y-37210295D01*
X197809619Y-37210295D02*
X197857238Y-37115057D01*
X197857238Y-37115057D02*
X197904857Y-37067438D01*
X197904857Y-37067438D02*
X198000095Y-37019819D01*
%TO.C,SW_R1_C2*%
X156190571Y-43082200D02*
X156333428Y-43129819D01*
X156333428Y-43129819D02*
X156571523Y-43129819D01*
X156571523Y-43129819D02*
X156666761Y-43082200D01*
X156666761Y-43082200D02*
X156714380Y-43034580D01*
X156714380Y-43034580D02*
X156761999Y-42939342D01*
X156761999Y-42939342D02*
X156761999Y-42844104D01*
X156761999Y-42844104D02*
X156714380Y-42748866D01*
X156714380Y-42748866D02*
X156666761Y-42701247D01*
X156666761Y-42701247D02*
X156571523Y-42653628D01*
X156571523Y-42653628D02*
X156381047Y-42606009D01*
X156381047Y-42606009D02*
X156285809Y-42558390D01*
X156285809Y-42558390D02*
X156238190Y-42510771D01*
X156238190Y-42510771D02*
X156190571Y-42415533D01*
X156190571Y-42415533D02*
X156190571Y-42320295D01*
X156190571Y-42320295D02*
X156238190Y-42225057D01*
X156238190Y-42225057D02*
X156285809Y-42177438D01*
X156285809Y-42177438D02*
X156381047Y-42129819D01*
X156381047Y-42129819D02*
X156619142Y-42129819D01*
X156619142Y-42129819D02*
X156761999Y-42177438D01*
X157095333Y-42129819D02*
X157333428Y-43129819D01*
X157333428Y-43129819D02*
X157523904Y-42415533D01*
X157523904Y-42415533D02*
X157714380Y-43129819D01*
X157714380Y-43129819D02*
X157952476Y-42129819D01*
X158095333Y-43225057D02*
X158857237Y-43225057D01*
X159666761Y-43129819D02*
X159333428Y-42653628D01*
X159095333Y-43129819D02*
X159095333Y-42129819D01*
X159095333Y-42129819D02*
X159476285Y-42129819D01*
X159476285Y-42129819D02*
X159571523Y-42177438D01*
X159571523Y-42177438D02*
X159619142Y-42225057D01*
X159619142Y-42225057D02*
X159666761Y-42320295D01*
X159666761Y-42320295D02*
X159666761Y-42463152D01*
X159666761Y-42463152D02*
X159619142Y-42558390D01*
X159619142Y-42558390D02*
X159571523Y-42606009D01*
X159571523Y-42606009D02*
X159476285Y-42653628D01*
X159476285Y-42653628D02*
X159095333Y-42653628D01*
X160619142Y-43129819D02*
X160047714Y-43129819D01*
X160333428Y-43129819D02*
X160333428Y-42129819D01*
X160333428Y-42129819D02*
X160238190Y-42272676D01*
X160238190Y-42272676D02*
X160142952Y-42367914D01*
X160142952Y-42367914D02*
X160047714Y-42415533D01*
X160809619Y-43225057D02*
X161571523Y-43225057D01*
X162381047Y-43034580D02*
X162333428Y-43082200D01*
X162333428Y-43082200D02*
X162190571Y-43129819D01*
X162190571Y-43129819D02*
X162095333Y-43129819D01*
X162095333Y-43129819D02*
X161952476Y-43082200D01*
X161952476Y-43082200D02*
X161857238Y-42986961D01*
X161857238Y-42986961D02*
X161809619Y-42891723D01*
X161809619Y-42891723D02*
X161762000Y-42701247D01*
X161762000Y-42701247D02*
X161762000Y-42558390D01*
X161762000Y-42558390D02*
X161809619Y-42367914D01*
X161809619Y-42367914D02*
X161857238Y-42272676D01*
X161857238Y-42272676D02*
X161952476Y-42177438D01*
X161952476Y-42177438D02*
X162095333Y-42129819D01*
X162095333Y-42129819D02*
X162190571Y-42129819D01*
X162190571Y-42129819D02*
X162333428Y-42177438D01*
X162333428Y-42177438D02*
X162381047Y-42225057D01*
X162762000Y-42225057D02*
X162809619Y-42177438D01*
X162809619Y-42177438D02*
X162904857Y-42129819D01*
X162904857Y-42129819D02*
X163142952Y-42129819D01*
X163142952Y-42129819D02*
X163238190Y-42177438D01*
X163238190Y-42177438D02*
X163285809Y-42225057D01*
X163285809Y-42225057D02*
X163333428Y-42320295D01*
X163333428Y-42320295D02*
X163333428Y-42415533D01*
X163333428Y-42415533D02*
X163285809Y-42558390D01*
X163285809Y-42558390D02*
X162714381Y-43129819D01*
X162714381Y-43129819D02*
X163333428Y-43129819D01*
%TO.C,SW_R0_C1*%
X173690571Y-29472200D02*
X173833428Y-29519819D01*
X173833428Y-29519819D02*
X174071523Y-29519819D01*
X174071523Y-29519819D02*
X174166761Y-29472200D01*
X174166761Y-29472200D02*
X174214380Y-29424580D01*
X174214380Y-29424580D02*
X174261999Y-29329342D01*
X174261999Y-29329342D02*
X174261999Y-29234104D01*
X174261999Y-29234104D02*
X174214380Y-29138866D01*
X174214380Y-29138866D02*
X174166761Y-29091247D01*
X174166761Y-29091247D02*
X174071523Y-29043628D01*
X174071523Y-29043628D02*
X173881047Y-28996009D01*
X173881047Y-28996009D02*
X173785809Y-28948390D01*
X173785809Y-28948390D02*
X173738190Y-28900771D01*
X173738190Y-28900771D02*
X173690571Y-28805533D01*
X173690571Y-28805533D02*
X173690571Y-28710295D01*
X173690571Y-28710295D02*
X173738190Y-28615057D01*
X173738190Y-28615057D02*
X173785809Y-28567438D01*
X173785809Y-28567438D02*
X173881047Y-28519819D01*
X173881047Y-28519819D02*
X174119142Y-28519819D01*
X174119142Y-28519819D02*
X174261999Y-28567438D01*
X174595333Y-28519819D02*
X174833428Y-29519819D01*
X174833428Y-29519819D02*
X175023904Y-28805533D01*
X175023904Y-28805533D02*
X175214380Y-29519819D01*
X175214380Y-29519819D02*
X175452476Y-28519819D01*
X175595333Y-29615057D02*
X176357237Y-29615057D01*
X177166761Y-29519819D02*
X176833428Y-29043628D01*
X176595333Y-29519819D02*
X176595333Y-28519819D01*
X176595333Y-28519819D02*
X176976285Y-28519819D01*
X176976285Y-28519819D02*
X177071523Y-28567438D01*
X177071523Y-28567438D02*
X177119142Y-28615057D01*
X177119142Y-28615057D02*
X177166761Y-28710295D01*
X177166761Y-28710295D02*
X177166761Y-28853152D01*
X177166761Y-28853152D02*
X177119142Y-28948390D01*
X177119142Y-28948390D02*
X177071523Y-28996009D01*
X177071523Y-28996009D02*
X176976285Y-29043628D01*
X176976285Y-29043628D02*
X176595333Y-29043628D01*
X177785809Y-28519819D02*
X177881047Y-28519819D01*
X177881047Y-28519819D02*
X177976285Y-28567438D01*
X177976285Y-28567438D02*
X178023904Y-28615057D01*
X178023904Y-28615057D02*
X178071523Y-28710295D01*
X178071523Y-28710295D02*
X178119142Y-28900771D01*
X178119142Y-28900771D02*
X178119142Y-29138866D01*
X178119142Y-29138866D02*
X178071523Y-29329342D01*
X178071523Y-29329342D02*
X178023904Y-29424580D01*
X178023904Y-29424580D02*
X177976285Y-29472200D01*
X177976285Y-29472200D02*
X177881047Y-29519819D01*
X177881047Y-29519819D02*
X177785809Y-29519819D01*
X177785809Y-29519819D02*
X177690571Y-29472200D01*
X177690571Y-29472200D02*
X177642952Y-29424580D01*
X177642952Y-29424580D02*
X177595333Y-29329342D01*
X177595333Y-29329342D02*
X177547714Y-29138866D01*
X177547714Y-29138866D02*
X177547714Y-28900771D01*
X177547714Y-28900771D02*
X177595333Y-28710295D01*
X177595333Y-28710295D02*
X177642952Y-28615057D01*
X177642952Y-28615057D02*
X177690571Y-28567438D01*
X177690571Y-28567438D02*
X177785809Y-28519819D01*
X178309619Y-29615057D02*
X179071523Y-29615057D01*
X179881047Y-29424580D02*
X179833428Y-29472200D01*
X179833428Y-29472200D02*
X179690571Y-29519819D01*
X179690571Y-29519819D02*
X179595333Y-29519819D01*
X179595333Y-29519819D02*
X179452476Y-29472200D01*
X179452476Y-29472200D02*
X179357238Y-29376961D01*
X179357238Y-29376961D02*
X179309619Y-29281723D01*
X179309619Y-29281723D02*
X179262000Y-29091247D01*
X179262000Y-29091247D02*
X179262000Y-28948390D01*
X179262000Y-28948390D02*
X179309619Y-28757914D01*
X179309619Y-28757914D02*
X179357238Y-28662676D01*
X179357238Y-28662676D02*
X179452476Y-28567438D01*
X179452476Y-28567438D02*
X179595333Y-28519819D01*
X179595333Y-28519819D02*
X179690571Y-28519819D01*
X179690571Y-28519819D02*
X179833428Y-28567438D01*
X179833428Y-28567438D02*
X179881047Y-28615057D01*
X180833428Y-29519819D02*
X180262000Y-29519819D01*
X180547714Y-29519819D02*
X180547714Y-28519819D01*
X180547714Y-28519819D02*
X180452476Y-28662676D01*
X180452476Y-28662676D02*
X180357238Y-28757914D01*
X180357238Y-28757914D02*
X180262000Y-28805533D01*
%TO.C,SW_R1_C0*%
X191190571Y-58472200D02*
X191333428Y-58519819D01*
X191333428Y-58519819D02*
X191571523Y-58519819D01*
X191571523Y-58519819D02*
X191666761Y-58472200D01*
X191666761Y-58472200D02*
X191714380Y-58424580D01*
X191714380Y-58424580D02*
X191761999Y-58329342D01*
X191761999Y-58329342D02*
X191761999Y-58234104D01*
X191761999Y-58234104D02*
X191714380Y-58138866D01*
X191714380Y-58138866D02*
X191666761Y-58091247D01*
X191666761Y-58091247D02*
X191571523Y-58043628D01*
X191571523Y-58043628D02*
X191381047Y-57996009D01*
X191381047Y-57996009D02*
X191285809Y-57948390D01*
X191285809Y-57948390D02*
X191238190Y-57900771D01*
X191238190Y-57900771D02*
X191190571Y-57805533D01*
X191190571Y-57805533D02*
X191190571Y-57710295D01*
X191190571Y-57710295D02*
X191238190Y-57615057D01*
X191238190Y-57615057D02*
X191285809Y-57567438D01*
X191285809Y-57567438D02*
X191381047Y-57519819D01*
X191381047Y-57519819D02*
X191619142Y-57519819D01*
X191619142Y-57519819D02*
X191761999Y-57567438D01*
X192095333Y-57519819D02*
X192333428Y-58519819D01*
X192333428Y-58519819D02*
X192523904Y-57805533D01*
X192523904Y-57805533D02*
X192714380Y-58519819D01*
X192714380Y-58519819D02*
X192952476Y-57519819D01*
X193095333Y-58615057D02*
X193857237Y-58615057D01*
X194666761Y-58519819D02*
X194333428Y-58043628D01*
X194095333Y-58519819D02*
X194095333Y-57519819D01*
X194095333Y-57519819D02*
X194476285Y-57519819D01*
X194476285Y-57519819D02*
X194571523Y-57567438D01*
X194571523Y-57567438D02*
X194619142Y-57615057D01*
X194619142Y-57615057D02*
X194666761Y-57710295D01*
X194666761Y-57710295D02*
X194666761Y-57853152D01*
X194666761Y-57853152D02*
X194619142Y-57948390D01*
X194619142Y-57948390D02*
X194571523Y-57996009D01*
X194571523Y-57996009D02*
X194476285Y-58043628D01*
X194476285Y-58043628D02*
X194095333Y-58043628D01*
X195619142Y-58519819D02*
X195047714Y-58519819D01*
X195333428Y-58519819D02*
X195333428Y-57519819D01*
X195333428Y-57519819D02*
X195238190Y-57662676D01*
X195238190Y-57662676D02*
X195142952Y-57757914D01*
X195142952Y-57757914D02*
X195047714Y-57805533D01*
X195809619Y-58615057D02*
X196571523Y-58615057D01*
X197381047Y-58424580D02*
X197333428Y-58472200D01*
X197333428Y-58472200D02*
X197190571Y-58519819D01*
X197190571Y-58519819D02*
X197095333Y-58519819D01*
X197095333Y-58519819D02*
X196952476Y-58472200D01*
X196952476Y-58472200D02*
X196857238Y-58376961D01*
X196857238Y-58376961D02*
X196809619Y-58281723D01*
X196809619Y-58281723D02*
X196762000Y-58091247D01*
X196762000Y-58091247D02*
X196762000Y-57948390D01*
X196762000Y-57948390D02*
X196809619Y-57757914D01*
X196809619Y-57757914D02*
X196857238Y-57662676D01*
X196857238Y-57662676D02*
X196952476Y-57567438D01*
X196952476Y-57567438D02*
X197095333Y-57519819D01*
X197095333Y-57519819D02*
X197190571Y-57519819D01*
X197190571Y-57519819D02*
X197333428Y-57567438D01*
X197333428Y-57567438D02*
X197381047Y-57615057D01*
X198000095Y-57519819D02*
X198095333Y-57519819D01*
X198095333Y-57519819D02*
X198190571Y-57567438D01*
X198190571Y-57567438D02*
X198238190Y-57615057D01*
X198238190Y-57615057D02*
X198285809Y-57710295D01*
X198285809Y-57710295D02*
X198333428Y-57900771D01*
X198333428Y-57900771D02*
X198333428Y-58138866D01*
X198333428Y-58138866D02*
X198285809Y-58329342D01*
X198285809Y-58329342D02*
X198238190Y-58424580D01*
X198238190Y-58424580D02*
X198190571Y-58472200D01*
X198190571Y-58472200D02*
X198095333Y-58519819D01*
X198095333Y-58519819D02*
X198000095Y-58519819D01*
X198000095Y-58519819D02*
X197904857Y-58472200D01*
X197904857Y-58472200D02*
X197857238Y-58424580D01*
X197857238Y-58424580D02*
X197809619Y-58329342D01*
X197809619Y-58329342D02*
X197762000Y-58138866D01*
X197762000Y-58138866D02*
X197762000Y-57900771D01*
X197762000Y-57900771D02*
X197809619Y-57710295D01*
X197809619Y-57710295D02*
X197857238Y-57615057D01*
X197857238Y-57615057D02*
X197904857Y-57567438D01*
X197904857Y-57567438D02*
X198000095Y-57519819D01*
%TO.C,SW_R2_C4*%
X121190571Y-67872200D02*
X121333428Y-67919819D01*
X121333428Y-67919819D02*
X121571523Y-67919819D01*
X121571523Y-67919819D02*
X121666761Y-67872200D01*
X121666761Y-67872200D02*
X121714380Y-67824580D01*
X121714380Y-67824580D02*
X121761999Y-67729342D01*
X121761999Y-67729342D02*
X121761999Y-67634104D01*
X121761999Y-67634104D02*
X121714380Y-67538866D01*
X121714380Y-67538866D02*
X121666761Y-67491247D01*
X121666761Y-67491247D02*
X121571523Y-67443628D01*
X121571523Y-67443628D02*
X121381047Y-67396009D01*
X121381047Y-67396009D02*
X121285809Y-67348390D01*
X121285809Y-67348390D02*
X121238190Y-67300771D01*
X121238190Y-67300771D02*
X121190571Y-67205533D01*
X121190571Y-67205533D02*
X121190571Y-67110295D01*
X121190571Y-67110295D02*
X121238190Y-67015057D01*
X121238190Y-67015057D02*
X121285809Y-66967438D01*
X121285809Y-66967438D02*
X121381047Y-66919819D01*
X121381047Y-66919819D02*
X121619142Y-66919819D01*
X121619142Y-66919819D02*
X121761999Y-66967438D01*
X122095333Y-66919819D02*
X122333428Y-67919819D01*
X122333428Y-67919819D02*
X122523904Y-67205533D01*
X122523904Y-67205533D02*
X122714380Y-67919819D01*
X122714380Y-67919819D02*
X122952476Y-66919819D01*
X123095333Y-68015057D02*
X123857237Y-68015057D01*
X124666761Y-67919819D02*
X124333428Y-67443628D01*
X124095333Y-67919819D02*
X124095333Y-66919819D01*
X124095333Y-66919819D02*
X124476285Y-66919819D01*
X124476285Y-66919819D02*
X124571523Y-66967438D01*
X124571523Y-66967438D02*
X124619142Y-67015057D01*
X124619142Y-67015057D02*
X124666761Y-67110295D01*
X124666761Y-67110295D02*
X124666761Y-67253152D01*
X124666761Y-67253152D02*
X124619142Y-67348390D01*
X124619142Y-67348390D02*
X124571523Y-67396009D01*
X124571523Y-67396009D02*
X124476285Y-67443628D01*
X124476285Y-67443628D02*
X124095333Y-67443628D01*
X125047714Y-67015057D02*
X125095333Y-66967438D01*
X125095333Y-66967438D02*
X125190571Y-66919819D01*
X125190571Y-66919819D02*
X125428666Y-66919819D01*
X125428666Y-66919819D02*
X125523904Y-66967438D01*
X125523904Y-66967438D02*
X125571523Y-67015057D01*
X125571523Y-67015057D02*
X125619142Y-67110295D01*
X125619142Y-67110295D02*
X125619142Y-67205533D01*
X125619142Y-67205533D02*
X125571523Y-67348390D01*
X125571523Y-67348390D02*
X125000095Y-67919819D01*
X125000095Y-67919819D02*
X125619142Y-67919819D01*
X125809619Y-68015057D02*
X126571523Y-68015057D01*
X127381047Y-67824580D02*
X127333428Y-67872200D01*
X127333428Y-67872200D02*
X127190571Y-67919819D01*
X127190571Y-67919819D02*
X127095333Y-67919819D01*
X127095333Y-67919819D02*
X126952476Y-67872200D01*
X126952476Y-67872200D02*
X126857238Y-67776961D01*
X126857238Y-67776961D02*
X126809619Y-67681723D01*
X126809619Y-67681723D02*
X126762000Y-67491247D01*
X126762000Y-67491247D02*
X126762000Y-67348390D01*
X126762000Y-67348390D02*
X126809619Y-67157914D01*
X126809619Y-67157914D02*
X126857238Y-67062676D01*
X126857238Y-67062676D02*
X126952476Y-66967438D01*
X126952476Y-66967438D02*
X127095333Y-66919819D01*
X127095333Y-66919819D02*
X127190571Y-66919819D01*
X127190571Y-66919819D02*
X127333428Y-66967438D01*
X127333428Y-66967438D02*
X127381047Y-67015057D01*
X128238190Y-67253152D02*
X128238190Y-67919819D01*
X128000095Y-66872200D02*
X127762000Y-67586485D01*
X127762000Y-67586485D02*
X128381047Y-67586485D01*
%TO.C,SW_R1_C4*%
X121190571Y-49872200D02*
X121333428Y-49919819D01*
X121333428Y-49919819D02*
X121571523Y-49919819D01*
X121571523Y-49919819D02*
X121666761Y-49872200D01*
X121666761Y-49872200D02*
X121714380Y-49824580D01*
X121714380Y-49824580D02*
X121761999Y-49729342D01*
X121761999Y-49729342D02*
X121761999Y-49634104D01*
X121761999Y-49634104D02*
X121714380Y-49538866D01*
X121714380Y-49538866D02*
X121666761Y-49491247D01*
X121666761Y-49491247D02*
X121571523Y-49443628D01*
X121571523Y-49443628D02*
X121381047Y-49396009D01*
X121381047Y-49396009D02*
X121285809Y-49348390D01*
X121285809Y-49348390D02*
X121238190Y-49300771D01*
X121238190Y-49300771D02*
X121190571Y-49205533D01*
X121190571Y-49205533D02*
X121190571Y-49110295D01*
X121190571Y-49110295D02*
X121238190Y-49015057D01*
X121238190Y-49015057D02*
X121285809Y-48967438D01*
X121285809Y-48967438D02*
X121381047Y-48919819D01*
X121381047Y-48919819D02*
X121619142Y-48919819D01*
X121619142Y-48919819D02*
X121761999Y-48967438D01*
X122095333Y-48919819D02*
X122333428Y-49919819D01*
X122333428Y-49919819D02*
X122523904Y-49205533D01*
X122523904Y-49205533D02*
X122714380Y-49919819D01*
X122714380Y-49919819D02*
X122952476Y-48919819D01*
X123095333Y-50015057D02*
X123857237Y-50015057D01*
X124666761Y-49919819D02*
X124333428Y-49443628D01*
X124095333Y-49919819D02*
X124095333Y-48919819D01*
X124095333Y-48919819D02*
X124476285Y-48919819D01*
X124476285Y-48919819D02*
X124571523Y-48967438D01*
X124571523Y-48967438D02*
X124619142Y-49015057D01*
X124619142Y-49015057D02*
X124666761Y-49110295D01*
X124666761Y-49110295D02*
X124666761Y-49253152D01*
X124666761Y-49253152D02*
X124619142Y-49348390D01*
X124619142Y-49348390D02*
X124571523Y-49396009D01*
X124571523Y-49396009D02*
X124476285Y-49443628D01*
X124476285Y-49443628D02*
X124095333Y-49443628D01*
X125619142Y-49919819D02*
X125047714Y-49919819D01*
X125333428Y-49919819D02*
X125333428Y-48919819D01*
X125333428Y-48919819D02*
X125238190Y-49062676D01*
X125238190Y-49062676D02*
X125142952Y-49157914D01*
X125142952Y-49157914D02*
X125047714Y-49205533D01*
X125809619Y-50015057D02*
X126571523Y-50015057D01*
X127381047Y-49824580D02*
X127333428Y-49872200D01*
X127333428Y-49872200D02*
X127190571Y-49919819D01*
X127190571Y-49919819D02*
X127095333Y-49919819D01*
X127095333Y-49919819D02*
X126952476Y-49872200D01*
X126952476Y-49872200D02*
X126857238Y-49776961D01*
X126857238Y-49776961D02*
X126809619Y-49681723D01*
X126809619Y-49681723D02*
X126762000Y-49491247D01*
X126762000Y-49491247D02*
X126762000Y-49348390D01*
X126762000Y-49348390D02*
X126809619Y-49157914D01*
X126809619Y-49157914D02*
X126857238Y-49062676D01*
X126857238Y-49062676D02*
X126952476Y-48967438D01*
X126952476Y-48967438D02*
X127095333Y-48919819D01*
X127095333Y-48919819D02*
X127190571Y-48919819D01*
X127190571Y-48919819D02*
X127333428Y-48967438D01*
X127333428Y-48967438D02*
X127381047Y-49015057D01*
X128238190Y-49253152D02*
X128238190Y-49919819D01*
X128000095Y-48872200D02*
X127762000Y-49586485D01*
X127762000Y-49586485D02*
X128381047Y-49586485D01*
%TO.C,SW_R0_C3*%
X138690571Y-29472200D02*
X138833428Y-29519819D01*
X138833428Y-29519819D02*
X139071523Y-29519819D01*
X139071523Y-29519819D02*
X139166761Y-29472200D01*
X139166761Y-29472200D02*
X139214380Y-29424580D01*
X139214380Y-29424580D02*
X139261999Y-29329342D01*
X139261999Y-29329342D02*
X139261999Y-29234104D01*
X139261999Y-29234104D02*
X139214380Y-29138866D01*
X139214380Y-29138866D02*
X139166761Y-29091247D01*
X139166761Y-29091247D02*
X139071523Y-29043628D01*
X139071523Y-29043628D02*
X138881047Y-28996009D01*
X138881047Y-28996009D02*
X138785809Y-28948390D01*
X138785809Y-28948390D02*
X138738190Y-28900771D01*
X138738190Y-28900771D02*
X138690571Y-28805533D01*
X138690571Y-28805533D02*
X138690571Y-28710295D01*
X138690571Y-28710295D02*
X138738190Y-28615057D01*
X138738190Y-28615057D02*
X138785809Y-28567438D01*
X138785809Y-28567438D02*
X138881047Y-28519819D01*
X138881047Y-28519819D02*
X139119142Y-28519819D01*
X139119142Y-28519819D02*
X139261999Y-28567438D01*
X139595333Y-28519819D02*
X139833428Y-29519819D01*
X139833428Y-29519819D02*
X140023904Y-28805533D01*
X140023904Y-28805533D02*
X140214380Y-29519819D01*
X140214380Y-29519819D02*
X140452476Y-28519819D01*
X140595333Y-29615057D02*
X141357237Y-29615057D01*
X142166761Y-29519819D02*
X141833428Y-29043628D01*
X141595333Y-29519819D02*
X141595333Y-28519819D01*
X141595333Y-28519819D02*
X141976285Y-28519819D01*
X141976285Y-28519819D02*
X142071523Y-28567438D01*
X142071523Y-28567438D02*
X142119142Y-28615057D01*
X142119142Y-28615057D02*
X142166761Y-28710295D01*
X142166761Y-28710295D02*
X142166761Y-28853152D01*
X142166761Y-28853152D02*
X142119142Y-28948390D01*
X142119142Y-28948390D02*
X142071523Y-28996009D01*
X142071523Y-28996009D02*
X141976285Y-29043628D01*
X141976285Y-29043628D02*
X141595333Y-29043628D01*
X142785809Y-28519819D02*
X142881047Y-28519819D01*
X142881047Y-28519819D02*
X142976285Y-28567438D01*
X142976285Y-28567438D02*
X143023904Y-28615057D01*
X143023904Y-28615057D02*
X143071523Y-28710295D01*
X143071523Y-28710295D02*
X143119142Y-28900771D01*
X143119142Y-28900771D02*
X143119142Y-29138866D01*
X143119142Y-29138866D02*
X143071523Y-29329342D01*
X143071523Y-29329342D02*
X143023904Y-29424580D01*
X143023904Y-29424580D02*
X142976285Y-29472200D01*
X142976285Y-29472200D02*
X142881047Y-29519819D01*
X142881047Y-29519819D02*
X142785809Y-29519819D01*
X142785809Y-29519819D02*
X142690571Y-29472200D01*
X142690571Y-29472200D02*
X142642952Y-29424580D01*
X142642952Y-29424580D02*
X142595333Y-29329342D01*
X142595333Y-29329342D02*
X142547714Y-29138866D01*
X142547714Y-29138866D02*
X142547714Y-28900771D01*
X142547714Y-28900771D02*
X142595333Y-28710295D01*
X142595333Y-28710295D02*
X142642952Y-28615057D01*
X142642952Y-28615057D02*
X142690571Y-28567438D01*
X142690571Y-28567438D02*
X142785809Y-28519819D01*
X143309619Y-29615057D02*
X144071523Y-29615057D01*
X144881047Y-29424580D02*
X144833428Y-29472200D01*
X144833428Y-29472200D02*
X144690571Y-29519819D01*
X144690571Y-29519819D02*
X144595333Y-29519819D01*
X144595333Y-29519819D02*
X144452476Y-29472200D01*
X144452476Y-29472200D02*
X144357238Y-29376961D01*
X144357238Y-29376961D02*
X144309619Y-29281723D01*
X144309619Y-29281723D02*
X144262000Y-29091247D01*
X144262000Y-29091247D02*
X144262000Y-28948390D01*
X144262000Y-28948390D02*
X144309619Y-28757914D01*
X144309619Y-28757914D02*
X144357238Y-28662676D01*
X144357238Y-28662676D02*
X144452476Y-28567438D01*
X144452476Y-28567438D02*
X144595333Y-28519819D01*
X144595333Y-28519819D02*
X144690571Y-28519819D01*
X144690571Y-28519819D02*
X144833428Y-28567438D01*
X144833428Y-28567438D02*
X144881047Y-28615057D01*
X145214381Y-28519819D02*
X145833428Y-28519819D01*
X145833428Y-28519819D02*
X145500095Y-28900771D01*
X145500095Y-28900771D02*
X145642952Y-28900771D01*
X145642952Y-28900771D02*
X145738190Y-28948390D01*
X145738190Y-28948390D02*
X145785809Y-28996009D01*
X145785809Y-28996009D02*
X145833428Y-29091247D01*
X145833428Y-29091247D02*
X145833428Y-29329342D01*
X145833428Y-29329342D02*
X145785809Y-29424580D01*
X145785809Y-29424580D02*
X145738190Y-29472200D01*
X145738190Y-29472200D02*
X145642952Y-29519819D01*
X145642952Y-29519819D02*
X145357238Y-29519819D01*
X145357238Y-29519819D02*
X145262000Y-29472200D01*
X145262000Y-29472200D02*
X145214381Y-29424580D01*
%TO.C,SW_R0_C2*%
X156190571Y-25082200D02*
X156333428Y-25129819D01*
X156333428Y-25129819D02*
X156571523Y-25129819D01*
X156571523Y-25129819D02*
X156666761Y-25082200D01*
X156666761Y-25082200D02*
X156714380Y-25034580D01*
X156714380Y-25034580D02*
X156761999Y-24939342D01*
X156761999Y-24939342D02*
X156761999Y-24844104D01*
X156761999Y-24844104D02*
X156714380Y-24748866D01*
X156714380Y-24748866D02*
X156666761Y-24701247D01*
X156666761Y-24701247D02*
X156571523Y-24653628D01*
X156571523Y-24653628D02*
X156381047Y-24606009D01*
X156381047Y-24606009D02*
X156285809Y-24558390D01*
X156285809Y-24558390D02*
X156238190Y-24510771D01*
X156238190Y-24510771D02*
X156190571Y-24415533D01*
X156190571Y-24415533D02*
X156190571Y-24320295D01*
X156190571Y-24320295D02*
X156238190Y-24225057D01*
X156238190Y-24225057D02*
X156285809Y-24177438D01*
X156285809Y-24177438D02*
X156381047Y-24129819D01*
X156381047Y-24129819D02*
X156619142Y-24129819D01*
X156619142Y-24129819D02*
X156761999Y-24177438D01*
X157095333Y-24129819D02*
X157333428Y-25129819D01*
X157333428Y-25129819D02*
X157523904Y-24415533D01*
X157523904Y-24415533D02*
X157714380Y-25129819D01*
X157714380Y-25129819D02*
X157952476Y-24129819D01*
X158095333Y-25225057D02*
X158857237Y-25225057D01*
X159666761Y-25129819D02*
X159333428Y-24653628D01*
X159095333Y-25129819D02*
X159095333Y-24129819D01*
X159095333Y-24129819D02*
X159476285Y-24129819D01*
X159476285Y-24129819D02*
X159571523Y-24177438D01*
X159571523Y-24177438D02*
X159619142Y-24225057D01*
X159619142Y-24225057D02*
X159666761Y-24320295D01*
X159666761Y-24320295D02*
X159666761Y-24463152D01*
X159666761Y-24463152D02*
X159619142Y-24558390D01*
X159619142Y-24558390D02*
X159571523Y-24606009D01*
X159571523Y-24606009D02*
X159476285Y-24653628D01*
X159476285Y-24653628D02*
X159095333Y-24653628D01*
X160285809Y-24129819D02*
X160381047Y-24129819D01*
X160381047Y-24129819D02*
X160476285Y-24177438D01*
X160476285Y-24177438D02*
X160523904Y-24225057D01*
X160523904Y-24225057D02*
X160571523Y-24320295D01*
X160571523Y-24320295D02*
X160619142Y-24510771D01*
X160619142Y-24510771D02*
X160619142Y-24748866D01*
X160619142Y-24748866D02*
X160571523Y-24939342D01*
X160571523Y-24939342D02*
X160523904Y-25034580D01*
X160523904Y-25034580D02*
X160476285Y-25082200D01*
X160476285Y-25082200D02*
X160381047Y-25129819D01*
X160381047Y-25129819D02*
X160285809Y-25129819D01*
X160285809Y-25129819D02*
X160190571Y-25082200D01*
X160190571Y-25082200D02*
X160142952Y-25034580D01*
X160142952Y-25034580D02*
X160095333Y-24939342D01*
X160095333Y-24939342D02*
X160047714Y-24748866D01*
X160047714Y-24748866D02*
X160047714Y-24510771D01*
X160047714Y-24510771D02*
X160095333Y-24320295D01*
X160095333Y-24320295D02*
X160142952Y-24225057D01*
X160142952Y-24225057D02*
X160190571Y-24177438D01*
X160190571Y-24177438D02*
X160285809Y-24129819D01*
X160809619Y-25225057D02*
X161571523Y-25225057D01*
X162381047Y-25034580D02*
X162333428Y-25082200D01*
X162333428Y-25082200D02*
X162190571Y-25129819D01*
X162190571Y-25129819D02*
X162095333Y-25129819D01*
X162095333Y-25129819D02*
X161952476Y-25082200D01*
X161952476Y-25082200D02*
X161857238Y-24986961D01*
X161857238Y-24986961D02*
X161809619Y-24891723D01*
X161809619Y-24891723D02*
X161762000Y-24701247D01*
X161762000Y-24701247D02*
X161762000Y-24558390D01*
X161762000Y-24558390D02*
X161809619Y-24367914D01*
X161809619Y-24367914D02*
X161857238Y-24272676D01*
X161857238Y-24272676D02*
X161952476Y-24177438D01*
X161952476Y-24177438D02*
X162095333Y-24129819D01*
X162095333Y-24129819D02*
X162190571Y-24129819D01*
X162190571Y-24129819D02*
X162333428Y-24177438D01*
X162333428Y-24177438D02*
X162381047Y-24225057D01*
X162762000Y-24225057D02*
X162809619Y-24177438D01*
X162809619Y-24177438D02*
X162904857Y-24129819D01*
X162904857Y-24129819D02*
X163142952Y-24129819D01*
X163142952Y-24129819D02*
X163238190Y-24177438D01*
X163238190Y-24177438D02*
X163285809Y-24225057D01*
X163285809Y-24225057D02*
X163333428Y-24320295D01*
X163333428Y-24320295D02*
X163333428Y-24415533D01*
X163333428Y-24415533D02*
X163285809Y-24558390D01*
X163285809Y-24558390D02*
X162714381Y-25129819D01*
X162714381Y-25129819D02*
X163333428Y-25129819D01*
%TO.C,SW_R2_C1*%
X173690571Y-65472200D02*
X173833428Y-65519819D01*
X173833428Y-65519819D02*
X174071523Y-65519819D01*
X174071523Y-65519819D02*
X174166761Y-65472200D01*
X174166761Y-65472200D02*
X174214380Y-65424580D01*
X174214380Y-65424580D02*
X174261999Y-65329342D01*
X174261999Y-65329342D02*
X174261999Y-65234104D01*
X174261999Y-65234104D02*
X174214380Y-65138866D01*
X174214380Y-65138866D02*
X174166761Y-65091247D01*
X174166761Y-65091247D02*
X174071523Y-65043628D01*
X174071523Y-65043628D02*
X173881047Y-64996009D01*
X173881047Y-64996009D02*
X173785809Y-64948390D01*
X173785809Y-64948390D02*
X173738190Y-64900771D01*
X173738190Y-64900771D02*
X173690571Y-64805533D01*
X173690571Y-64805533D02*
X173690571Y-64710295D01*
X173690571Y-64710295D02*
X173738190Y-64615057D01*
X173738190Y-64615057D02*
X173785809Y-64567438D01*
X173785809Y-64567438D02*
X173881047Y-64519819D01*
X173881047Y-64519819D02*
X174119142Y-64519819D01*
X174119142Y-64519819D02*
X174261999Y-64567438D01*
X174595333Y-64519819D02*
X174833428Y-65519819D01*
X174833428Y-65519819D02*
X175023904Y-64805533D01*
X175023904Y-64805533D02*
X175214380Y-65519819D01*
X175214380Y-65519819D02*
X175452476Y-64519819D01*
X175595333Y-65615057D02*
X176357237Y-65615057D01*
X177166761Y-65519819D02*
X176833428Y-65043628D01*
X176595333Y-65519819D02*
X176595333Y-64519819D01*
X176595333Y-64519819D02*
X176976285Y-64519819D01*
X176976285Y-64519819D02*
X177071523Y-64567438D01*
X177071523Y-64567438D02*
X177119142Y-64615057D01*
X177119142Y-64615057D02*
X177166761Y-64710295D01*
X177166761Y-64710295D02*
X177166761Y-64853152D01*
X177166761Y-64853152D02*
X177119142Y-64948390D01*
X177119142Y-64948390D02*
X177071523Y-64996009D01*
X177071523Y-64996009D02*
X176976285Y-65043628D01*
X176976285Y-65043628D02*
X176595333Y-65043628D01*
X177547714Y-64615057D02*
X177595333Y-64567438D01*
X177595333Y-64567438D02*
X177690571Y-64519819D01*
X177690571Y-64519819D02*
X177928666Y-64519819D01*
X177928666Y-64519819D02*
X178023904Y-64567438D01*
X178023904Y-64567438D02*
X178071523Y-64615057D01*
X178071523Y-64615057D02*
X178119142Y-64710295D01*
X178119142Y-64710295D02*
X178119142Y-64805533D01*
X178119142Y-64805533D02*
X178071523Y-64948390D01*
X178071523Y-64948390D02*
X177500095Y-65519819D01*
X177500095Y-65519819D02*
X178119142Y-65519819D01*
X178309619Y-65615057D02*
X179071523Y-65615057D01*
X179881047Y-65424580D02*
X179833428Y-65472200D01*
X179833428Y-65472200D02*
X179690571Y-65519819D01*
X179690571Y-65519819D02*
X179595333Y-65519819D01*
X179595333Y-65519819D02*
X179452476Y-65472200D01*
X179452476Y-65472200D02*
X179357238Y-65376961D01*
X179357238Y-65376961D02*
X179309619Y-65281723D01*
X179309619Y-65281723D02*
X179262000Y-65091247D01*
X179262000Y-65091247D02*
X179262000Y-64948390D01*
X179262000Y-64948390D02*
X179309619Y-64757914D01*
X179309619Y-64757914D02*
X179357238Y-64662676D01*
X179357238Y-64662676D02*
X179452476Y-64567438D01*
X179452476Y-64567438D02*
X179595333Y-64519819D01*
X179595333Y-64519819D02*
X179690571Y-64519819D01*
X179690571Y-64519819D02*
X179833428Y-64567438D01*
X179833428Y-64567438D02*
X179881047Y-64615057D01*
X180833428Y-65519819D02*
X180262000Y-65519819D01*
X180547714Y-65519819D02*
X180547714Y-64519819D01*
X180547714Y-64519819D02*
X180452476Y-64662676D01*
X180452476Y-64662676D02*
X180357238Y-64757914D01*
X180357238Y-64757914D02*
X180262000Y-64805533D01*
%TO.C,SW_PWR1*%
X96114286Y-32157200D02*
X96257143Y-32204819D01*
X96257143Y-32204819D02*
X96495238Y-32204819D01*
X96495238Y-32204819D02*
X96590476Y-32157200D01*
X96590476Y-32157200D02*
X96638095Y-32109580D01*
X96638095Y-32109580D02*
X96685714Y-32014342D01*
X96685714Y-32014342D02*
X96685714Y-31919104D01*
X96685714Y-31919104D02*
X96638095Y-31823866D01*
X96638095Y-31823866D02*
X96590476Y-31776247D01*
X96590476Y-31776247D02*
X96495238Y-31728628D01*
X96495238Y-31728628D02*
X96304762Y-31681009D01*
X96304762Y-31681009D02*
X96209524Y-31633390D01*
X96209524Y-31633390D02*
X96161905Y-31585771D01*
X96161905Y-31585771D02*
X96114286Y-31490533D01*
X96114286Y-31490533D02*
X96114286Y-31395295D01*
X96114286Y-31395295D02*
X96161905Y-31300057D01*
X96161905Y-31300057D02*
X96209524Y-31252438D01*
X96209524Y-31252438D02*
X96304762Y-31204819D01*
X96304762Y-31204819D02*
X96542857Y-31204819D01*
X96542857Y-31204819D02*
X96685714Y-31252438D01*
X97019048Y-31204819D02*
X97257143Y-32204819D01*
X97257143Y-32204819D02*
X97447619Y-31490533D01*
X97447619Y-31490533D02*
X97638095Y-32204819D01*
X97638095Y-32204819D02*
X97876191Y-31204819D01*
X98019048Y-32300057D02*
X98780952Y-32300057D01*
X99019048Y-32204819D02*
X99019048Y-31204819D01*
X99019048Y-31204819D02*
X99400000Y-31204819D01*
X99400000Y-31204819D02*
X99495238Y-31252438D01*
X99495238Y-31252438D02*
X99542857Y-31300057D01*
X99542857Y-31300057D02*
X99590476Y-31395295D01*
X99590476Y-31395295D02*
X99590476Y-31538152D01*
X99590476Y-31538152D02*
X99542857Y-31633390D01*
X99542857Y-31633390D02*
X99495238Y-31681009D01*
X99495238Y-31681009D02*
X99400000Y-31728628D01*
X99400000Y-31728628D02*
X99019048Y-31728628D01*
X99923810Y-31204819D02*
X100161905Y-32204819D01*
X100161905Y-32204819D02*
X100352381Y-31490533D01*
X100352381Y-31490533D02*
X100542857Y-32204819D01*
X100542857Y-32204819D02*
X100780953Y-31204819D01*
X101733333Y-32204819D02*
X101400000Y-31728628D01*
X101161905Y-32204819D02*
X101161905Y-31204819D01*
X101161905Y-31204819D02*
X101542857Y-31204819D01*
X101542857Y-31204819D02*
X101638095Y-31252438D01*
X101638095Y-31252438D02*
X101685714Y-31300057D01*
X101685714Y-31300057D02*
X101733333Y-31395295D01*
X101733333Y-31395295D02*
X101733333Y-31538152D01*
X101733333Y-31538152D02*
X101685714Y-31633390D01*
X101685714Y-31633390D02*
X101638095Y-31681009D01*
X101638095Y-31681009D02*
X101542857Y-31728628D01*
X101542857Y-31728628D02*
X101161905Y-31728628D01*
X102685714Y-32204819D02*
X102114286Y-32204819D01*
X102400000Y-32204819D02*
X102400000Y-31204819D01*
X102400000Y-31204819D02*
X102304762Y-31347676D01*
X102304762Y-31347676D02*
X102209524Y-31442914D01*
X102209524Y-31442914D02*
X102114286Y-31490533D01*
%TO.C,SW8*%
X130746667Y-88437200D02*
X130889524Y-88484819D01*
X130889524Y-88484819D02*
X131127619Y-88484819D01*
X131127619Y-88484819D02*
X131222857Y-88437200D01*
X131222857Y-88437200D02*
X131270476Y-88389580D01*
X131270476Y-88389580D02*
X131318095Y-88294342D01*
X131318095Y-88294342D02*
X131318095Y-88199104D01*
X131318095Y-88199104D02*
X131270476Y-88103866D01*
X131270476Y-88103866D02*
X131222857Y-88056247D01*
X131222857Y-88056247D02*
X131127619Y-88008628D01*
X131127619Y-88008628D02*
X130937143Y-87961009D01*
X130937143Y-87961009D02*
X130841905Y-87913390D01*
X130841905Y-87913390D02*
X130794286Y-87865771D01*
X130794286Y-87865771D02*
X130746667Y-87770533D01*
X130746667Y-87770533D02*
X130746667Y-87675295D01*
X130746667Y-87675295D02*
X130794286Y-87580057D01*
X130794286Y-87580057D02*
X130841905Y-87532438D01*
X130841905Y-87532438D02*
X130937143Y-87484819D01*
X130937143Y-87484819D02*
X131175238Y-87484819D01*
X131175238Y-87484819D02*
X131318095Y-87532438D01*
X131651429Y-87484819D02*
X131889524Y-88484819D01*
X131889524Y-88484819D02*
X132080000Y-87770533D01*
X132080000Y-87770533D02*
X132270476Y-88484819D01*
X132270476Y-88484819D02*
X132508572Y-87484819D01*
X133032381Y-87913390D02*
X132937143Y-87865771D01*
X132937143Y-87865771D02*
X132889524Y-87818152D01*
X132889524Y-87818152D02*
X132841905Y-87722914D01*
X132841905Y-87722914D02*
X132841905Y-87675295D01*
X132841905Y-87675295D02*
X132889524Y-87580057D01*
X132889524Y-87580057D02*
X132937143Y-87532438D01*
X132937143Y-87532438D02*
X133032381Y-87484819D01*
X133032381Y-87484819D02*
X133222857Y-87484819D01*
X133222857Y-87484819D02*
X133318095Y-87532438D01*
X133318095Y-87532438D02*
X133365714Y-87580057D01*
X133365714Y-87580057D02*
X133413333Y-87675295D01*
X133413333Y-87675295D02*
X133413333Y-87722914D01*
X133413333Y-87722914D02*
X133365714Y-87818152D01*
X133365714Y-87818152D02*
X133318095Y-87865771D01*
X133318095Y-87865771D02*
X133222857Y-87913390D01*
X133222857Y-87913390D02*
X133032381Y-87913390D01*
X133032381Y-87913390D02*
X132937143Y-87961009D01*
X132937143Y-87961009D02*
X132889524Y-88008628D01*
X132889524Y-88008628D02*
X132841905Y-88103866D01*
X132841905Y-88103866D02*
X132841905Y-88294342D01*
X132841905Y-88294342D02*
X132889524Y-88389580D01*
X132889524Y-88389580D02*
X132937143Y-88437200D01*
X132937143Y-88437200D02*
X133032381Y-88484819D01*
X133032381Y-88484819D02*
X133222857Y-88484819D01*
X133222857Y-88484819D02*
X133318095Y-88437200D01*
X133318095Y-88437200D02*
X133365714Y-88389580D01*
X133365714Y-88389580D02*
X133413333Y-88294342D01*
X133413333Y-88294342D02*
X133413333Y-88103866D01*
X133413333Y-88103866D02*
X133365714Y-88008628D01*
X133365714Y-88008628D02*
X133318095Y-87961009D01*
X133318095Y-87961009D02*
X133222857Y-87913390D01*
%TO.C,SW_R1_C3*%
X138690571Y-47472200D02*
X138833428Y-47519819D01*
X138833428Y-47519819D02*
X139071523Y-47519819D01*
X139071523Y-47519819D02*
X139166761Y-47472200D01*
X139166761Y-47472200D02*
X139214380Y-47424580D01*
X139214380Y-47424580D02*
X139261999Y-47329342D01*
X139261999Y-47329342D02*
X139261999Y-47234104D01*
X139261999Y-47234104D02*
X139214380Y-47138866D01*
X139214380Y-47138866D02*
X139166761Y-47091247D01*
X139166761Y-47091247D02*
X139071523Y-47043628D01*
X139071523Y-47043628D02*
X138881047Y-46996009D01*
X138881047Y-46996009D02*
X138785809Y-46948390D01*
X138785809Y-46948390D02*
X138738190Y-46900771D01*
X138738190Y-46900771D02*
X138690571Y-46805533D01*
X138690571Y-46805533D02*
X138690571Y-46710295D01*
X138690571Y-46710295D02*
X138738190Y-46615057D01*
X138738190Y-46615057D02*
X138785809Y-46567438D01*
X138785809Y-46567438D02*
X138881047Y-46519819D01*
X138881047Y-46519819D02*
X139119142Y-46519819D01*
X139119142Y-46519819D02*
X139261999Y-46567438D01*
X139595333Y-46519819D02*
X139833428Y-47519819D01*
X139833428Y-47519819D02*
X140023904Y-46805533D01*
X140023904Y-46805533D02*
X140214380Y-47519819D01*
X140214380Y-47519819D02*
X140452476Y-46519819D01*
X140595333Y-47615057D02*
X141357237Y-47615057D01*
X142166761Y-47519819D02*
X141833428Y-47043628D01*
X141595333Y-47519819D02*
X141595333Y-46519819D01*
X141595333Y-46519819D02*
X141976285Y-46519819D01*
X141976285Y-46519819D02*
X142071523Y-46567438D01*
X142071523Y-46567438D02*
X142119142Y-46615057D01*
X142119142Y-46615057D02*
X142166761Y-46710295D01*
X142166761Y-46710295D02*
X142166761Y-46853152D01*
X142166761Y-46853152D02*
X142119142Y-46948390D01*
X142119142Y-46948390D02*
X142071523Y-46996009D01*
X142071523Y-46996009D02*
X141976285Y-47043628D01*
X141976285Y-47043628D02*
X141595333Y-47043628D01*
X143119142Y-47519819D02*
X142547714Y-47519819D01*
X142833428Y-47519819D02*
X142833428Y-46519819D01*
X142833428Y-46519819D02*
X142738190Y-46662676D01*
X142738190Y-46662676D02*
X142642952Y-46757914D01*
X142642952Y-46757914D02*
X142547714Y-46805533D01*
X143309619Y-47615057D02*
X144071523Y-47615057D01*
X144881047Y-47424580D02*
X144833428Y-47472200D01*
X144833428Y-47472200D02*
X144690571Y-47519819D01*
X144690571Y-47519819D02*
X144595333Y-47519819D01*
X144595333Y-47519819D02*
X144452476Y-47472200D01*
X144452476Y-47472200D02*
X144357238Y-47376961D01*
X144357238Y-47376961D02*
X144309619Y-47281723D01*
X144309619Y-47281723D02*
X144262000Y-47091247D01*
X144262000Y-47091247D02*
X144262000Y-46948390D01*
X144262000Y-46948390D02*
X144309619Y-46757914D01*
X144309619Y-46757914D02*
X144357238Y-46662676D01*
X144357238Y-46662676D02*
X144452476Y-46567438D01*
X144452476Y-46567438D02*
X144595333Y-46519819D01*
X144595333Y-46519819D02*
X144690571Y-46519819D01*
X144690571Y-46519819D02*
X144833428Y-46567438D01*
X144833428Y-46567438D02*
X144881047Y-46615057D01*
X145214381Y-46519819D02*
X145833428Y-46519819D01*
X145833428Y-46519819D02*
X145500095Y-46900771D01*
X145500095Y-46900771D02*
X145642952Y-46900771D01*
X145642952Y-46900771D02*
X145738190Y-46948390D01*
X145738190Y-46948390D02*
X145785809Y-46996009D01*
X145785809Y-46996009D02*
X145833428Y-47091247D01*
X145833428Y-47091247D02*
X145833428Y-47329342D01*
X145833428Y-47329342D02*
X145785809Y-47424580D01*
X145785809Y-47424580D02*
X145738190Y-47472200D01*
X145738190Y-47472200D02*
X145642952Y-47519819D01*
X145642952Y-47519819D02*
X145357238Y-47519819D01*
X145357238Y-47519819D02*
X145262000Y-47472200D01*
X145262000Y-47472200D02*
X145214381Y-47424580D01*
%TO.C,SW4*%
X108058427Y-88538768D02*
X108558427Y-89404794D01*
X107192401Y-89038768D02*
X108058427Y-88538768D01*
X95934071Y-95538768D02*
X96800097Y-95038768D01*
X96434071Y-96404794D02*
X95934071Y-95538768D01*
X100858942Y-98468895D02*
X101541955Y-98651908D01*
X97827853Y-100218895D02*
X97644841Y-100901908D01*
X101541955Y-98651908D02*
X102791955Y-100816971D01*
X97644841Y-100901908D02*
X99144841Y-103499984D01*
X99144841Y-103499984D02*
X99827853Y-103682997D01*
X100693879Y-103182997D02*
X99827853Y-103682997D01*
X105447211Y-101016010D02*
X107697211Y-104913124D01*
X104840993Y-101366010D02*
X105447211Y-101016010D01*
X114558427Y-99797098D02*
X115058427Y-100663124D01*
X115058427Y-100663124D02*
X114192401Y-101163124D01*
X107697211Y-104913124D02*
X107264198Y-105163124D01*
X104146507Y-106963124D02*
X103626891Y-107263124D01*
X103800097Y-107163124D02*
X102934071Y-107663124D01*
X103626891Y-107263124D02*
X101376891Y-103366010D01*
X102934071Y-107663124D02*
X102434071Y-106797098D01*
X101376892Y-103366010D02*
G75*
G03*
X100693879Y-103182997I-433013J-250000D01*
G01*
X102791955Y-100816971D02*
G75*
G03*
X104840993Y-101366009I1299038J750000D01*
G01*
%TO.C,B+1*%
X91250000Y-26000000D02*
X91250000Y-28000000D01*
X91250000Y-28000000D02*
X93250000Y-28000000D01*
X93250000Y-26000000D02*
X91250000Y-26000000D01*
X93250000Y-28000000D02*
X93250000Y-26000000D01*
%TO.C,D9*%
X157417000Y-34830000D02*
X157417000Y-36330000D01*
X157417000Y-36330000D02*
X162817000Y-36330000D01*
X159617000Y-35080000D02*
X159617000Y-36080000D01*
X159717000Y-35580000D02*
X160617000Y-35080000D01*
X160617000Y-35080000D02*
X160617000Y-36080000D01*
X160617000Y-36080000D02*
X159717000Y-35580000D01*
X162817000Y-34830000D02*
X157417000Y-34830000D01*
X162817000Y-34830000D02*
X162817000Y-36330000D01*
%TO.C,SW_R2_C2*%
X148317000Y-55580000D02*
X149317000Y-55580000D01*
X148317000Y-56580000D02*
X148317000Y-55580000D01*
X148317000Y-69580000D02*
X148317000Y-68580000D01*
X149317000Y-69580000D02*
X148317000Y-69580000D01*
X153317000Y-66780000D02*
X153817000Y-66280000D01*
X153317000Y-70280000D02*
X153817000Y-70780000D01*
X153817000Y-66280000D02*
X156317000Y-66280000D01*
X153817000Y-70780000D02*
X156817000Y-70780000D01*
X156817000Y-70780000D02*
X157317000Y-70280000D01*
X157317000Y-69280000D02*
X157317000Y-70280000D01*
X157817000Y-64080000D02*
X162317000Y-64080000D01*
X157817000Y-64780000D02*
X157817000Y-64080000D01*
X161317000Y-55580000D02*
X162317000Y-55580000D01*
X162317000Y-55580000D02*
X162317000Y-56580000D01*
X162317000Y-64080000D02*
X162317000Y-64580000D01*
X162317000Y-68180000D02*
X162317000Y-68780000D01*
X162317000Y-68580000D02*
X162317000Y-69580000D01*
X162317000Y-68780000D02*
X157817000Y-68780000D01*
X162317000Y-69580000D02*
X161317000Y-69580000D01*
X157817000Y-68780000D02*
G75*
G03*
X157317000Y-69280000I0J-500000D01*
G01*
X156317000Y-66280000D02*
G75*
G03*
X157817000Y-64780000I0J1500000D01*
G01*
%TO.C,SW_R2_C0*%
X183317000Y-68470000D02*
X184317000Y-68470000D01*
X183317000Y-69470000D02*
X183317000Y-68470000D01*
X183317000Y-82470000D02*
X183317000Y-81470000D01*
X184317000Y-82470000D02*
X183317000Y-82470000D01*
X188317000Y-79670000D02*
X188817000Y-79170000D01*
X188317000Y-83170000D02*
X188817000Y-83670000D01*
X188817000Y-79170000D02*
X191317000Y-79170000D01*
X188817000Y-83670000D02*
X191817000Y-83670000D01*
X191817000Y-83670000D02*
X192317000Y-83170000D01*
X192317000Y-82170000D02*
X192317000Y-83170000D01*
X192817000Y-76970000D02*
X197317000Y-76970000D01*
X192817000Y-77670000D02*
X192817000Y-76970000D01*
X196317000Y-68470000D02*
X197317000Y-68470000D01*
X197317000Y-68470000D02*
X197317000Y-69470000D01*
X197317000Y-76970000D02*
X197317000Y-77470000D01*
X197317000Y-81070000D02*
X197317000Y-81670000D01*
X197317000Y-81470000D02*
X197317000Y-82470000D01*
X197317000Y-81670000D02*
X192817000Y-81670000D01*
X197317000Y-82470000D02*
X196317000Y-82470000D01*
X192817000Y-81670000D02*
G75*
G03*
X192317000Y-82170000I0J-500000D01*
G01*
X191317000Y-79170000D02*
G75*
G03*
X192817000Y-77670000I0J1500000D01*
G01*
%TO.C,SW_RST1*%
X99497697Y-70210245D02*
X99641091Y-70005457D01*
X101505215Y-67343213D02*
X101361821Y-67548001D01*
X94582785Y-66768787D02*
X99497697Y-70210245D01*
X94582785Y-66768787D02*
X94726179Y-66563999D01*
X96590303Y-63901755D02*
X101505215Y-67343213D01*
X96590303Y-63901755D02*
X96446909Y-64106543D01*
%TO.C,SW_R2_C3*%
X130817000Y-59970000D02*
X131817000Y-59970000D01*
X130817000Y-60970000D02*
X130817000Y-59970000D01*
X130817000Y-73970000D02*
X130817000Y-72970000D01*
X131817000Y-73970000D02*
X130817000Y-73970000D01*
X135817000Y-71170000D02*
X136317000Y-70670000D01*
X135817000Y-74670000D02*
X136317000Y-75170000D01*
X136317000Y-70670000D02*
X138817000Y-70670000D01*
X136317000Y-75170000D02*
X139317000Y-75170000D01*
X139317000Y-75170000D02*
X139817000Y-74670000D01*
X139817000Y-73670000D02*
X139817000Y-74670000D01*
X140317000Y-68470000D02*
X144817000Y-68470000D01*
X140317000Y-69170000D02*
X140317000Y-68470000D01*
X143817000Y-59970000D02*
X144817000Y-59970000D01*
X144817000Y-59970000D02*
X144817000Y-60970000D01*
X144817000Y-68470000D02*
X144817000Y-68970000D01*
X144817000Y-72570000D02*
X144817000Y-73170000D01*
X144817000Y-72970000D02*
X144817000Y-73970000D01*
X144817000Y-73170000D02*
X140317000Y-73170000D01*
X144817000Y-73970000D02*
X143817000Y-73970000D01*
X140317000Y-73170000D02*
G75*
G03*
X139817000Y-73670000I0J-500000D01*
G01*
X138817000Y-70670000D02*
G75*
G03*
X140317000Y-69170000I0J1500000D01*
G01*
%TO.C,D5*%
X139917000Y-39220000D02*
X139917000Y-40720000D01*
X139917000Y-40720000D02*
X145317000Y-40720000D01*
X142117000Y-39470000D02*
X142117000Y-40470000D01*
X142217000Y-39970000D02*
X143117000Y-39470000D01*
X143117000Y-39470000D02*
X143117000Y-40470000D01*
X143117000Y-40470000D02*
X142217000Y-39970000D01*
X145317000Y-39220000D02*
X139917000Y-39220000D01*
X145317000Y-39220000D02*
X145317000Y-40720000D01*
%TO.C,B-1*%
X106250000Y-26000000D02*
X106250000Y-28000000D01*
X106250000Y-28000000D02*
X108250000Y-28000000D01*
X108250000Y-26000000D02*
X106250000Y-26000000D01*
X108250000Y-28000000D02*
X108250000Y-26000000D01*
%TO.C,SW_R1_C1*%
X165817000Y-41970000D02*
X166817000Y-41970000D01*
X165817000Y-42970000D02*
X165817000Y-41970000D01*
X165817000Y-55970000D02*
X165817000Y-54970000D01*
X166817000Y-55970000D02*
X165817000Y-55970000D01*
X170817000Y-53170000D02*
X171317000Y-52670000D01*
X170817000Y-56670000D02*
X171317000Y-57170000D01*
X171317000Y-52670000D02*
X173817000Y-52670000D01*
X171317000Y-57170000D02*
X174317000Y-57170000D01*
X174317000Y-57170000D02*
X174817000Y-56670000D01*
X174817000Y-55670000D02*
X174817000Y-56670000D01*
X175317000Y-50470000D02*
X179817000Y-50470000D01*
X175317000Y-51170000D02*
X175317000Y-50470000D01*
X178817000Y-41970000D02*
X179817000Y-41970000D01*
X179817000Y-41970000D02*
X179817000Y-42970000D01*
X179817000Y-50470000D02*
X179817000Y-50970000D01*
X179817000Y-54570000D02*
X179817000Y-55170000D01*
X179817000Y-54970000D02*
X179817000Y-55970000D01*
X179817000Y-55170000D02*
X175317000Y-55170000D01*
X179817000Y-55970000D02*
X178817000Y-55970000D01*
X175317000Y-55170000D02*
G75*
G03*
X174817000Y-55670000I0J-500000D01*
G01*
X173817000Y-52670000D02*
G75*
G03*
X175317000Y-51170000I0J1500000D01*
G01*
%TO.C,U1*%
X90861400Y-30825000D02*
X93401400Y-30825000D01*
X90861400Y-61305000D02*
X90861400Y-30825000D01*
X93401400Y-30825000D02*
X93401400Y-61305000D01*
X93401400Y-61305000D02*
X90861400Y-61305000D01*
X106081400Y-30825000D02*
X108621400Y-30825000D01*
X106081400Y-61305000D02*
X106081400Y-30825000D01*
X108621400Y-30825000D02*
X108621400Y-61305000D01*
X108621400Y-61305000D02*
X106081400Y-61305000D01*
%TO.C,D8*%
X130100000Y-79850000D02*
X130100000Y-81350000D01*
X130100000Y-81350000D02*
X135500000Y-81350000D01*
X132300000Y-80100000D02*
X132300000Y-81100000D01*
X132400000Y-80600000D02*
X133300000Y-80100000D01*
X133300000Y-80100000D02*
X133300000Y-81100000D01*
X133300000Y-81100000D02*
X132400000Y-80600000D01*
X135500000Y-79850000D02*
X130100000Y-79850000D01*
X135500000Y-79850000D02*
X135500000Y-81350000D01*
%TO.C,SW_R0_C4*%
X113317000Y-26370000D02*
X114317000Y-26370000D01*
X113317000Y-27370000D02*
X113317000Y-26370000D01*
X113317000Y-40370000D02*
X113317000Y-39370000D01*
X114317000Y-40370000D02*
X113317000Y-40370000D01*
X118317000Y-37570000D02*
X118817000Y-37070000D01*
X118317000Y-41070000D02*
X118817000Y-41570000D01*
X118817000Y-37070000D02*
X121317000Y-37070000D01*
X118817000Y-41570000D02*
X121817000Y-41570000D01*
X121817000Y-41570000D02*
X122317000Y-41070000D01*
X122317000Y-40070000D02*
X122317000Y-41070000D01*
X122817000Y-34870000D02*
X127317000Y-34870000D01*
X122817000Y-35570000D02*
X122817000Y-34870000D01*
X126317000Y-26370000D02*
X127317000Y-26370000D01*
X127317000Y-26370000D02*
X127317000Y-27370000D01*
X127317000Y-34870000D02*
X127317000Y-35370000D01*
X127317000Y-38970000D02*
X127317000Y-39570000D01*
X127317000Y-39370000D02*
X127317000Y-40370000D01*
X127317000Y-39570000D02*
X122817000Y-39570000D01*
X127317000Y-40370000D02*
X126317000Y-40370000D01*
X122817000Y-39570000D02*
G75*
G03*
X122317000Y-40070000I0J-500000D01*
G01*
X121317000Y-37070000D02*
G75*
G03*
X122817000Y-35570000I0J1500000D01*
G01*
%TO.C,SW_R0_C0*%
X183317000Y-32470000D02*
X184317000Y-32470000D01*
X183317000Y-33470000D02*
X183317000Y-32470000D01*
X183317000Y-46470000D02*
X183317000Y-45470000D01*
X184317000Y-46470000D02*
X183317000Y-46470000D01*
X188317000Y-43670000D02*
X188817000Y-43170000D01*
X188317000Y-47170000D02*
X188817000Y-47670000D01*
X188817000Y-43170000D02*
X191317000Y-43170000D01*
X188817000Y-47670000D02*
X191817000Y-47670000D01*
X191817000Y-47670000D02*
X192317000Y-47170000D01*
X192317000Y-46170000D02*
X192317000Y-47170000D01*
X192817000Y-40970000D02*
X197317000Y-40970000D01*
X192817000Y-41670000D02*
X192817000Y-40970000D01*
X196317000Y-32470000D02*
X197317000Y-32470000D01*
X197317000Y-32470000D02*
X197317000Y-33470000D01*
X197317000Y-40970000D02*
X197317000Y-41470000D01*
X197317000Y-45070000D02*
X197317000Y-45670000D01*
X197317000Y-45470000D02*
X197317000Y-46470000D01*
X197317000Y-45670000D02*
X192817000Y-45670000D01*
X197317000Y-46470000D02*
X196317000Y-46470000D01*
X192817000Y-45670000D02*
G75*
G03*
X192317000Y-46170000I0J-500000D01*
G01*
X191317000Y-43170000D02*
G75*
G03*
X192817000Y-41670000I0J1500000D01*
G01*
%TO.C,SW_R1_C2*%
X148317000Y-37580000D02*
X149317000Y-37580000D01*
X148317000Y-38580000D02*
X148317000Y-37580000D01*
X148317000Y-51580000D02*
X148317000Y-50580000D01*
X149317000Y-51580000D02*
X148317000Y-51580000D01*
X153317000Y-48780000D02*
X153817000Y-48280000D01*
X153317000Y-52280000D02*
X153817000Y-52780000D01*
X153817000Y-48280000D02*
X156317000Y-48280000D01*
X153817000Y-52780000D02*
X156817000Y-52780000D01*
X156817000Y-52780000D02*
X157317000Y-52280000D01*
X157317000Y-51280000D02*
X157317000Y-52280000D01*
X157817000Y-46080000D02*
X162317000Y-46080000D01*
X157817000Y-46780000D02*
X157817000Y-46080000D01*
X161317000Y-37580000D02*
X162317000Y-37580000D01*
X162317000Y-37580000D02*
X162317000Y-38580000D01*
X162317000Y-46080000D02*
X162317000Y-46580000D01*
X162317000Y-50180000D02*
X162317000Y-50780000D01*
X162317000Y-50580000D02*
X162317000Y-51580000D01*
X162317000Y-50780000D02*
X157817000Y-50780000D01*
X162317000Y-51580000D02*
X161317000Y-51580000D01*
X157817000Y-50780000D02*
G75*
G03*
X157317000Y-51280000I0J-500000D01*
G01*
X156317000Y-48280000D02*
G75*
G03*
X157817000Y-46780000I0J1500000D01*
G01*
%TO.C,SW_R0_C1*%
X165817000Y-23970000D02*
X166817000Y-23970000D01*
X165817000Y-24970000D02*
X165817000Y-23970000D01*
X165817000Y-37970000D02*
X165817000Y-36970000D01*
X166817000Y-37970000D02*
X165817000Y-37970000D01*
X170817000Y-35170000D02*
X171317000Y-34670000D01*
X170817000Y-38670000D02*
X171317000Y-39170000D01*
X171317000Y-34670000D02*
X173817000Y-34670000D01*
X171317000Y-39170000D02*
X174317000Y-39170000D01*
X174317000Y-39170000D02*
X174817000Y-38670000D01*
X174817000Y-37670000D02*
X174817000Y-38670000D01*
X175317000Y-32470000D02*
X179817000Y-32470000D01*
X175317000Y-33170000D02*
X175317000Y-32470000D01*
X178817000Y-23970000D02*
X179817000Y-23970000D01*
X179817000Y-23970000D02*
X179817000Y-24970000D01*
X179817000Y-32470000D02*
X179817000Y-32970000D01*
X179817000Y-36570000D02*
X179817000Y-37170000D01*
X179817000Y-36970000D02*
X179817000Y-37970000D01*
X179817000Y-37170000D02*
X175317000Y-37170000D01*
X179817000Y-37970000D02*
X178817000Y-37970000D01*
X175317000Y-37170000D02*
G75*
G03*
X174817000Y-37670000I0J-500000D01*
G01*
X173817000Y-34670000D02*
G75*
G03*
X175317000Y-33170000I0J1500000D01*
G01*
%TO.C,SW_R1_C0*%
X183317000Y-50470000D02*
X184317000Y-50470000D01*
X183317000Y-51470000D02*
X183317000Y-50470000D01*
X183317000Y-64470000D02*
X183317000Y-63470000D01*
X184317000Y-64470000D02*
X183317000Y-64470000D01*
X188317000Y-61670000D02*
X188817000Y-61170000D01*
X188317000Y-65170000D02*
X188817000Y-65670000D01*
X188817000Y-61170000D02*
X191317000Y-61170000D01*
X188817000Y-65670000D02*
X191817000Y-65670000D01*
X191817000Y-65670000D02*
X192317000Y-65170000D01*
X192317000Y-64170000D02*
X192317000Y-65170000D01*
X192817000Y-58970000D02*
X197317000Y-58970000D01*
X192817000Y-59670000D02*
X192817000Y-58970000D01*
X196317000Y-50470000D02*
X197317000Y-50470000D01*
X197317000Y-50470000D02*
X197317000Y-51470000D01*
X197317000Y-58970000D02*
X197317000Y-59470000D01*
X197317000Y-63070000D02*
X197317000Y-63670000D01*
X197317000Y-63470000D02*
X197317000Y-64470000D01*
X197317000Y-63670000D02*
X192817000Y-63670000D01*
X197317000Y-64470000D02*
X196317000Y-64470000D01*
X192817000Y-63670000D02*
G75*
G03*
X192317000Y-64170000I0J-500000D01*
G01*
X191317000Y-61170000D02*
G75*
G03*
X192817000Y-59670000I0J1500000D01*
G01*
%TO.C,SW_R2_C4*%
X113317000Y-62370000D02*
X114317000Y-62370000D01*
X113317000Y-63370000D02*
X113317000Y-62370000D01*
X113317000Y-76370000D02*
X113317000Y-75370000D01*
X114317000Y-76370000D02*
X113317000Y-76370000D01*
X118317000Y-73570000D02*
X118817000Y-73070000D01*
X118317000Y-77070000D02*
X118817000Y-77570000D01*
X118817000Y-73070000D02*
X121317000Y-73070000D01*
X118817000Y-77570000D02*
X121817000Y-77570000D01*
X121817000Y-77570000D02*
X122317000Y-77070000D01*
X122317000Y-76070000D02*
X122317000Y-77070000D01*
X122817000Y-70870000D02*
X127317000Y-70870000D01*
X122817000Y-71570000D02*
X122817000Y-70870000D01*
X126317000Y-62370000D02*
X127317000Y-62370000D01*
X127317000Y-62370000D02*
X127317000Y-63370000D01*
X127317000Y-70870000D02*
X127317000Y-71370000D01*
X127317000Y-74970000D02*
X127317000Y-75570000D01*
X127317000Y-75370000D02*
X127317000Y-76370000D01*
X127317000Y-75570000D02*
X122817000Y-75570000D01*
X127317000Y-76370000D02*
X126317000Y-76370000D01*
X122817000Y-75570000D02*
G75*
G03*
X122317000Y-76070000I0J-500000D01*
G01*
X121317000Y-73070000D02*
G75*
G03*
X122817000Y-71570000I0J1500000D01*
G01*
%TO.C,SW_R1_C4*%
X113317000Y-44370000D02*
X114317000Y-44370000D01*
X113317000Y-45370000D02*
X113317000Y-44370000D01*
X113317000Y-58370000D02*
X113317000Y-57370000D01*
X114317000Y-58370000D02*
X113317000Y-58370000D01*
X118317000Y-55570000D02*
X118817000Y-55070000D01*
X118317000Y-59070000D02*
X118817000Y-59570000D01*
X118817000Y-55070000D02*
X121317000Y-55070000D01*
X118817000Y-59570000D02*
X121817000Y-59570000D01*
X121817000Y-59570000D02*
X122317000Y-59070000D01*
X122317000Y-58070000D02*
X122317000Y-59070000D01*
X122817000Y-52870000D02*
X127317000Y-52870000D01*
X122817000Y-53570000D02*
X122817000Y-52870000D01*
X126317000Y-44370000D02*
X127317000Y-44370000D01*
X127317000Y-44370000D02*
X127317000Y-45370000D01*
X127317000Y-52870000D02*
X127317000Y-53370000D01*
X127317000Y-56970000D02*
X127317000Y-57570000D01*
X127317000Y-57370000D02*
X127317000Y-58370000D01*
X127317000Y-57570000D02*
X122817000Y-57570000D01*
X127317000Y-58370000D02*
X126317000Y-58370000D01*
X122817000Y-57570000D02*
G75*
G03*
X122317000Y-58070000I0J-500000D01*
G01*
X121317000Y-55070000D02*
G75*
G03*
X122817000Y-53570000I0J1500000D01*
G01*
%TO.C,D4*%
X110274519Y-86357789D02*
X108975481Y-87107789D01*
X108975481Y-87107789D02*
X111675481Y-91784327D01*
X111158013Y-88388045D02*
X110291987Y-88888045D01*
X110775000Y-88724648D02*
X111658013Y-89254071D01*
X111658013Y-89254071D02*
X110791987Y-89754071D01*
X110791987Y-89754071D02*
X110775000Y-88724648D01*
X112974519Y-91034327D02*
X110274519Y-86357789D01*
X112974519Y-91034327D02*
X111675481Y-91784327D01*
%TO.C,D16*%
X192417000Y-65720000D02*
X192417000Y-67220000D01*
X192417000Y-67220000D02*
X197817000Y-67220000D01*
X194617000Y-65970000D02*
X194617000Y-66970000D01*
X194717000Y-66470000D02*
X195617000Y-65970000D01*
X195617000Y-65970000D02*
X195617000Y-66970000D01*
X195617000Y-66970000D02*
X194717000Y-66470000D01*
X197817000Y-65720000D02*
X192417000Y-65720000D01*
X197817000Y-65720000D02*
X197817000Y-67220000D01*
%TO.C,D6*%
X139917000Y-57220000D02*
X139917000Y-58720000D01*
X139917000Y-58720000D02*
X145317000Y-58720000D01*
X142117000Y-57470000D02*
X142117000Y-58470000D01*
X142217000Y-57970000D02*
X143117000Y-57470000D01*
X143117000Y-57470000D02*
X143117000Y-58470000D01*
X143117000Y-58470000D02*
X142217000Y-57970000D01*
X145317000Y-57220000D02*
X139917000Y-57220000D01*
X145317000Y-57220000D02*
X145317000Y-58720000D01*
%TO.C,SW_R0_C3*%
X130817000Y-23970000D02*
X131817000Y-23970000D01*
X130817000Y-24970000D02*
X130817000Y-23970000D01*
X130817000Y-37970000D02*
X130817000Y-36970000D01*
X131817000Y-37970000D02*
X130817000Y-37970000D01*
X135817000Y-35170000D02*
X136317000Y-34670000D01*
X135817000Y-38670000D02*
X136317000Y-39170000D01*
X136317000Y-34670000D02*
X138817000Y-34670000D01*
X136317000Y-39170000D02*
X139317000Y-39170000D01*
X139317000Y-39170000D02*
X139817000Y-38670000D01*
X139817000Y-37670000D02*
X139817000Y-38670000D01*
X140317000Y-32470000D02*
X144817000Y-32470000D01*
X140317000Y-33170000D02*
X140317000Y-32470000D01*
X143817000Y-23970000D02*
X144817000Y-23970000D01*
X144817000Y-23970000D02*
X144817000Y-24970000D01*
X144817000Y-32470000D02*
X144817000Y-32970000D01*
X144817000Y-36570000D02*
X144817000Y-37170000D01*
X144817000Y-36970000D02*
X144817000Y-37970000D01*
X144817000Y-37170000D02*
X140317000Y-37170000D01*
X144817000Y-37970000D02*
X143817000Y-37970000D01*
X140317000Y-37170000D02*
G75*
G03*
X139817000Y-37670000I0J-500000D01*
G01*
X138817000Y-34670000D02*
G75*
G03*
X140317000Y-33170000I0J1500000D01*
G01*
%TO.C,D1*%
X122417000Y-41620000D02*
X122417000Y-43120000D01*
X122417000Y-43120000D02*
X127817000Y-43120000D01*
X124617000Y-41870000D02*
X124617000Y-42870000D01*
X124717000Y-42370000D02*
X125617000Y-41870000D01*
X125617000Y-41870000D02*
X125617000Y-42870000D01*
X125617000Y-42870000D02*
X124717000Y-42370000D01*
X127817000Y-41620000D02*
X122417000Y-41620000D01*
X127817000Y-41620000D02*
X127817000Y-43120000D01*
%TO.C,D13*%
X174917000Y-57220000D02*
X174917000Y-58720000D01*
X174917000Y-58720000D02*
X180317000Y-58720000D01*
X177117000Y-57470000D02*
X177117000Y-58470000D01*
X177217000Y-57970000D02*
X178117000Y-57470000D01*
X178117000Y-57470000D02*
X178117000Y-58470000D01*
X178117000Y-58470000D02*
X177217000Y-57970000D01*
X180317000Y-57220000D02*
X174917000Y-57220000D01*
X180317000Y-57220000D02*
X180317000Y-58720000D01*
%TO.C,SW_R0_C2*%
X148317000Y-19580000D02*
X149317000Y-19580000D01*
X148317000Y-20580000D02*
X148317000Y-19580000D01*
X148317000Y-33580000D02*
X148317000Y-32580000D01*
X149317000Y-33580000D02*
X148317000Y-33580000D01*
X153317000Y-30780000D02*
X153817000Y-30280000D01*
X153317000Y-34280000D02*
X153817000Y-34780000D01*
X153817000Y-30280000D02*
X156317000Y-30280000D01*
X153817000Y-34780000D02*
X156817000Y-34780000D01*
X156817000Y-34780000D02*
X157317000Y-34280000D01*
X157317000Y-33280000D02*
X157317000Y-34280000D01*
X157817000Y-28080000D02*
X162317000Y-28080000D01*
X157817000Y-28780000D02*
X157817000Y-28080000D01*
X161317000Y-19580000D02*
X162317000Y-19580000D01*
X162317000Y-19580000D02*
X162317000Y-20580000D01*
X162317000Y-28080000D02*
X162317000Y-28580000D01*
X162317000Y-32180000D02*
X162317000Y-32780000D01*
X162317000Y-32580000D02*
X162317000Y-33580000D01*
X162317000Y-32780000D02*
X157817000Y-32780000D01*
X162317000Y-33580000D02*
X161317000Y-33580000D01*
X157817000Y-32780000D02*
G75*
G03*
X157317000Y-33280000I0J-500000D01*
G01*
X156317000Y-30280000D02*
G75*
G03*
X157817000Y-28780000I0J1500000D01*
G01*
%TO.C,SW_R2_C1*%
X165817000Y-59970000D02*
X166817000Y-59970000D01*
X165817000Y-60970000D02*
X165817000Y-59970000D01*
X165817000Y-73970000D02*
X165817000Y-72970000D01*
X166817000Y-73970000D02*
X165817000Y-73970000D01*
X170817000Y-71170000D02*
X171317000Y-70670000D01*
X170817000Y-74670000D02*
X171317000Y-75170000D01*
X171317000Y-70670000D02*
X173817000Y-70670000D01*
X171317000Y-75170000D02*
X174317000Y-75170000D01*
X174317000Y-75170000D02*
X174817000Y-74670000D01*
X174817000Y-73670000D02*
X174817000Y-74670000D01*
X175317000Y-68470000D02*
X179817000Y-68470000D01*
X175317000Y-69170000D02*
X175317000Y-68470000D01*
X178817000Y-59970000D02*
X179817000Y-59970000D01*
X179817000Y-59970000D02*
X179817000Y-60970000D01*
X179817000Y-68470000D02*
X179817000Y-68970000D01*
X179817000Y-72570000D02*
X179817000Y-73170000D01*
X179817000Y-72970000D02*
X179817000Y-73970000D01*
X179817000Y-73170000D02*
X175317000Y-73170000D01*
X179817000Y-73970000D02*
X178817000Y-73970000D01*
X175317000Y-73170000D02*
G75*
G03*
X174817000Y-73670000I0J-500000D01*
G01*
X173817000Y-70670000D02*
G75*
G03*
X175317000Y-69170000I0J1500000D01*
G01*
%TO.C,D17*%
X192417000Y-83720000D02*
X192417000Y-85220000D01*
X192417000Y-85220000D02*
X197817000Y-85220000D01*
X194617000Y-83970000D02*
X194617000Y-84970000D01*
X194717000Y-84470000D02*
X195617000Y-83970000D01*
X195617000Y-83970000D02*
X195617000Y-84970000D01*
X195617000Y-84970000D02*
X194717000Y-84470000D01*
X197817000Y-83720000D02*
X192417000Y-83720000D01*
X197817000Y-83720000D02*
X197817000Y-85220000D01*
%TO.C,D14*%
X174917000Y-75220000D02*
X174917000Y-76720000D01*
X174917000Y-76720000D02*
X180317000Y-76720000D01*
X177117000Y-75470000D02*
X177117000Y-76470000D01*
X177217000Y-75970000D02*
X178117000Y-75470000D01*
X178117000Y-75470000D02*
X178117000Y-76470000D01*
X178117000Y-76470000D02*
X177217000Y-75970000D01*
X180317000Y-75220000D02*
X174917000Y-75220000D01*
X180317000Y-75220000D02*
X180317000Y-76720000D01*
%TO.C,D15*%
X192417000Y-47720000D02*
X192417000Y-49220000D01*
X192417000Y-49220000D02*
X197817000Y-49220000D01*
X194617000Y-47970000D02*
X194617000Y-48970000D01*
X194717000Y-48470000D02*
X195617000Y-47970000D01*
X195617000Y-47970000D02*
X195617000Y-48970000D01*
X195617000Y-48970000D02*
X194717000Y-48470000D01*
X197817000Y-47720000D02*
X192417000Y-47720000D01*
X197817000Y-47720000D02*
X197817000Y-49220000D01*
%TO.C,D10*%
X157417000Y-52830000D02*
X157417000Y-54330000D01*
X157417000Y-54330000D02*
X162817000Y-54330000D01*
X159617000Y-53080000D02*
X159617000Y-54080000D01*
X159717000Y-53580000D02*
X160617000Y-53080000D01*
X160617000Y-53080000D02*
X160617000Y-54080000D01*
X160617000Y-54080000D02*
X159717000Y-53580000D01*
X162817000Y-52830000D02*
X157417000Y-52830000D01*
X162817000Y-52830000D02*
X162817000Y-54330000D01*
D12*
%TO.C,SW_PWR1*%
X95850000Y-27100000D02*
X95850000Y-28400000D01*
X96350000Y-26200000D02*
X102450000Y-26200000D01*
X96700000Y-29300000D02*
X96350000Y-29300000D01*
X102450000Y-29300000D02*
X102100000Y-29300000D01*
X102950000Y-28400000D02*
X102950000Y-27100000D01*
D10*
%TO.C,D12*%
X174917000Y-39220000D02*
X174917000Y-40720000D01*
X174917000Y-40720000D02*
X180317000Y-40720000D01*
X177117000Y-39470000D02*
X177117000Y-40470000D01*
X177217000Y-39970000D02*
X178117000Y-39470000D01*
X178117000Y-39470000D02*
X178117000Y-40470000D01*
X178117000Y-40470000D02*
X177217000Y-39970000D01*
X180317000Y-39220000D02*
X174917000Y-39220000D01*
X180317000Y-39220000D02*
X180317000Y-40720000D01*
%TO.C,D2*%
X122417000Y-59620000D02*
X122417000Y-61120000D01*
X122417000Y-61120000D02*
X127817000Y-61120000D01*
X124617000Y-59870000D02*
X124617000Y-60870000D01*
X124717000Y-60370000D02*
X125617000Y-59870000D01*
X125617000Y-59870000D02*
X125617000Y-60870000D01*
X125617000Y-60870000D02*
X124717000Y-60370000D01*
X127817000Y-59620000D02*
X122417000Y-59620000D01*
X127817000Y-59620000D02*
X127817000Y-61120000D01*
%TO.C,SW8*%
X128635000Y-93635000D02*
G75*
G03*
X130135000Y-92135000I0J1500000D01*
G01*
X130135000Y-96135000D02*
G75*
G03*
X129635000Y-96635000I0J-500000D01*
G01*
X134635000Y-96935000D02*
X133635000Y-96935000D01*
X134635000Y-96135000D02*
X130135000Y-96135000D01*
X134635000Y-95935000D02*
X134635000Y-96935000D01*
X134635000Y-95535000D02*
X134635000Y-96135000D01*
X134635000Y-91435000D02*
X134635000Y-91935000D01*
X134635000Y-82935000D02*
X134635000Y-83935000D01*
X133635000Y-82935000D02*
X134635000Y-82935000D01*
X130135000Y-92135000D02*
X130135000Y-91435000D01*
X130135000Y-91435000D02*
X134635000Y-91435000D01*
X129635000Y-96635000D02*
X129635000Y-97635000D01*
X129135000Y-98135000D02*
X129635000Y-97635000D01*
X126135000Y-98135000D02*
X129135000Y-98135000D01*
X126135000Y-93635000D02*
X128635000Y-93635000D01*
X125635000Y-97635000D02*
X126135000Y-98135000D01*
X125635000Y-94135000D02*
X126135000Y-93635000D01*
X121635000Y-96935000D02*
X120635000Y-96935000D01*
X120635000Y-96935000D02*
X120635000Y-95935000D01*
X120635000Y-83935000D02*
X120635000Y-82935000D01*
X120635000Y-82935000D02*
X121635000Y-82935000D01*
%TO.C,SW_R1_C3*%
X130817000Y-41970000D02*
X131817000Y-41970000D01*
X130817000Y-42970000D02*
X130817000Y-41970000D01*
X130817000Y-55970000D02*
X130817000Y-54970000D01*
X131817000Y-55970000D02*
X130817000Y-55970000D01*
X135817000Y-53170000D02*
X136317000Y-52670000D01*
X135817000Y-56670000D02*
X136317000Y-57170000D01*
X136317000Y-52670000D02*
X138817000Y-52670000D01*
X136317000Y-57170000D02*
X139317000Y-57170000D01*
X139317000Y-57170000D02*
X139817000Y-56670000D01*
X139817000Y-55670000D02*
X139817000Y-56670000D01*
X140317000Y-50470000D02*
X144817000Y-50470000D01*
X140317000Y-51170000D02*
X140317000Y-50470000D01*
X143817000Y-41970000D02*
X144817000Y-41970000D01*
X144817000Y-41970000D02*
X144817000Y-42970000D01*
X144817000Y-50470000D02*
X144817000Y-50970000D01*
X144817000Y-54570000D02*
X144817000Y-55170000D01*
X144817000Y-54970000D02*
X144817000Y-55970000D01*
X144817000Y-55170000D02*
X140317000Y-55170000D01*
X144817000Y-55970000D02*
X143817000Y-55970000D01*
X140317000Y-55170000D02*
G75*
G03*
X139817000Y-55670000I0J-500000D01*
G01*
X138817000Y-52670000D02*
G75*
G03*
X140317000Y-51170000I0J1500000D01*
G01*
%TO.C,D3*%
X122417000Y-77620000D02*
X122417000Y-79120000D01*
X122417000Y-79120000D02*
X127817000Y-79120000D01*
X124617000Y-77870000D02*
X124617000Y-78870000D01*
X124717000Y-78370000D02*
X125617000Y-77870000D01*
X125617000Y-77870000D02*
X125617000Y-78870000D01*
X125617000Y-78870000D02*
X124717000Y-78370000D01*
X127817000Y-77620000D02*
X122417000Y-77620000D01*
X127817000Y-77620000D02*
X127817000Y-79120000D01*
%TO.C,D11*%
X157417000Y-70830000D02*
X157417000Y-72330000D01*
X157417000Y-72330000D02*
X162817000Y-72330000D01*
X159617000Y-71080000D02*
X159617000Y-72080000D01*
X159717000Y-71580000D02*
X160617000Y-71080000D01*
X160617000Y-71080000D02*
X160617000Y-72080000D01*
X160617000Y-72080000D02*
X159717000Y-71580000D01*
X162817000Y-70830000D02*
X157417000Y-70830000D01*
X162817000Y-70830000D02*
X162817000Y-72330000D01*
%TO.C,D7*%
X139917000Y-75220000D02*
X139917000Y-76720000D01*
X139917000Y-76720000D02*
X145317000Y-76720000D01*
X142117000Y-75470000D02*
X142117000Y-76470000D01*
X142217000Y-75970000D02*
X143117000Y-75470000D01*
X143117000Y-75470000D02*
X143117000Y-76470000D01*
X143117000Y-76470000D02*
X142217000Y-75970000D01*
X145317000Y-75220000D02*
X139917000Y-75220000D01*
X145317000Y-75220000D02*
X145317000Y-76720000D01*
%TD*%
D13*
%TO.C,B+1*%
X92250000Y-27000000D03*
%TD*%
D14*
%TO.C,SW_RST1*%
X95381756Y-65191877D03*
X100706244Y-68920123D03*
%TD*%
D13*
%TO.C,B-1*%
X107250000Y-27000000D03*
%TD*%
D15*
%TO.C,U1*%
X90805000Y-33365000D03*
X107351400Y-32095000D03*
X90805000Y-35905000D03*
X107351400Y-34635000D03*
X90805000Y-38445000D03*
X107351400Y-37175000D03*
X90805000Y-40985000D03*
X107351400Y-39715000D03*
X90805000Y-43525000D03*
X107351400Y-42255000D03*
X90805000Y-46065000D03*
X107351400Y-44795000D03*
X90805000Y-48605000D03*
X107351400Y-47335000D03*
X90805000Y-51145000D03*
X107351400Y-49875000D03*
X90805000Y-53685000D03*
X107351400Y-52415000D03*
X90805000Y-56225000D03*
X107351400Y-54955000D03*
X90805000Y-58765000D03*
X107351400Y-57495000D03*
X90805000Y-61305000D03*
X107351400Y-60035000D03*
X92131400Y-60035000D03*
X106045000Y-61305000D03*
X92131400Y-57495000D03*
X106045000Y-58765000D03*
X92131400Y-54955000D03*
X106045000Y-56225000D03*
X92131400Y-52415000D03*
X106045000Y-53685000D03*
X92131400Y-49875000D03*
X106045000Y-51145000D03*
X92131400Y-47335000D03*
X106045000Y-48605000D03*
X92131400Y-44795000D03*
X106045000Y-46065000D03*
X92131400Y-42255000D03*
X106045000Y-43525000D03*
X92131400Y-39715000D03*
X106045000Y-40985000D03*
X92131400Y-37175000D03*
X106045000Y-38445000D03*
X92131400Y-34635000D03*
X106045000Y-35905000D03*
X92131400Y-32095000D03*
X106045000Y-33365000D03*
%TD*%
M02*
