M48
; DRILL file {KiCad 7.0.5-0} date 2023 August 21, Monday 14:14:52
; FORMAT={-:-/ absolute / metric / decimal}
; #@! TF.CreationDate,2023-08-21T14:14:52+01:00
; #@! TF.GenerationSoftware,Kicad,Pcbnew,7.0.5-0
; #@! TF.FileFunction,Plated,1,2,PTH
FMAT,2
METRIC
; #@! TA.AperFunction,Plated,PTH,ViaDrill
T1C0.400
; #@! TA.AperFunction,Plated,PTH,ComponentDrill
T2C0.813
; #@! TA.AperFunction,Plated,PTH,ComponentDrill
T3C1.300
%
G90
G05
T1
X94.5Y-39.5
X95.5Y-43.8
X95.5Y-51.6
X95.593Y-45.593
X95.7Y-53.3
X95.8Y-48.2
X96.3Y-46.3
X96.7Y-50.6
X96.7Y-55.9
X97.0Y-48.8
X97.0Y-54.0
X98.6Y-58.3
X99.0Y-56.5
X100.0Y-33.4
X100.0Y-42.98
X100.3Y-60.9
X100.7Y-59.1
X100.8Y-41.5
X101.1Y-35.905
X101.1Y-90.9
X103.1Y-31.7
X103.3Y-34.6
X105.076Y-101.476
X110.15Y-85.0
X112.0Y-40.5
X112.614Y-92.6
X114.5Y-57.9
X116.8Y-70.8
X120.3Y-78.37
X120.45Y-72.55
X121.4Y-60.37
X121.5Y-42.37
X121.8Y-54.3
X122.2Y-36.5
X127.918Y-41.218
X128.518Y-58.618
X128.592Y-76.545
X129.125Y-82.625
X129.5Y-68.5
X130.76Y-91.968
X131.4Y-55.5
X131.5Y-38.0
X135.9Y-97.2
X135.91Y-82.2
X136.3Y-32.845
X138.6Y-76.2
X139.219Y-59.718
X139.4Y-69.949
X139.5Y-52.0
X139.518Y-41.419
X144.6Y-29.6
X146.018Y-74.218
X146.092Y-38.145
X146.092Y-56.145
X148.7Y-69.4
X148.8Y-51.1
X154.392Y-30.409
X156.323Y-55.723
X156.724Y-73.323
X156.874Y-37.173
X156.9Y-47.7
X158.442Y-64.8
X160.2Y-70.655
X160.5Y-34.655
X160.694Y-52.506
X164.4Y-73.5
X164.5Y-56.2
X164.6Y-37.8
X172.424Y-33.876
X173.0Y-57.97
X173.1Y-39.97
X173.4Y-75.97
X174.5Y-51.8
X176.817Y-68.6
X180.969Y-74.269
X181.092Y-38.145
X181.092Y-56.27
X183.6Y-64.2
X183.7Y-45.6
X183.8Y-81.7
X190.1Y-42.4
X190.6Y-66.47
X191.0Y-48.47
X191.0Y-84.47
X193.442Y-59.7
X193.442Y-77.7
X198.218Y-65.019
X198.418Y-82.819
X198.468Y-46.768
T2
X90.805Y-33.365
X90.805Y-35.905
X90.805Y-38.445
X90.805Y-40.985
X90.805Y-43.525
X90.805Y-46.065
X90.805Y-48.605
X90.805Y-51.145
X90.805Y-53.685
X90.805Y-56.225
X90.805Y-58.765
X90.805Y-61.305
X92.131Y-32.095
X92.131Y-34.635
X92.131Y-37.175
X92.131Y-39.715
X92.131Y-42.255
X92.131Y-44.795
X92.131Y-47.335
X92.131Y-49.875
X92.131Y-52.415
X92.131Y-54.955
X92.131Y-57.495
X92.131Y-60.035
X92.25Y-27.0
X106.045Y-33.365
X106.045Y-35.905
X106.045Y-38.445
X106.045Y-40.985
X106.045Y-43.525
X106.045Y-46.065
X106.045Y-48.605
X106.045Y-51.145
X106.045Y-53.685
X106.045Y-56.225
X106.045Y-58.765
X106.045Y-61.305
X107.25Y-27.0
X107.351Y-32.095
X107.351Y-34.635
X107.351Y-37.175
X107.351Y-39.715
X107.351Y-42.255
X107.351Y-44.795
X107.351Y-47.335
X107.351Y-49.875
X107.351Y-52.415
X107.351Y-54.955
X107.351Y-57.495
X107.351Y-60.035
T3
X95.382Y-65.192
X100.706Y-68.92
T0
M30
