%TF.GenerationSoftware,KiCad,Pcbnew,7.0.5-0*%
%TF.CreationDate,2023-08-21T14:14:50+01:00*%
%TF.ProjectId,draenog-34,64726165-6e6f-4672-9d33-342e6b696361,rev?*%
%TF.SameCoordinates,Original*%
%TF.FileFunction,Legend,Bot*%
%TF.FilePolarity,Positive*%
%FSLAX46Y46*%
G04 Gerber Fmt 4.6, Leading zero omitted, Abs format (unit mm)*
G04 Created by KiCad (PCBNEW 7.0.5-0) date 2023-08-21 14:14:50*
%MOMM*%
%LPD*%
G01*
G04 APERTURE LIST*
%ADD10C,0.150000*%
%ADD11C,0.125000*%
G04 APERTURE END LIST*
D10*
%TO.C,SW4*%
X105237547Y-94657263D02*
X105124879Y-94557354D01*
X105124879Y-94557354D02*
X105005832Y-94351158D01*
X105005832Y-94351158D02*
X104999452Y-94244870D01*
X104999452Y-94244870D02*
X105016882Y-94179821D01*
X105016882Y-94179821D02*
X105075551Y-94090962D01*
X105075551Y-94090962D02*
X105158030Y-94043343D01*
X105158030Y-94043343D02*
X105264318Y-94036964D01*
X105264318Y-94036964D02*
X105329367Y-94054393D01*
X105329367Y-94054393D02*
X105418225Y-94113062D01*
X105418225Y-94113062D02*
X105554702Y-94254210D01*
X105554702Y-94254210D02*
X105643561Y-94312879D01*
X105643561Y-94312879D02*
X105708609Y-94330309D01*
X105708609Y-94330309D02*
X105814898Y-94323929D01*
X105814898Y-94323929D02*
X105897376Y-94276310D01*
X105897376Y-94276310D02*
X105956045Y-94187452D01*
X105956045Y-94187452D02*
X105973475Y-94122403D01*
X105973475Y-94122403D02*
X105967095Y-94016115D01*
X105967095Y-94016115D02*
X105848048Y-93809918D01*
X105848048Y-93809918D02*
X105735380Y-93710010D01*
X105609952Y-93397525D02*
X104624879Y-93691329D01*
X104624879Y-93691329D02*
X105148231Y-93169229D01*
X105148231Y-93169229D02*
X104434403Y-93361414D01*
X104434403Y-93361414D02*
X105181381Y-92655218D01*
X104487944Y-92120816D02*
X103910594Y-92454150D01*
X104936906Y-92136537D02*
X104437364Y-92699876D01*
X104437364Y-92699876D02*
X104127840Y-92163765D01*
%TO.C,B+1*%
X92559637Y-28206416D02*
X92559637Y-28399940D01*
X92753161Y-28322531D02*
X92559637Y-28399940D01*
X92559637Y-28399940D02*
X92366114Y-28322531D01*
X92675752Y-28554759D02*
X92559637Y-28399940D01*
X92559637Y-28399940D02*
X92443523Y-28554759D01*
X91940361Y-28206416D02*
X91940361Y-28399940D01*
X92133885Y-28322531D02*
X91940361Y-28399940D01*
X91940361Y-28399940D02*
X91746838Y-28322531D01*
X92056476Y-28554759D02*
X91940361Y-28399940D01*
X91940361Y-28399940D02*
X91824247Y-28554759D01*
%TO.C,SW_R2_C2*%
X154443428Y-61082200D02*
X154300571Y-61129819D01*
X154300571Y-61129819D02*
X154062476Y-61129819D01*
X154062476Y-61129819D02*
X153967238Y-61082200D01*
X153967238Y-61082200D02*
X153919619Y-61034580D01*
X153919619Y-61034580D02*
X153872000Y-60939342D01*
X153872000Y-60939342D02*
X153872000Y-60844104D01*
X153872000Y-60844104D02*
X153919619Y-60748866D01*
X153919619Y-60748866D02*
X153967238Y-60701247D01*
X153967238Y-60701247D02*
X154062476Y-60653628D01*
X154062476Y-60653628D02*
X154252952Y-60606009D01*
X154252952Y-60606009D02*
X154348190Y-60558390D01*
X154348190Y-60558390D02*
X154395809Y-60510771D01*
X154395809Y-60510771D02*
X154443428Y-60415533D01*
X154443428Y-60415533D02*
X154443428Y-60320295D01*
X154443428Y-60320295D02*
X154395809Y-60225057D01*
X154395809Y-60225057D02*
X154348190Y-60177438D01*
X154348190Y-60177438D02*
X154252952Y-60129819D01*
X154252952Y-60129819D02*
X154014857Y-60129819D01*
X154014857Y-60129819D02*
X153872000Y-60177438D01*
X153538666Y-60129819D02*
X153300571Y-61129819D01*
X153300571Y-61129819D02*
X153110095Y-60415533D01*
X153110095Y-60415533D02*
X152919619Y-61129819D01*
X152919619Y-61129819D02*
X152681524Y-60129819D01*
X152538667Y-61225057D02*
X151776762Y-61225057D01*
X150967238Y-61129819D02*
X151300571Y-60653628D01*
X151538666Y-61129819D02*
X151538666Y-60129819D01*
X151538666Y-60129819D02*
X151157714Y-60129819D01*
X151157714Y-60129819D02*
X151062476Y-60177438D01*
X151062476Y-60177438D02*
X151014857Y-60225057D01*
X151014857Y-60225057D02*
X150967238Y-60320295D01*
X150967238Y-60320295D02*
X150967238Y-60463152D01*
X150967238Y-60463152D02*
X151014857Y-60558390D01*
X151014857Y-60558390D02*
X151062476Y-60606009D01*
X151062476Y-60606009D02*
X151157714Y-60653628D01*
X151157714Y-60653628D02*
X151538666Y-60653628D01*
X150586285Y-60225057D02*
X150538666Y-60177438D01*
X150538666Y-60177438D02*
X150443428Y-60129819D01*
X150443428Y-60129819D02*
X150205333Y-60129819D01*
X150205333Y-60129819D02*
X150110095Y-60177438D01*
X150110095Y-60177438D02*
X150062476Y-60225057D01*
X150062476Y-60225057D02*
X150014857Y-60320295D01*
X150014857Y-60320295D02*
X150014857Y-60415533D01*
X150014857Y-60415533D02*
X150062476Y-60558390D01*
X150062476Y-60558390D02*
X150633904Y-61129819D01*
X150633904Y-61129819D02*
X150014857Y-61129819D01*
X149824381Y-61225057D02*
X149062476Y-61225057D01*
X148252952Y-61034580D02*
X148300571Y-61082200D01*
X148300571Y-61082200D02*
X148443428Y-61129819D01*
X148443428Y-61129819D02*
X148538666Y-61129819D01*
X148538666Y-61129819D02*
X148681523Y-61082200D01*
X148681523Y-61082200D02*
X148776761Y-60986961D01*
X148776761Y-60986961D02*
X148824380Y-60891723D01*
X148824380Y-60891723D02*
X148871999Y-60701247D01*
X148871999Y-60701247D02*
X148871999Y-60558390D01*
X148871999Y-60558390D02*
X148824380Y-60367914D01*
X148824380Y-60367914D02*
X148776761Y-60272676D01*
X148776761Y-60272676D02*
X148681523Y-60177438D01*
X148681523Y-60177438D02*
X148538666Y-60129819D01*
X148538666Y-60129819D02*
X148443428Y-60129819D01*
X148443428Y-60129819D02*
X148300571Y-60177438D01*
X148300571Y-60177438D02*
X148252952Y-60225057D01*
X147871999Y-60225057D02*
X147824380Y-60177438D01*
X147824380Y-60177438D02*
X147729142Y-60129819D01*
X147729142Y-60129819D02*
X147491047Y-60129819D01*
X147491047Y-60129819D02*
X147395809Y-60177438D01*
X147395809Y-60177438D02*
X147348190Y-60225057D01*
X147348190Y-60225057D02*
X147300571Y-60320295D01*
X147300571Y-60320295D02*
X147300571Y-60415533D01*
X147300571Y-60415533D02*
X147348190Y-60558390D01*
X147348190Y-60558390D02*
X147919618Y-61129819D01*
X147919618Y-61129819D02*
X147300571Y-61129819D01*
%TO.C,SW_R2_C0*%
X189443428Y-73972200D02*
X189300571Y-74019819D01*
X189300571Y-74019819D02*
X189062476Y-74019819D01*
X189062476Y-74019819D02*
X188967238Y-73972200D01*
X188967238Y-73972200D02*
X188919619Y-73924580D01*
X188919619Y-73924580D02*
X188872000Y-73829342D01*
X188872000Y-73829342D02*
X188872000Y-73734104D01*
X188872000Y-73734104D02*
X188919619Y-73638866D01*
X188919619Y-73638866D02*
X188967238Y-73591247D01*
X188967238Y-73591247D02*
X189062476Y-73543628D01*
X189062476Y-73543628D02*
X189252952Y-73496009D01*
X189252952Y-73496009D02*
X189348190Y-73448390D01*
X189348190Y-73448390D02*
X189395809Y-73400771D01*
X189395809Y-73400771D02*
X189443428Y-73305533D01*
X189443428Y-73305533D02*
X189443428Y-73210295D01*
X189443428Y-73210295D02*
X189395809Y-73115057D01*
X189395809Y-73115057D02*
X189348190Y-73067438D01*
X189348190Y-73067438D02*
X189252952Y-73019819D01*
X189252952Y-73019819D02*
X189014857Y-73019819D01*
X189014857Y-73019819D02*
X188872000Y-73067438D01*
X188538666Y-73019819D02*
X188300571Y-74019819D01*
X188300571Y-74019819D02*
X188110095Y-73305533D01*
X188110095Y-73305533D02*
X187919619Y-74019819D01*
X187919619Y-74019819D02*
X187681524Y-73019819D01*
X187538667Y-74115057D02*
X186776762Y-74115057D01*
X185967238Y-74019819D02*
X186300571Y-73543628D01*
X186538666Y-74019819D02*
X186538666Y-73019819D01*
X186538666Y-73019819D02*
X186157714Y-73019819D01*
X186157714Y-73019819D02*
X186062476Y-73067438D01*
X186062476Y-73067438D02*
X186014857Y-73115057D01*
X186014857Y-73115057D02*
X185967238Y-73210295D01*
X185967238Y-73210295D02*
X185967238Y-73353152D01*
X185967238Y-73353152D02*
X186014857Y-73448390D01*
X186014857Y-73448390D02*
X186062476Y-73496009D01*
X186062476Y-73496009D02*
X186157714Y-73543628D01*
X186157714Y-73543628D02*
X186538666Y-73543628D01*
X185586285Y-73115057D02*
X185538666Y-73067438D01*
X185538666Y-73067438D02*
X185443428Y-73019819D01*
X185443428Y-73019819D02*
X185205333Y-73019819D01*
X185205333Y-73019819D02*
X185110095Y-73067438D01*
X185110095Y-73067438D02*
X185062476Y-73115057D01*
X185062476Y-73115057D02*
X185014857Y-73210295D01*
X185014857Y-73210295D02*
X185014857Y-73305533D01*
X185014857Y-73305533D02*
X185062476Y-73448390D01*
X185062476Y-73448390D02*
X185633904Y-74019819D01*
X185633904Y-74019819D02*
X185014857Y-74019819D01*
X184824381Y-74115057D02*
X184062476Y-74115057D01*
X183252952Y-73924580D02*
X183300571Y-73972200D01*
X183300571Y-73972200D02*
X183443428Y-74019819D01*
X183443428Y-74019819D02*
X183538666Y-74019819D01*
X183538666Y-74019819D02*
X183681523Y-73972200D01*
X183681523Y-73972200D02*
X183776761Y-73876961D01*
X183776761Y-73876961D02*
X183824380Y-73781723D01*
X183824380Y-73781723D02*
X183871999Y-73591247D01*
X183871999Y-73591247D02*
X183871999Y-73448390D01*
X183871999Y-73448390D02*
X183824380Y-73257914D01*
X183824380Y-73257914D02*
X183776761Y-73162676D01*
X183776761Y-73162676D02*
X183681523Y-73067438D01*
X183681523Y-73067438D02*
X183538666Y-73019819D01*
X183538666Y-73019819D02*
X183443428Y-73019819D01*
X183443428Y-73019819D02*
X183300571Y-73067438D01*
X183300571Y-73067438D02*
X183252952Y-73115057D01*
X182633904Y-73019819D02*
X182538666Y-73019819D01*
X182538666Y-73019819D02*
X182443428Y-73067438D01*
X182443428Y-73067438D02*
X182395809Y-73115057D01*
X182395809Y-73115057D02*
X182348190Y-73210295D01*
X182348190Y-73210295D02*
X182300571Y-73400771D01*
X182300571Y-73400771D02*
X182300571Y-73638866D01*
X182300571Y-73638866D02*
X182348190Y-73829342D01*
X182348190Y-73829342D02*
X182395809Y-73924580D01*
X182395809Y-73924580D02*
X182443428Y-73972200D01*
X182443428Y-73972200D02*
X182538666Y-74019819D01*
X182538666Y-74019819D02*
X182633904Y-74019819D01*
X182633904Y-74019819D02*
X182729142Y-73972200D01*
X182729142Y-73972200D02*
X182776761Y-73924580D01*
X182776761Y-73924580D02*
X182824380Y-73829342D01*
X182824380Y-73829342D02*
X182871999Y-73638866D01*
X182871999Y-73638866D02*
X182871999Y-73400771D01*
X182871999Y-73400771D02*
X182824380Y-73210295D01*
X182824380Y-73210295D02*
X182776761Y-73115057D01*
X182776761Y-73115057D02*
X182729142Y-73067438D01*
X182729142Y-73067438D02*
X182633904Y-73019819D01*
%TO.C,SW_RST1*%
X99076879Y-68334461D02*
X99623061Y-68135581D01*
X99544966Y-68662219D02*
X100118542Y-67843067D01*
X100118542Y-67843067D02*
X99806484Y-67624562D01*
X99806484Y-67624562D02*
X99701157Y-67608943D01*
X99701157Y-67608943D02*
X99634836Y-67620637D01*
X99634836Y-67620637D02*
X99541203Y-67671338D01*
X99541203Y-67671338D02*
X99459263Y-67788360D01*
X99459263Y-67788360D02*
X99443644Y-67893687D01*
X99443644Y-67893687D02*
X99455338Y-67960008D01*
X99455338Y-67960008D02*
X99506040Y-68053641D01*
X99506040Y-68053641D02*
X99818098Y-68272147D01*
X99026259Y-67659563D02*
X98753208Y-67468371D01*
X98335741Y-67815511D02*
X98725814Y-68088643D01*
X98725814Y-68088643D02*
X99299390Y-67269491D01*
X99299390Y-67269491D02*
X98909318Y-66996359D01*
X98050997Y-67557998D02*
X97906662Y-67515066D01*
X97906662Y-67515066D02*
X97711626Y-67378500D01*
X97711626Y-67378500D02*
X97660924Y-67284867D01*
X97660924Y-67284867D02*
X97649230Y-67218546D01*
X97649230Y-67218546D02*
X97664849Y-67113219D01*
X97664849Y-67113219D02*
X97719476Y-67035204D01*
X97719476Y-67035204D02*
X97813109Y-66984503D01*
X97813109Y-66984503D02*
X97879430Y-66972809D01*
X97879430Y-66972809D02*
X97984757Y-66988428D01*
X97984757Y-66988428D02*
X98168099Y-67058673D01*
X98168099Y-67058673D02*
X98273427Y-67074292D01*
X98273427Y-67074292D02*
X98339747Y-67062598D01*
X98339747Y-67062598D02*
X98433381Y-67011897D01*
X98433381Y-67011897D02*
X98488007Y-66933883D01*
X98488007Y-66933883D02*
X98503626Y-66828555D01*
X98503626Y-66828555D02*
X98491932Y-66762234D01*
X98491932Y-66762234D02*
X98441231Y-66668601D01*
X98441231Y-66668601D02*
X98246195Y-66532035D01*
X98246195Y-66532035D02*
X98101860Y-66489103D01*
X97504976Y-66594350D02*
X97231926Y-66403157D01*
X96814459Y-66750298D02*
X97204531Y-67023429D01*
X97204531Y-67023429D02*
X97778108Y-66204277D01*
X97778108Y-66204277D02*
X97388035Y-65931145D01*
X97153992Y-65767266D02*
X96685905Y-65439508D01*
X96346372Y-66422539D02*
X96919948Y-65603387D01*
%TO.C,SW_R2_C3*%
X136943428Y-65472200D02*
X136800571Y-65519819D01*
X136800571Y-65519819D02*
X136562476Y-65519819D01*
X136562476Y-65519819D02*
X136467238Y-65472200D01*
X136467238Y-65472200D02*
X136419619Y-65424580D01*
X136419619Y-65424580D02*
X136372000Y-65329342D01*
X136372000Y-65329342D02*
X136372000Y-65234104D01*
X136372000Y-65234104D02*
X136419619Y-65138866D01*
X136419619Y-65138866D02*
X136467238Y-65091247D01*
X136467238Y-65091247D02*
X136562476Y-65043628D01*
X136562476Y-65043628D02*
X136752952Y-64996009D01*
X136752952Y-64996009D02*
X136848190Y-64948390D01*
X136848190Y-64948390D02*
X136895809Y-64900771D01*
X136895809Y-64900771D02*
X136943428Y-64805533D01*
X136943428Y-64805533D02*
X136943428Y-64710295D01*
X136943428Y-64710295D02*
X136895809Y-64615057D01*
X136895809Y-64615057D02*
X136848190Y-64567438D01*
X136848190Y-64567438D02*
X136752952Y-64519819D01*
X136752952Y-64519819D02*
X136514857Y-64519819D01*
X136514857Y-64519819D02*
X136372000Y-64567438D01*
X136038666Y-64519819D02*
X135800571Y-65519819D01*
X135800571Y-65519819D02*
X135610095Y-64805533D01*
X135610095Y-64805533D02*
X135419619Y-65519819D01*
X135419619Y-65519819D02*
X135181524Y-64519819D01*
X135038667Y-65615057D02*
X134276762Y-65615057D01*
X133467238Y-65519819D02*
X133800571Y-65043628D01*
X134038666Y-65519819D02*
X134038666Y-64519819D01*
X134038666Y-64519819D02*
X133657714Y-64519819D01*
X133657714Y-64519819D02*
X133562476Y-64567438D01*
X133562476Y-64567438D02*
X133514857Y-64615057D01*
X133514857Y-64615057D02*
X133467238Y-64710295D01*
X133467238Y-64710295D02*
X133467238Y-64853152D01*
X133467238Y-64853152D02*
X133514857Y-64948390D01*
X133514857Y-64948390D02*
X133562476Y-64996009D01*
X133562476Y-64996009D02*
X133657714Y-65043628D01*
X133657714Y-65043628D02*
X134038666Y-65043628D01*
X133086285Y-64615057D02*
X133038666Y-64567438D01*
X133038666Y-64567438D02*
X132943428Y-64519819D01*
X132943428Y-64519819D02*
X132705333Y-64519819D01*
X132705333Y-64519819D02*
X132610095Y-64567438D01*
X132610095Y-64567438D02*
X132562476Y-64615057D01*
X132562476Y-64615057D02*
X132514857Y-64710295D01*
X132514857Y-64710295D02*
X132514857Y-64805533D01*
X132514857Y-64805533D02*
X132562476Y-64948390D01*
X132562476Y-64948390D02*
X133133904Y-65519819D01*
X133133904Y-65519819D02*
X132514857Y-65519819D01*
X132324381Y-65615057D02*
X131562476Y-65615057D01*
X130752952Y-65424580D02*
X130800571Y-65472200D01*
X130800571Y-65472200D02*
X130943428Y-65519819D01*
X130943428Y-65519819D02*
X131038666Y-65519819D01*
X131038666Y-65519819D02*
X131181523Y-65472200D01*
X131181523Y-65472200D02*
X131276761Y-65376961D01*
X131276761Y-65376961D02*
X131324380Y-65281723D01*
X131324380Y-65281723D02*
X131371999Y-65091247D01*
X131371999Y-65091247D02*
X131371999Y-64948390D01*
X131371999Y-64948390D02*
X131324380Y-64757914D01*
X131324380Y-64757914D02*
X131276761Y-64662676D01*
X131276761Y-64662676D02*
X131181523Y-64567438D01*
X131181523Y-64567438D02*
X131038666Y-64519819D01*
X131038666Y-64519819D02*
X130943428Y-64519819D01*
X130943428Y-64519819D02*
X130800571Y-64567438D01*
X130800571Y-64567438D02*
X130752952Y-64615057D01*
X130419618Y-64519819D02*
X129800571Y-64519819D01*
X129800571Y-64519819D02*
X130133904Y-64900771D01*
X130133904Y-64900771D02*
X129991047Y-64900771D01*
X129991047Y-64900771D02*
X129895809Y-64948390D01*
X129895809Y-64948390D02*
X129848190Y-64996009D01*
X129848190Y-64996009D02*
X129800571Y-65091247D01*
X129800571Y-65091247D02*
X129800571Y-65329342D01*
X129800571Y-65329342D02*
X129848190Y-65424580D01*
X129848190Y-65424580D02*
X129895809Y-65472200D01*
X129895809Y-65472200D02*
X129991047Y-65519819D01*
X129991047Y-65519819D02*
X130276761Y-65519819D01*
X130276761Y-65519819D02*
X130371999Y-65472200D01*
X130371999Y-65472200D02*
X130419618Y-65424580D01*
%TO.C,B-1*%
X107559637Y-28206416D02*
X107559637Y-28399940D01*
X107753161Y-28322531D02*
X107559637Y-28399940D01*
X107559637Y-28399940D02*
X107366114Y-28322531D01*
X107675752Y-28554759D02*
X107559637Y-28399940D01*
X107559637Y-28399940D02*
X107443523Y-28554759D01*
X106940361Y-28206416D02*
X106940361Y-28399940D01*
X107133885Y-28322531D02*
X106940361Y-28399940D01*
X106940361Y-28399940D02*
X106746838Y-28322531D01*
X107056476Y-28554759D02*
X106940361Y-28399940D01*
X106940361Y-28399940D02*
X106824247Y-28554759D01*
%TO.C,SW_R1_C1*%
X171943428Y-47472200D02*
X171800571Y-47519819D01*
X171800571Y-47519819D02*
X171562476Y-47519819D01*
X171562476Y-47519819D02*
X171467238Y-47472200D01*
X171467238Y-47472200D02*
X171419619Y-47424580D01*
X171419619Y-47424580D02*
X171372000Y-47329342D01*
X171372000Y-47329342D02*
X171372000Y-47234104D01*
X171372000Y-47234104D02*
X171419619Y-47138866D01*
X171419619Y-47138866D02*
X171467238Y-47091247D01*
X171467238Y-47091247D02*
X171562476Y-47043628D01*
X171562476Y-47043628D02*
X171752952Y-46996009D01*
X171752952Y-46996009D02*
X171848190Y-46948390D01*
X171848190Y-46948390D02*
X171895809Y-46900771D01*
X171895809Y-46900771D02*
X171943428Y-46805533D01*
X171943428Y-46805533D02*
X171943428Y-46710295D01*
X171943428Y-46710295D02*
X171895809Y-46615057D01*
X171895809Y-46615057D02*
X171848190Y-46567438D01*
X171848190Y-46567438D02*
X171752952Y-46519819D01*
X171752952Y-46519819D02*
X171514857Y-46519819D01*
X171514857Y-46519819D02*
X171372000Y-46567438D01*
X171038666Y-46519819D02*
X170800571Y-47519819D01*
X170800571Y-47519819D02*
X170610095Y-46805533D01*
X170610095Y-46805533D02*
X170419619Y-47519819D01*
X170419619Y-47519819D02*
X170181524Y-46519819D01*
X170038667Y-47615057D02*
X169276762Y-47615057D01*
X168467238Y-47519819D02*
X168800571Y-47043628D01*
X169038666Y-47519819D02*
X169038666Y-46519819D01*
X169038666Y-46519819D02*
X168657714Y-46519819D01*
X168657714Y-46519819D02*
X168562476Y-46567438D01*
X168562476Y-46567438D02*
X168514857Y-46615057D01*
X168514857Y-46615057D02*
X168467238Y-46710295D01*
X168467238Y-46710295D02*
X168467238Y-46853152D01*
X168467238Y-46853152D02*
X168514857Y-46948390D01*
X168514857Y-46948390D02*
X168562476Y-46996009D01*
X168562476Y-46996009D02*
X168657714Y-47043628D01*
X168657714Y-47043628D02*
X169038666Y-47043628D01*
X167514857Y-47519819D02*
X168086285Y-47519819D01*
X167800571Y-47519819D02*
X167800571Y-46519819D01*
X167800571Y-46519819D02*
X167895809Y-46662676D01*
X167895809Y-46662676D02*
X167991047Y-46757914D01*
X167991047Y-46757914D02*
X168086285Y-46805533D01*
X167324381Y-47615057D02*
X166562476Y-47615057D01*
X165752952Y-47424580D02*
X165800571Y-47472200D01*
X165800571Y-47472200D02*
X165943428Y-47519819D01*
X165943428Y-47519819D02*
X166038666Y-47519819D01*
X166038666Y-47519819D02*
X166181523Y-47472200D01*
X166181523Y-47472200D02*
X166276761Y-47376961D01*
X166276761Y-47376961D02*
X166324380Y-47281723D01*
X166324380Y-47281723D02*
X166371999Y-47091247D01*
X166371999Y-47091247D02*
X166371999Y-46948390D01*
X166371999Y-46948390D02*
X166324380Y-46757914D01*
X166324380Y-46757914D02*
X166276761Y-46662676D01*
X166276761Y-46662676D02*
X166181523Y-46567438D01*
X166181523Y-46567438D02*
X166038666Y-46519819D01*
X166038666Y-46519819D02*
X165943428Y-46519819D01*
X165943428Y-46519819D02*
X165800571Y-46567438D01*
X165800571Y-46567438D02*
X165752952Y-46615057D01*
X164800571Y-47519819D02*
X165371999Y-47519819D01*
X165086285Y-47519819D02*
X165086285Y-46519819D01*
X165086285Y-46519819D02*
X165181523Y-46662676D01*
X165181523Y-46662676D02*
X165276761Y-46757914D01*
X165276761Y-46757914D02*
X165371999Y-46805533D01*
D11*
%TO.C,U1*%
X104342380Y-61252607D02*
X104270952Y-61288321D01*
X104270952Y-61288321D02*
X104247142Y-61324035D01*
X104247142Y-61324035D02*
X104223333Y-61395464D01*
X104223333Y-61395464D02*
X104223333Y-61502607D01*
X104223333Y-61502607D02*
X104247142Y-61574035D01*
X104247142Y-61574035D02*
X104270952Y-61609750D01*
X104270952Y-61609750D02*
X104318571Y-61645464D01*
X104318571Y-61645464D02*
X104509047Y-61645464D01*
X104509047Y-61645464D02*
X104509047Y-60895464D01*
X104509047Y-60895464D02*
X104342380Y-60895464D01*
X104342380Y-60895464D02*
X104294761Y-60931178D01*
X104294761Y-60931178D02*
X104270952Y-60966892D01*
X104270952Y-60966892D02*
X104247142Y-61038321D01*
X104247142Y-61038321D02*
X104247142Y-61109750D01*
X104247142Y-61109750D02*
X104270952Y-61181178D01*
X104270952Y-61181178D02*
X104294761Y-61216892D01*
X104294761Y-61216892D02*
X104342380Y-61252607D01*
X104342380Y-61252607D02*
X104509047Y-61252607D01*
X103794761Y-60895464D02*
X103889999Y-60895464D01*
X103889999Y-60895464D02*
X103937618Y-60931178D01*
X103937618Y-60931178D02*
X103961428Y-60966892D01*
X103961428Y-60966892D02*
X104009047Y-61074035D01*
X104009047Y-61074035D02*
X104032856Y-61216892D01*
X104032856Y-61216892D02*
X104032856Y-61502607D01*
X104032856Y-61502607D02*
X104009047Y-61574035D01*
X104009047Y-61574035D02*
X103985237Y-61609750D01*
X103985237Y-61609750D02*
X103937618Y-61645464D01*
X103937618Y-61645464D02*
X103842380Y-61645464D01*
X103842380Y-61645464D02*
X103794761Y-61609750D01*
X103794761Y-61609750D02*
X103770952Y-61574035D01*
X103770952Y-61574035D02*
X103747142Y-61502607D01*
X103747142Y-61502607D02*
X103747142Y-61324035D01*
X103747142Y-61324035D02*
X103770952Y-61252607D01*
X103770952Y-61252607D02*
X103794761Y-61216892D01*
X103794761Y-61216892D02*
X103842380Y-61181178D01*
X103842380Y-61181178D02*
X103937618Y-61181178D01*
X103937618Y-61181178D02*
X103985237Y-61216892D01*
X103985237Y-61216892D02*
X104009047Y-61252607D01*
X104009047Y-61252607D02*
X104032856Y-61324035D01*
X104489165Y-40638964D02*
X104322499Y-41388964D01*
X104322499Y-41388964D02*
X104155832Y-40638964D01*
X103703452Y-41317535D02*
X103727261Y-41353250D01*
X103727261Y-41353250D02*
X103798690Y-41388964D01*
X103798690Y-41388964D02*
X103846309Y-41388964D01*
X103846309Y-41388964D02*
X103917737Y-41353250D01*
X103917737Y-41353250D02*
X103965356Y-41281821D01*
X103965356Y-41281821D02*
X103989166Y-41210392D01*
X103989166Y-41210392D02*
X104012975Y-41067535D01*
X104012975Y-41067535D02*
X104012975Y-40960392D01*
X104012975Y-40960392D02*
X103989166Y-40817535D01*
X103989166Y-40817535D02*
X103965356Y-40746107D01*
X103965356Y-40746107D02*
X103917737Y-40674678D01*
X103917737Y-40674678D02*
X103846309Y-40638964D01*
X103846309Y-40638964D02*
X103798690Y-40638964D01*
X103798690Y-40638964D02*
X103727261Y-40674678D01*
X103727261Y-40674678D02*
X103703452Y-40710392D01*
X103203452Y-41317535D02*
X103227261Y-41353250D01*
X103227261Y-41353250D02*
X103298690Y-41388964D01*
X103298690Y-41388964D02*
X103346309Y-41388964D01*
X103346309Y-41388964D02*
X103417737Y-41353250D01*
X103417737Y-41353250D02*
X103465356Y-41281821D01*
X103465356Y-41281821D02*
X103489166Y-41210392D01*
X103489166Y-41210392D02*
X103512975Y-41067535D01*
X103512975Y-41067535D02*
X103512975Y-40960392D01*
X103512975Y-40960392D02*
X103489166Y-40817535D01*
X103489166Y-40817535D02*
X103465356Y-40746107D01*
X103465356Y-40746107D02*
X103417737Y-40674678D01*
X103417737Y-40674678D02*
X103346309Y-40638964D01*
X103346309Y-40638964D02*
X103298690Y-40638964D01*
X103298690Y-40638964D02*
X103227261Y-40674678D01*
X103227261Y-40674678D02*
X103203452Y-40710392D01*
X104242619Y-51442035D02*
X104266428Y-51477750D01*
X104266428Y-51477750D02*
X104337857Y-51513464D01*
X104337857Y-51513464D02*
X104385476Y-51513464D01*
X104385476Y-51513464D02*
X104456904Y-51477750D01*
X104456904Y-51477750D02*
X104504523Y-51406321D01*
X104504523Y-51406321D02*
X104528333Y-51334892D01*
X104528333Y-51334892D02*
X104552142Y-51192035D01*
X104552142Y-51192035D02*
X104552142Y-51084892D01*
X104552142Y-51084892D02*
X104528333Y-50942035D01*
X104528333Y-50942035D02*
X104504523Y-50870607D01*
X104504523Y-50870607D02*
X104456904Y-50799178D01*
X104456904Y-50799178D02*
X104385476Y-50763464D01*
X104385476Y-50763464D02*
X104337857Y-50763464D01*
X104337857Y-50763464D02*
X104266428Y-50799178D01*
X104266428Y-50799178D02*
X104242619Y-50834892D01*
X103933095Y-50763464D02*
X103837857Y-50763464D01*
X103837857Y-50763464D02*
X103790238Y-50799178D01*
X103790238Y-50799178D02*
X103742619Y-50870607D01*
X103742619Y-50870607D02*
X103718809Y-51013464D01*
X103718809Y-51013464D02*
X103718809Y-51263464D01*
X103718809Y-51263464D02*
X103742619Y-51406321D01*
X103742619Y-51406321D02*
X103790238Y-51477750D01*
X103790238Y-51477750D02*
X103837857Y-51513464D01*
X103837857Y-51513464D02*
X103933095Y-51513464D01*
X103933095Y-51513464D02*
X103980714Y-51477750D01*
X103980714Y-51477750D02*
X104028333Y-51406321D01*
X104028333Y-51406321D02*
X104052142Y-51263464D01*
X104052142Y-51263464D02*
X104052142Y-51013464D01*
X104052142Y-51013464D02*
X104028333Y-50870607D01*
X104028333Y-50870607D02*
X103980714Y-50799178D01*
X103980714Y-50799178D02*
X103933095Y-50763464D01*
X103266428Y-51513464D02*
X103504523Y-51513464D01*
X103504523Y-51513464D02*
X103504523Y-50763464D01*
X103147380Y-50763464D02*
X102837856Y-50763464D01*
X102837856Y-50763464D02*
X103004523Y-51049178D01*
X103004523Y-51049178D02*
X102933094Y-51049178D01*
X102933094Y-51049178D02*
X102885475Y-51084892D01*
X102885475Y-51084892D02*
X102861666Y-51120607D01*
X102861666Y-51120607D02*
X102837856Y-51192035D01*
X102837856Y-51192035D02*
X102837856Y-51370607D01*
X102837856Y-51370607D02*
X102861666Y-51442035D01*
X102861666Y-51442035D02*
X102885475Y-51477750D01*
X102885475Y-51477750D02*
X102933094Y-51513464D01*
X102933094Y-51513464D02*
X103075951Y-51513464D01*
X103075951Y-51513464D02*
X103123570Y-51477750D01*
X103123570Y-51477750D02*
X103147380Y-51442035D01*
X104405880Y-58649107D02*
X104334452Y-58684821D01*
X104334452Y-58684821D02*
X104310642Y-58720535D01*
X104310642Y-58720535D02*
X104286833Y-58791964D01*
X104286833Y-58791964D02*
X104286833Y-58899107D01*
X104286833Y-58899107D02*
X104310642Y-58970535D01*
X104310642Y-58970535D02*
X104334452Y-59006250D01*
X104334452Y-59006250D02*
X104382071Y-59041964D01*
X104382071Y-59041964D02*
X104572547Y-59041964D01*
X104572547Y-59041964D02*
X104572547Y-58291964D01*
X104572547Y-58291964D02*
X104405880Y-58291964D01*
X104405880Y-58291964D02*
X104358261Y-58327678D01*
X104358261Y-58327678D02*
X104334452Y-58363392D01*
X104334452Y-58363392D02*
X104310642Y-58434821D01*
X104310642Y-58434821D02*
X104310642Y-58506250D01*
X104310642Y-58506250D02*
X104334452Y-58577678D01*
X104334452Y-58577678D02*
X104358261Y-58613392D01*
X104358261Y-58613392D02*
X104405880Y-58649107D01*
X104405880Y-58649107D02*
X104572547Y-58649107D01*
X104096356Y-58363392D02*
X104072547Y-58327678D01*
X104072547Y-58327678D02*
X104024928Y-58291964D01*
X104024928Y-58291964D02*
X103905880Y-58291964D01*
X103905880Y-58291964D02*
X103858261Y-58327678D01*
X103858261Y-58327678D02*
X103834452Y-58363392D01*
X103834452Y-58363392D02*
X103810642Y-58434821D01*
X103810642Y-58434821D02*
X103810642Y-58506250D01*
X103810642Y-58506250D02*
X103834452Y-58613392D01*
X103834452Y-58613392D02*
X104120166Y-59041964D01*
X104120166Y-59041964D02*
X103810642Y-59041964D01*
X104231238Y-33768964D02*
X104397904Y-33411821D01*
X104516952Y-33768964D02*
X104516952Y-33018964D01*
X104516952Y-33018964D02*
X104326476Y-33018964D01*
X104326476Y-33018964D02*
X104278857Y-33054678D01*
X104278857Y-33054678D02*
X104255047Y-33090392D01*
X104255047Y-33090392D02*
X104231238Y-33161821D01*
X104231238Y-33161821D02*
X104231238Y-33268964D01*
X104231238Y-33268964D02*
X104255047Y-33340392D01*
X104255047Y-33340392D02*
X104278857Y-33376107D01*
X104278857Y-33376107D02*
X104326476Y-33411821D01*
X104326476Y-33411821D02*
X104516952Y-33411821D01*
X104040761Y-33554678D02*
X103802666Y-33554678D01*
X104088380Y-33768964D02*
X103921714Y-33018964D01*
X103921714Y-33018964D02*
X103755047Y-33768964D01*
X103636000Y-33018964D02*
X103516952Y-33768964D01*
X103516952Y-33768964D02*
X103421714Y-33233250D01*
X103421714Y-33233250D02*
X103326476Y-33768964D01*
X103326476Y-33768964D02*
X103207429Y-33018964D01*
X104159809Y-38848964D02*
X104326475Y-38491821D01*
X104445523Y-38848964D02*
X104445523Y-38098964D01*
X104445523Y-38098964D02*
X104255047Y-38098964D01*
X104255047Y-38098964D02*
X104207428Y-38134678D01*
X104207428Y-38134678D02*
X104183618Y-38170392D01*
X104183618Y-38170392D02*
X104159809Y-38241821D01*
X104159809Y-38241821D02*
X104159809Y-38348964D01*
X104159809Y-38348964D02*
X104183618Y-38420392D01*
X104183618Y-38420392D02*
X104207428Y-38456107D01*
X104207428Y-38456107D02*
X104255047Y-38491821D01*
X104255047Y-38491821D02*
X104445523Y-38491821D01*
X103969332Y-38813250D02*
X103897904Y-38848964D01*
X103897904Y-38848964D02*
X103778856Y-38848964D01*
X103778856Y-38848964D02*
X103731237Y-38813250D01*
X103731237Y-38813250D02*
X103707428Y-38777535D01*
X103707428Y-38777535D02*
X103683618Y-38706107D01*
X103683618Y-38706107D02*
X103683618Y-38634678D01*
X103683618Y-38634678D02*
X103707428Y-38563250D01*
X103707428Y-38563250D02*
X103731237Y-38527535D01*
X103731237Y-38527535D02*
X103778856Y-38491821D01*
X103778856Y-38491821D02*
X103874094Y-38456107D01*
X103874094Y-38456107D02*
X103921713Y-38420392D01*
X103921713Y-38420392D02*
X103945523Y-38384678D01*
X103945523Y-38384678D02*
X103969332Y-38313250D01*
X103969332Y-38313250D02*
X103969332Y-38241821D01*
X103969332Y-38241821D02*
X103945523Y-38170392D01*
X103945523Y-38170392D02*
X103921713Y-38134678D01*
X103921713Y-38134678D02*
X103874094Y-38098964D01*
X103874094Y-38098964D02*
X103755047Y-38098964D01*
X103755047Y-38098964D02*
X103683618Y-38134678D01*
X103540761Y-38098964D02*
X103255047Y-38098964D01*
X103397904Y-38848964D02*
X103397904Y-38098964D01*
X104203452Y-35531178D02*
X104251071Y-35495464D01*
X104251071Y-35495464D02*
X104322500Y-35495464D01*
X104322500Y-35495464D02*
X104393928Y-35531178D01*
X104393928Y-35531178D02*
X104441547Y-35602607D01*
X104441547Y-35602607D02*
X104465357Y-35674035D01*
X104465357Y-35674035D02*
X104489166Y-35816892D01*
X104489166Y-35816892D02*
X104489166Y-35924035D01*
X104489166Y-35924035D02*
X104465357Y-36066892D01*
X104465357Y-36066892D02*
X104441547Y-36138321D01*
X104441547Y-36138321D02*
X104393928Y-36209750D01*
X104393928Y-36209750D02*
X104322500Y-36245464D01*
X104322500Y-36245464D02*
X104274881Y-36245464D01*
X104274881Y-36245464D02*
X104203452Y-36209750D01*
X104203452Y-36209750D02*
X104179643Y-36174035D01*
X104179643Y-36174035D02*
X104179643Y-35924035D01*
X104179643Y-35924035D02*
X104274881Y-35924035D01*
X103965357Y-36245464D02*
X103965357Y-35495464D01*
X103965357Y-35495464D02*
X103679643Y-36245464D01*
X103679643Y-36245464D02*
X103679643Y-35495464D01*
X103441547Y-36245464D02*
X103441547Y-35495464D01*
X103441547Y-35495464D02*
X103322499Y-35495464D01*
X103322499Y-35495464D02*
X103251071Y-35531178D01*
X103251071Y-35531178D02*
X103203452Y-35602607D01*
X103203452Y-35602607D02*
X103179642Y-35674035D01*
X103179642Y-35674035D02*
X103155833Y-35816892D01*
X103155833Y-35816892D02*
X103155833Y-35924035D01*
X103155833Y-35924035D02*
X103179642Y-36066892D01*
X103179642Y-36066892D02*
X103203452Y-36138321D01*
X103203452Y-36138321D02*
X103251071Y-36209750D01*
X103251071Y-36209750D02*
X103322499Y-36245464D01*
X103322499Y-36245464D02*
X103441547Y-36245464D01*
X104192619Y-53954035D02*
X104216428Y-53989750D01*
X104216428Y-53989750D02*
X104287857Y-54025464D01*
X104287857Y-54025464D02*
X104335476Y-54025464D01*
X104335476Y-54025464D02*
X104406904Y-53989750D01*
X104406904Y-53989750D02*
X104454523Y-53918321D01*
X104454523Y-53918321D02*
X104478333Y-53846892D01*
X104478333Y-53846892D02*
X104502142Y-53704035D01*
X104502142Y-53704035D02*
X104502142Y-53596892D01*
X104502142Y-53596892D02*
X104478333Y-53454035D01*
X104478333Y-53454035D02*
X104454523Y-53382607D01*
X104454523Y-53382607D02*
X104406904Y-53311178D01*
X104406904Y-53311178D02*
X104335476Y-53275464D01*
X104335476Y-53275464D02*
X104287857Y-53275464D01*
X104287857Y-53275464D02*
X104216428Y-53311178D01*
X104216428Y-53311178D02*
X104192619Y-53346892D01*
X103883095Y-53275464D02*
X103787857Y-53275464D01*
X103787857Y-53275464D02*
X103740238Y-53311178D01*
X103740238Y-53311178D02*
X103692619Y-53382607D01*
X103692619Y-53382607D02*
X103668809Y-53525464D01*
X103668809Y-53525464D02*
X103668809Y-53775464D01*
X103668809Y-53775464D02*
X103692619Y-53918321D01*
X103692619Y-53918321D02*
X103740238Y-53989750D01*
X103740238Y-53989750D02*
X103787857Y-54025464D01*
X103787857Y-54025464D02*
X103883095Y-54025464D01*
X103883095Y-54025464D02*
X103930714Y-53989750D01*
X103930714Y-53989750D02*
X103978333Y-53918321D01*
X103978333Y-53918321D02*
X104002142Y-53775464D01*
X104002142Y-53775464D02*
X104002142Y-53525464D01*
X104002142Y-53525464D02*
X103978333Y-53382607D01*
X103978333Y-53382607D02*
X103930714Y-53311178D01*
X103930714Y-53311178D02*
X103883095Y-53275464D01*
X103216428Y-54025464D02*
X103454523Y-54025464D01*
X103454523Y-54025464D02*
X103454523Y-53275464D01*
X102835475Y-53525464D02*
X102835475Y-54025464D01*
X102954523Y-53239750D02*
X103073570Y-53775464D01*
X103073570Y-53775464D02*
X102764047Y-53775464D01*
D10*
D11*
X104242619Y-43892035D02*
X104266428Y-43927750D01*
X104266428Y-43927750D02*
X104337857Y-43963464D01*
X104337857Y-43963464D02*
X104385476Y-43963464D01*
X104385476Y-43963464D02*
X104456904Y-43927750D01*
X104456904Y-43927750D02*
X104504523Y-43856321D01*
X104504523Y-43856321D02*
X104528333Y-43784892D01*
X104528333Y-43784892D02*
X104552142Y-43642035D01*
X104552142Y-43642035D02*
X104552142Y-43534892D01*
X104552142Y-43534892D02*
X104528333Y-43392035D01*
X104528333Y-43392035D02*
X104504523Y-43320607D01*
X104504523Y-43320607D02*
X104456904Y-43249178D01*
X104456904Y-43249178D02*
X104385476Y-43213464D01*
X104385476Y-43213464D02*
X104337857Y-43213464D01*
X104337857Y-43213464D02*
X104266428Y-43249178D01*
X104266428Y-43249178D02*
X104242619Y-43284892D01*
X103933095Y-43213464D02*
X103837857Y-43213464D01*
X103837857Y-43213464D02*
X103790238Y-43249178D01*
X103790238Y-43249178D02*
X103742619Y-43320607D01*
X103742619Y-43320607D02*
X103718809Y-43463464D01*
X103718809Y-43463464D02*
X103718809Y-43713464D01*
X103718809Y-43713464D02*
X103742619Y-43856321D01*
X103742619Y-43856321D02*
X103790238Y-43927750D01*
X103790238Y-43927750D02*
X103837857Y-43963464D01*
X103837857Y-43963464D02*
X103933095Y-43963464D01*
X103933095Y-43963464D02*
X103980714Y-43927750D01*
X103980714Y-43927750D02*
X104028333Y-43856321D01*
X104028333Y-43856321D02*
X104052142Y-43713464D01*
X104052142Y-43713464D02*
X104052142Y-43463464D01*
X104052142Y-43463464D02*
X104028333Y-43320607D01*
X104028333Y-43320607D02*
X103980714Y-43249178D01*
X103980714Y-43249178D02*
X103933095Y-43213464D01*
X103266428Y-43963464D02*
X103504523Y-43963464D01*
X103504523Y-43963464D02*
X103504523Y-43213464D01*
X103004523Y-43213464D02*
X102956904Y-43213464D01*
X102956904Y-43213464D02*
X102909285Y-43249178D01*
X102909285Y-43249178D02*
X102885475Y-43284892D01*
X102885475Y-43284892D02*
X102861666Y-43356321D01*
X102861666Y-43356321D02*
X102837856Y-43499178D01*
X102837856Y-43499178D02*
X102837856Y-43677750D01*
X102837856Y-43677750D02*
X102861666Y-43820607D01*
X102861666Y-43820607D02*
X102885475Y-43892035D01*
X102885475Y-43892035D02*
X102909285Y-43927750D01*
X102909285Y-43927750D02*
X102956904Y-43963464D01*
X102956904Y-43963464D02*
X103004523Y-43963464D01*
X103004523Y-43963464D02*
X103052142Y-43927750D01*
X103052142Y-43927750D02*
X103075951Y-43892035D01*
X103075951Y-43892035D02*
X103099761Y-43820607D01*
X103099761Y-43820607D02*
X103123570Y-43677750D01*
X103123570Y-43677750D02*
X103123570Y-43499178D01*
X103123570Y-43499178D02*
X103099761Y-43356321D01*
X103099761Y-43356321D02*
X103075951Y-43284892D01*
X103075951Y-43284892D02*
X103052142Y-43249178D01*
X103052142Y-43249178D02*
X103004523Y-43213464D01*
X104242619Y-46397535D02*
X104266428Y-46433250D01*
X104266428Y-46433250D02*
X104337857Y-46468964D01*
X104337857Y-46468964D02*
X104385476Y-46468964D01*
X104385476Y-46468964D02*
X104456904Y-46433250D01*
X104456904Y-46433250D02*
X104504523Y-46361821D01*
X104504523Y-46361821D02*
X104528333Y-46290392D01*
X104528333Y-46290392D02*
X104552142Y-46147535D01*
X104552142Y-46147535D02*
X104552142Y-46040392D01*
X104552142Y-46040392D02*
X104528333Y-45897535D01*
X104528333Y-45897535D02*
X104504523Y-45826107D01*
X104504523Y-45826107D02*
X104456904Y-45754678D01*
X104456904Y-45754678D02*
X104385476Y-45718964D01*
X104385476Y-45718964D02*
X104337857Y-45718964D01*
X104337857Y-45718964D02*
X104266428Y-45754678D01*
X104266428Y-45754678D02*
X104242619Y-45790392D01*
X103933095Y-45718964D02*
X103837857Y-45718964D01*
X103837857Y-45718964D02*
X103790238Y-45754678D01*
X103790238Y-45754678D02*
X103742619Y-45826107D01*
X103742619Y-45826107D02*
X103718809Y-45968964D01*
X103718809Y-45968964D02*
X103718809Y-46218964D01*
X103718809Y-46218964D02*
X103742619Y-46361821D01*
X103742619Y-46361821D02*
X103790238Y-46433250D01*
X103790238Y-46433250D02*
X103837857Y-46468964D01*
X103837857Y-46468964D02*
X103933095Y-46468964D01*
X103933095Y-46468964D02*
X103980714Y-46433250D01*
X103980714Y-46433250D02*
X104028333Y-46361821D01*
X104028333Y-46361821D02*
X104052142Y-46218964D01*
X104052142Y-46218964D02*
X104052142Y-45968964D01*
X104052142Y-45968964D02*
X104028333Y-45826107D01*
X104028333Y-45826107D02*
X103980714Y-45754678D01*
X103980714Y-45754678D02*
X103933095Y-45718964D01*
X103266428Y-46468964D02*
X103504523Y-46468964D01*
X103504523Y-46468964D02*
X103504523Y-45718964D01*
X102837856Y-46468964D02*
X103123570Y-46468964D01*
X102980713Y-46468964D02*
X102980713Y-45718964D01*
X102980713Y-45718964D02*
X103028332Y-45826107D01*
X103028332Y-45826107D02*
X103075951Y-45897535D01*
X103075951Y-45897535D02*
X103123570Y-45933250D01*
X104242619Y-48942035D02*
X104266428Y-48977750D01*
X104266428Y-48977750D02*
X104337857Y-49013464D01*
X104337857Y-49013464D02*
X104385476Y-49013464D01*
X104385476Y-49013464D02*
X104456904Y-48977750D01*
X104456904Y-48977750D02*
X104504523Y-48906321D01*
X104504523Y-48906321D02*
X104528333Y-48834892D01*
X104528333Y-48834892D02*
X104552142Y-48692035D01*
X104552142Y-48692035D02*
X104552142Y-48584892D01*
X104552142Y-48584892D02*
X104528333Y-48442035D01*
X104528333Y-48442035D02*
X104504523Y-48370607D01*
X104504523Y-48370607D02*
X104456904Y-48299178D01*
X104456904Y-48299178D02*
X104385476Y-48263464D01*
X104385476Y-48263464D02*
X104337857Y-48263464D01*
X104337857Y-48263464D02*
X104266428Y-48299178D01*
X104266428Y-48299178D02*
X104242619Y-48334892D01*
X103933095Y-48263464D02*
X103837857Y-48263464D01*
X103837857Y-48263464D02*
X103790238Y-48299178D01*
X103790238Y-48299178D02*
X103742619Y-48370607D01*
X103742619Y-48370607D02*
X103718809Y-48513464D01*
X103718809Y-48513464D02*
X103718809Y-48763464D01*
X103718809Y-48763464D02*
X103742619Y-48906321D01*
X103742619Y-48906321D02*
X103790238Y-48977750D01*
X103790238Y-48977750D02*
X103837857Y-49013464D01*
X103837857Y-49013464D02*
X103933095Y-49013464D01*
X103933095Y-49013464D02*
X103980714Y-48977750D01*
X103980714Y-48977750D02*
X104028333Y-48906321D01*
X104028333Y-48906321D02*
X104052142Y-48763464D01*
X104052142Y-48763464D02*
X104052142Y-48513464D01*
X104052142Y-48513464D02*
X104028333Y-48370607D01*
X104028333Y-48370607D02*
X103980714Y-48299178D01*
X103980714Y-48299178D02*
X103933095Y-48263464D01*
X103266428Y-49013464D02*
X103504523Y-49013464D01*
X103504523Y-49013464D02*
X103504523Y-48263464D01*
X103123570Y-48334892D02*
X103099761Y-48299178D01*
X103099761Y-48299178D02*
X103052142Y-48263464D01*
X103052142Y-48263464D02*
X102933094Y-48263464D01*
X102933094Y-48263464D02*
X102885475Y-48299178D01*
X102885475Y-48299178D02*
X102861666Y-48334892D01*
X102861666Y-48334892D02*
X102837856Y-48406321D01*
X102837856Y-48406321D02*
X102837856Y-48477750D01*
X102837856Y-48477750D02*
X102861666Y-48584892D01*
X102861666Y-48584892D02*
X103147380Y-49013464D01*
X103147380Y-49013464D02*
X102837856Y-49013464D01*
X104242619Y-56592035D02*
X104266428Y-56627750D01*
X104266428Y-56627750D02*
X104337857Y-56663464D01*
X104337857Y-56663464D02*
X104385476Y-56663464D01*
X104385476Y-56663464D02*
X104456904Y-56627750D01*
X104456904Y-56627750D02*
X104504523Y-56556321D01*
X104504523Y-56556321D02*
X104528333Y-56484892D01*
X104528333Y-56484892D02*
X104552142Y-56342035D01*
X104552142Y-56342035D02*
X104552142Y-56234892D01*
X104552142Y-56234892D02*
X104528333Y-56092035D01*
X104528333Y-56092035D02*
X104504523Y-56020607D01*
X104504523Y-56020607D02*
X104456904Y-55949178D01*
X104456904Y-55949178D02*
X104385476Y-55913464D01*
X104385476Y-55913464D02*
X104337857Y-55913464D01*
X104337857Y-55913464D02*
X104266428Y-55949178D01*
X104266428Y-55949178D02*
X104242619Y-55984892D01*
X103933095Y-55913464D02*
X103837857Y-55913464D01*
X103837857Y-55913464D02*
X103790238Y-55949178D01*
X103790238Y-55949178D02*
X103742619Y-56020607D01*
X103742619Y-56020607D02*
X103718809Y-56163464D01*
X103718809Y-56163464D02*
X103718809Y-56413464D01*
X103718809Y-56413464D02*
X103742619Y-56556321D01*
X103742619Y-56556321D02*
X103790238Y-56627750D01*
X103790238Y-56627750D02*
X103837857Y-56663464D01*
X103837857Y-56663464D02*
X103933095Y-56663464D01*
X103933095Y-56663464D02*
X103980714Y-56627750D01*
X103980714Y-56627750D02*
X104028333Y-56556321D01*
X104028333Y-56556321D02*
X104052142Y-56413464D01*
X104052142Y-56413464D02*
X104052142Y-56163464D01*
X104052142Y-56163464D02*
X104028333Y-56020607D01*
X104028333Y-56020607D02*
X103980714Y-55949178D01*
X103980714Y-55949178D02*
X103933095Y-55913464D01*
X103266428Y-56663464D02*
X103504523Y-56663464D01*
X103504523Y-56663464D02*
X103504523Y-55913464D01*
X102861666Y-55913464D02*
X103099761Y-55913464D01*
X103099761Y-55913464D02*
X103123570Y-56270607D01*
X103123570Y-56270607D02*
X103099761Y-56234892D01*
X103099761Y-56234892D02*
X103052142Y-56199178D01*
X103052142Y-56199178D02*
X102933094Y-56199178D01*
X102933094Y-56199178D02*
X102885475Y-56234892D01*
X102885475Y-56234892D02*
X102861666Y-56270607D01*
X102861666Y-56270607D02*
X102837856Y-56342035D01*
X102837856Y-56342035D02*
X102837856Y-56520607D01*
X102837856Y-56520607D02*
X102861666Y-56592035D01*
X102861666Y-56592035D02*
X102885475Y-56627750D01*
X102885475Y-56627750D02*
X102933094Y-56663464D01*
X102933094Y-56663464D02*
X103052142Y-56663464D01*
X103052142Y-56663464D02*
X103099761Y-56627750D01*
X103099761Y-56627750D02*
X103123570Y-56592035D01*
D10*
%TO.C,SW_R0_C4*%
X119443428Y-31872200D02*
X119300571Y-31919819D01*
X119300571Y-31919819D02*
X119062476Y-31919819D01*
X119062476Y-31919819D02*
X118967238Y-31872200D01*
X118967238Y-31872200D02*
X118919619Y-31824580D01*
X118919619Y-31824580D02*
X118872000Y-31729342D01*
X118872000Y-31729342D02*
X118872000Y-31634104D01*
X118872000Y-31634104D02*
X118919619Y-31538866D01*
X118919619Y-31538866D02*
X118967238Y-31491247D01*
X118967238Y-31491247D02*
X119062476Y-31443628D01*
X119062476Y-31443628D02*
X119252952Y-31396009D01*
X119252952Y-31396009D02*
X119348190Y-31348390D01*
X119348190Y-31348390D02*
X119395809Y-31300771D01*
X119395809Y-31300771D02*
X119443428Y-31205533D01*
X119443428Y-31205533D02*
X119443428Y-31110295D01*
X119443428Y-31110295D02*
X119395809Y-31015057D01*
X119395809Y-31015057D02*
X119348190Y-30967438D01*
X119348190Y-30967438D02*
X119252952Y-30919819D01*
X119252952Y-30919819D02*
X119014857Y-30919819D01*
X119014857Y-30919819D02*
X118872000Y-30967438D01*
X118538666Y-30919819D02*
X118300571Y-31919819D01*
X118300571Y-31919819D02*
X118110095Y-31205533D01*
X118110095Y-31205533D02*
X117919619Y-31919819D01*
X117919619Y-31919819D02*
X117681524Y-30919819D01*
X117538667Y-32015057D02*
X116776762Y-32015057D01*
X115967238Y-31919819D02*
X116300571Y-31443628D01*
X116538666Y-31919819D02*
X116538666Y-30919819D01*
X116538666Y-30919819D02*
X116157714Y-30919819D01*
X116157714Y-30919819D02*
X116062476Y-30967438D01*
X116062476Y-30967438D02*
X116014857Y-31015057D01*
X116014857Y-31015057D02*
X115967238Y-31110295D01*
X115967238Y-31110295D02*
X115967238Y-31253152D01*
X115967238Y-31253152D02*
X116014857Y-31348390D01*
X116014857Y-31348390D02*
X116062476Y-31396009D01*
X116062476Y-31396009D02*
X116157714Y-31443628D01*
X116157714Y-31443628D02*
X116538666Y-31443628D01*
X115348190Y-30919819D02*
X115252952Y-30919819D01*
X115252952Y-30919819D02*
X115157714Y-30967438D01*
X115157714Y-30967438D02*
X115110095Y-31015057D01*
X115110095Y-31015057D02*
X115062476Y-31110295D01*
X115062476Y-31110295D02*
X115014857Y-31300771D01*
X115014857Y-31300771D02*
X115014857Y-31538866D01*
X115014857Y-31538866D02*
X115062476Y-31729342D01*
X115062476Y-31729342D02*
X115110095Y-31824580D01*
X115110095Y-31824580D02*
X115157714Y-31872200D01*
X115157714Y-31872200D02*
X115252952Y-31919819D01*
X115252952Y-31919819D02*
X115348190Y-31919819D01*
X115348190Y-31919819D02*
X115443428Y-31872200D01*
X115443428Y-31872200D02*
X115491047Y-31824580D01*
X115491047Y-31824580D02*
X115538666Y-31729342D01*
X115538666Y-31729342D02*
X115586285Y-31538866D01*
X115586285Y-31538866D02*
X115586285Y-31300771D01*
X115586285Y-31300771D02*
X115538666Y-31110295D01*
X115538666Y-31110295D02*
X115491047Y-31015057D01*
X115491047Y-31015057D02*
X115443428Y-30967438D01*
X115443428Y-30967438D02*
X115348190Y-30919819D01*
X114824381Y-32015057D02*
X114062476Y-32015057D01*
X113252952Y-31824580D02*
X113300571Y-31872200D01*
X113300571Y-31872200D02*
X113443428Y-31919819D01*
X113443428Y-31919819D02*
X113538666Y-31919819D01*
X113538666Y-31919819D02*
X113681523Y-31872200D01*
X113681523Y-31872200D02*
X113776761Y-31776961D01*
X113776761Y-31776961D02*
X113824380Y-31681723D01*
X113824380Y-31681723D02*
X113871999Y-31491247D01*
X113871999Y-31491247D02*
X113871999Y-31348390D01*
X113871999Y-31348390D02*
X113824380Y-31157914D01*
X113824380Y-31157914D02*
X113776761Y-31062676D01*
X113776761Y-31062676D02*
X113681523Y-30967438D01*
X113681523Y-30967438D02*
X113538666Y-30919819D01*
X113538666Y-30919819D02*
X113443428Y-30919819D01*
X113443428Y-30919819D02*
X113300571Y-30967438D01*
X113300571Y-30967438D02*
X113252952Y-31015057D01*
X112395809Y-31253152D02*
X112395809Y-31919819D01*
X112633904Y-30872200D02*
X112871999Y-31586485D01*
X112871999Y-31586485D02*
X112252952Y-31586485D01*
%TO.C,SW_R0_C0*%
X189443428Y-37972200D02*
X189300571Y-38019819D01*
X189300571Y-38019819D02*
X189062476Y-38019819D01*
X189062476Y-38019819D02*
X188967238Y-37972200D01*
X188967238Y-37972200D02*
X188919619Y-37924580D01*
X188919619Y-37924580D02*
X188872000Y-37829342D01*
X188872000Y-37829342D02*
X188872000Y-37734104D01*
X188872000Y-37734104D02*
X188919619Y-37638866D01*
X188919619Y-37638866D02*
X188967238Y-37591247D01*
X188967238Y-37591247D02*
X189062476Y-37543628D01*
X189062476Y-37543628D02*
X189252952Y-37496009D01*
X189252952Y-37496009D02*
X189348190Y-37448390D01*
X189348190Y-37448390D02*
X189395809Y-37400771D01*
X189395809Y-37400771D02*
X189443428Y-37305533D01*
X189443428Y-37305533D02*
X189443428Y-37210295D01*
X189443428Y-37210295D02*
X189395809Y-37115057D01*
X189395809Y-37115057D02*
X189348190Y-37067438D01*
X189348190Y-37067438D02*
X189252952Y-37019819D01*
X189252952Y-37019819D02*
X189014857Y-37019819D01*
X189014857Y-37019819D02*
X188872000Y-37067438D01*
X188538666Y-37019819D02*
X188300571Y-38019819D01*
X188300571Y-38019819D02*
X188110095Y-37305533D01*
X188110095Y-37305533D02*
X187919619Y-38019819D01*
X187919619Y-38019819D02*
X187681524Y-37019819D01*
X187538667Y-38115057D02*
X186776762Y-38115057D01*
X185967238Y-38019819D02*
X186300571Y-37543628D01*
X186538666Y-38019819D02*
X186538666Y-37019819D01*
X186538666Y-37019819D02*
X186157714Y-37019819D01*
X186157714Y-37019819D02*
X186062476Y-37067438D01*
X186062476Y-37067438D02*
X186014857Y-37115057D01*
X186014857Y-37115057D02*
X185967238Y-37210295D01*
X185967238Y-37210295D02*
X185967238Y-37353152D01*
X185967238Y-37353152D02*
X186014857Y-37448390D01*
X186014857Y-37448390D02*
X186062476Y-37496009D01*
X186062476Y-37496009D02*
X186157714Y-37543628D01*
X186157714Y-37543628D02*
X186538666Y-37543628D01*
X185348190Y-37019819D02*
X185252952Y-37019819D01*
X185252952Y-37019819D02*
X185157714Y-37067438D01*
X185157714Y-37067438D02*
X185110095Y-37115057D01*
X185110095Y-37115057D02*
X185062476Y-37210295D01*
X185062476Y-37210295D02*
X185014857Y-37400771D01*
X185014857Y-37400771D02*
X185014857Y-37638866D01*
X185014857Y-37638866D02*
X185062476Y-37829342D01*
X185062476Y-37829342D02*
X185110095Y-37924580D01*
X185110095Y-37924580D02*
X185157714Y-37972200D01*
X185157714Y-37972200D02*
X185252952Y-38019819D01*
X185252952Y-38019819D02*
X185348190Y-38019819D01*
X185348190Y-38019819D02*
X185443428Y-37972200D01*
X185443428Y-37972200D02*
X185491047Y-37924580D01*
X185491047Y-37924580D02*
X185538666Y-37829342D01*
X185538666Y-37829342D02*
X185586285Y-37638866D01*
X185586285Y-37638866D02*
X185586285Y-37400771D01*
X185586285Y-37400771D02*
X185538666Y-37210295D01*
X185538666Y-37210295D02*
X185491047Y-37115057D01*
X185491047Y-37115057D02*
X185443428Y-37067438D01*
X185443428Y-37067438D02*
X185348190Y-37019819D01*
X184824381Y-38115057D02*
X184062476Y-38115057D01*
X183252952Y-37924580D02*
X183300571Y-37972200D01*
X183300571Y-37972200D02*
X183443428Y-38019819D01*
X183443428Y-38019819D02*
X183538666Y-38019819D01*
X183538666Y-38019819D02*
X183681523Y-37972200D01*
X183681523Y-37972200D02*
X183776761Y-37876961D01*
X183776761Y-37876961D02*
X183824380Y-37781723D01*
X183824380Y-37781723D02*
X183871999Y-37591247D01*
X183871999Y-37591247D02*
X183871999Y-37448390D01*
X183871999Y-37448390D02*
X183824380Y-37257914D01*
X183824380Y-37257914D02*
X183776761Y-37162676D01*
X183776761Y-37162676D02*
X183681523Y-37067438D01*
X183681523Y-37067438D02*
X183538666Y-37019819D01*
X183538666Y-37019819D02*
X183443428Y-37019819D01*
X183443428Y-37019819D02*
X183300571Y-37067438D01*
X183300571Y-37067438D02*
X183252952Y-37115057D01*
X182633904Y-37019819D02*
X182538666Y-37019819D01*
X182538666Y-37019819D02*
X182443428Y-37067438D01*
X182443428Y-37067438D02*
X182395809Y-37115057D01*
X182395809Y-37115057D02*
X182348190Y-37210295D01*
X182348190Y-37210295D02*
X182300571Y-37400771D01*
X182300571Y-37400771D02*
X182300571Y-37638866D01*
X182300571Y-37638866D02*
X182348190Y-37829342D01*
X182348190Y-37829342D02*
X182395809Y-37924580D01*
X182395809Y-37924580D02*
X182443428Y-37972200D01*
X182443428Y-37972200D02*
X182538666Y-38019819D01*
X182538666Y-38019819D02*
X182633904Y-38019819D01*
X182633904Y-38019819D02*
X182729142Y-37972200D01*
X182729142Y-37972200D02*
X182776761Y-37924580D01*
X182776761Y-37924580D02*
X182824380Y-37829342D01*
X182824380Y-37829342D02*
X182871999Y-37638866D01*
X182871999Y-37638866D02*
X182871999Y-37400771D01*
X182871999Y-37400771D02*
X182824380Y-37210295D01*
X182824380Y-37210295D02*
X182776761Y-37115057D01*
X182776761Y-37115057D02*
X182729142Y-37067438D01*
X182729142Y-37067438D02*
X182633904Y-37019819D01*
%TO.C,SW_R1_C2*%
X154443428Y-43082200D02*
X154300571Y-43129819D01*
X154300571Y-43129819D02*
X154062476Y-43129819D01*
X154062476Y-43129819D02*
X153967238Y-43082200D01*
X153967238Y-43082200D02*
X153919619Y-43034580D01*
X153919619Y-43034580D02*
X153872000Y-42939342D01*
X153872000Y-42939342D02*
X153872000Y-42844104D01*
X153872000Y-42844104D02*
X153919619Y-42748866D01*
X153919619Y-42748866D02*
X153967238Y-42701247D01*
X153967238Y-42701247D02*
X154062476Y-42653628D01*
X154062476Y-42653628D02*
X154252952Y-42606009D01*
X154252952Y-42606009D02*
X154348190Y-42558390D01*
X154348190Y-42558390D02*
X154395809Y-42510771D01*
X154395809Y-42510771D02*
X154443428Y-42415533D01*
X154443428Y-42415533D02*
X154443428Y-42320295D01*
X154443428Y-42320295D02*
X154395809Y-42225057D01*
X154395809Y-42225057D02*
X154348190Y-42177438D01*
X154348190Y-42177438D02*
X154252952Y-42129819D01*
X154252952Y-42129819D02*
X154014857Y-42129819D01*
X154014857Y-42129819D02*
X153872000Y-42177438D01*
X153538666Y-42129819D02*
X153300571Y-43129819D01*
X153300571Y-43129819D02*
X153110095Y-42415533D01*
X153110095Y-42415533D02*
X152919619Y-43129819D01*
X152919619Y-43129819D02*
X152681524Y-42129819D01*
X152538667Y-43225057D02*
X151776762Y-43225057D01*
X150967238Y-43129819D02*
X151300571Y-42653628D01*
X151538666Y-43129819D02*
X151538666Y-42129819D01*
X151538666Y-42129819D02*
X151157714Y-42129819D01*
X151157714Y-42129819D02*
X151062476Y-42177438D01*
X151062476Y-42177438D02*
X151014857Y-42225057D01*
X151014857Y-42225057D02*
X150967238Y-42320295D01*
X150967238Y-42320295D02*
X150967238Y-42463152D01*
X150967238Y-42463152D02*
X151014857Y-42558390D01*
X151014857Y-42558390D02*
X151062476Y-42606009D01*
X151062476Y-42606009D02*
X151157714Y-42653628D01*
X151157714Y-42653628D02*
X151538666Y-42653628D01*
X150014857Y-43129819D02*
X150586285Y-43129819D01*
X150300571Y-43129819D02*
X150300571Y-42129819D01*
X150300571Y-42129819D02*
X150395809Y-42272676D01*
X150395809Y-42272676D02*
X150491047Y-42367914D01*
X150491047Y-42367914D02*
X150586285Y-42415533D01*
X149824381Y-43225057D02*
X149062476Y-43225057D01*
X148252952Y-43034580D02*
X148300571Y-43082200D01*
X148300571Y-43082200D02*
X148443428Y-43129819D01*
X148443428Y-43129819D02*
X148538666Y-43129819D01*
X148538666Y-43129819D02*
X148681523Y-43082200D01*
X148681523Y-43082200D02*
X148776761Y-42986961D01*
X148776761Y-42986961D02*
X148824380Y-42891723D01*
X148824380Y-42891723D02*
X148871999Y-42701247D01*
X148871999Y-42701247D02*
X148871999Y-42558390D01*
X148871999Y-42558390D02*
X148824380Y-42367914D01*
X148824380Y-42367914D02*
X148776761Y-42272676D01*
X148776761Y-42272676D02*
X148681523Y-42177438D01*
X148681523Y-42177438D02*
X148538666Y-42129819D01*
X148538666Y-42129819D02*
X148443428Y-42129819D01*
X148443428Y-42129819D02*
X148300571Y-42177438D01*
X148300571Y-42177438D02*
X148252952Y-42225057D01*
X147871999Y-42225057D02*
X147824380Y-42177438D01*
X147824380Y-42177438D02*
X147729142Y-42129819D01*
X147729142Y-42129819D02*
X147491047Y-42129819D01*
X147491047Y-42129819D02*
X147395809Y-42177438D01*
X147395809Y-42177438D02*
X147348190Y-42225057D01*
X147348190Y-42225057D02*
X147300571Y-42320295D01*
X147300571Y-42320295D02*
X147300571Y-42415533D01*
X147300571Y-42415533D02*
X147348190Y-42558390D01*
X147348190Y-42558390D02*
X147919618Y-43129819D01*
X147919618Y-43129819D02*
X147300571Y-43129819D01*
%TO.C,SW_R0_C1*%
X171943428Y-29472200D02*
X171800571Y-29519819D01*
X171800571Y-29519819D02*
X171562476Y-29519819D01*
X171562476Y-29519819D02*
X171467238Y-29472200D01*
X171467238Y-29472200D02*
X171419619Y-29424580D01*
X171419619Y-29424580D02*
X171372000Y-29329342D01*
X171372000Y-29329342D02*
X171372000Y-29234104D01*
X171372000Y-29234104D02*
X171419619Y-29138866D01*
X171419619Y-29138866D02*
X171467238Y-29091247D01*
X171467238Y-29091247D02*
X171562476Y-29043628D01*
X171562476Y-29043628D02*
X171752952Y-28996009D01*
X171752952Y-28996009D02*
X171848190Y-28948390D01*
X171848190Y-28948390D02*
X171895809Y-28900771D01*
X171895809Y-28900771D02*
X171943428Y-28805533D01*
X171943428Y-28805533D02*
X171943428Y-28710295D01*
X171943428Y-28710295D02*
X171895809Y-28615057D01*
X171895809Y-28615057D02*
X171848190Y-28567438D01*
X171848190Y-28567438D02*
X171752952Y-28519819D01*
X171752952Y-28519819D02*
X171514857Y-28519819D01*
X171514857Y-28519819D02*
X171372000Y-28567438D01*
X171038666Y-28519819D02*
X170800571Y-29519819D01*
X170800571Y-29519819D02*
X170610095Y-28805533D01*
X170610095Y-28805533D02*
X170419619Y-29519819D01*
X170419619Y-29519819D02*
X170181524Y-28519819D01*
X170038667Y-29615057D02*
X169276762Y-29615057D01*
X168467238Y-29519819D02*
X168800571Y-29043628D01*
X169038666Y-29519819D02*
X169038666Y-28519819D01*
X169038666Y-28519819D02*
X168657714Y-28519819D01*
X168657714Y-28519819D02*
X168562476Y-28567438D01*
X168562476Y-28567438D02*
X168514857Y-28615057D01*
X168514857Y-28615057D02*
X168467238Y-28710295D01*
X168467238Y-28710295D02*
X168467238Y-28853152D01*
X168467238Y-28853152D02*
X168514857Y-28948390D01*
X168514857Y-28948390D02*
X168562476Y-28996009D01*
X168562476Y-28996009D02*
X168657714Y-29043628D01*
X168657714Y-29043628D02*
X169038666Y-29043628D01*
X167848190Y-28519819D02*
X167752952Y-28519819D01*
X167752952Y-28519819D02*
X167657714Y-28567438D01*
X167657714Y-28567438D02*
X167610095Y-28615057D01*
X167610095Y-28615057D02*
X167562476Y-28710295D01*
X167562476Y-28710295D02*
X167514857Y-28900771D01*
X167514857Y-28900771D02*
X167514857Y-29138866D01*
X167514857Y-29138866D02*
X167562476Y-29329342D01*
X167562476Y-29329342D02*
X167610095Y-29424580D01*
X167610095Y-29424580D02*
X167657714Y-29472200D01*
X167657714Y-29472200D02*
X167752952Y-29519819D01*
X167752952Y-29519819D02*
X167848190Y-29519819D01*
X167848190Y-29519819D02*
X167943428Y-29472200D01*
X167943428Y-29472200D02*
X167991047Y-29424580D01*
X167991047Y-29424580D02*
X168038666Y-29329342D01*
X168038666Y-29329342D02*
X168086285Y-29138866D01*
X168086285Y-29138866D02*
X168086285Y-28900771D01*
X168086285Y-28900771D02*
X168038666Y-28710295D01*
X168038666Y-28710295D02*
X167991047Y-28615057D01*
X167991047Y-28615057D02*
X167943428Y-28567438D01*
X167943428Y-28567438D02*
X167848190Y-28519819D01*
X167324381Y-29615057D02*
X166562476Y-29615057D01*
X165752952Y-29424580D02*
X165800571Y-29472200D01*
X165800571Y-29472200D02*
X165943428Y-29519819D01*
X165943428Y-29519819D02*
X166038666Y-29519819D01*
X166038666Y-29519819D02*
X166181523Y-29472200D01*
X166181523Y-29472200D02*
X166276761Y-29376961D01*
X166276761Y-29376961D02*
X166324380Y-29281723D01*
X166324380Y-29281723D02*
X166371999Y-29091247D01*
X166371999Y-29091247D02*
X166371999Y-28948390D01*
X166371999Y-28948390D02*
X166324380Y-28757914D01*
X166324380Y-28757914D02*
X166276761Y-28662676D01*
X166276761Y-28662676D02*
X166181523Y-28567438D01*
X166181523Y-28567438D02*
X166038666Y-28519819D01*
X166038666Y-28519819D02*
X165943428Y-28519819D01*
X165943428Y-28519819D02*
X165800571Y-28567438D01*
X165800571Y-28567438D02*
X165752952Y-28615057D01*
X164800571Y-29519819D02*
X165371999Y-29519819D01*
X165086285Y-29519819D02*
X165086285Y-28519819D01*
X165086285Y-28519819D02*
X165181523Y-28662676D01*
X165181523Y-28662676D02*
X165276761Y-28757914D01*
X165276761Y-28757914D02*
X165371999Y-28805533D01*
%TO.C,SW_R1_C0*%
X189443428Y-58472200D02*
X189300571Y-58519819D01*
X189300571Y-58519819D02*
X189062476Y-58519819D01*
X189062476Y-58519819D02*
X188967238Y-58472200D01*
X188967238Y-58472200D02*
X188919619Y-58424580D01*
X188919619Y-58424580D02*
X188872000Y-58329342D01*
X188872000Y-58329342D02*
X188872000Y-58234104D01*
X188872000Y-58234104D02*
X188919619Y-58138866D01*
X188919619Y-58138866D02*
X188967238Y-58091247D01*
X188967238Y-58091247D02*
X189062476Y-58043628D01*
X189062476Y-58043628D02*
X189252952Y-57996009D01*
X189252952Y-57996009D02*
X189348190Y-57948390D01*
X189348190Y-57948390D02*
X189395809Y-57900771D01*
X189395809Y-57900771D02*
X189443428Y-57805533D01*
X189443428Y-57805533D02*
X189443428Y-57710295D01*
X189443428Y-57710295D02*
X189395809Y-57615057D01*
X189395809Y-57615057D02*
X189348190Y-57567438D01*
X189348190Y-57567438D02*
X189252952Y-57519819D01*
X189252952Y-57519819D02*
X189014857Y-57519819D01*
X189014857Y-57519819D02*
X188872000Y-57567438D01*
X188538666Y-57519819D02*
X188300571Y-58519819D01*
X188300571Y-58519819D02*
X188110095Y-57805533D01*
X188110095Y-57805533D02*
X187919619Y-58519819D01*
X187919619Y-58519819D02*
X187681524Y-57519819D01*
X187538667Y-58615057D02*
X186776762Y-58615057D01*
X185967238Y-58519819D02*
X186300571Y-58043628D01*
X186538666Y-58519819D02*
X186538666Y-57519819D01*
X186538666Y-57519819D02*
X186157714Y-57519819D01*
X186157714Y-57519819D02*
X186062476Y-57567438D01*
X186062476Y-57567438D02*
X186014857Y-57615057D01*
X186014857Y-57615057D02*
X185967238Y-57710295D01*
X185967238Y-57710295D02*
X185967238Y-57853152D01*
X185967238Y-57853152D02*
X186014857Y-57948390D01*
X186014857Y-57948390D02*
X186062476Y-57996009D01*
X186062476Y-57996009D02*
X186157714Y-58043628D01*
X186157714Y-58043628D02*
X186538666Y-58043628D01*
X185014857Y-58519819D02*
X185586285Y-58519819D01*
X185300571Y-58519819D02*
X185300571Y-57519819D01*
X185300571Y-57519819D02*
X185395809Y-57662676D01*
X185395809Y-57662676D02*
X185491047Y-57757914D01*
X185491047Y-57757914D02*
X185586285Y-57805533D01*
X184824381Y-58615057D02*
X184062476Y-58615057D01*
X183252952Y-58424580D02*
X183300571Y-58472200D01*
X183300571Y-58472200D02*
X183443428Y-58519819D01*
X183443428Y-58519819D02*
X183538666Y-58519819D01*
X183538666Y-58519819D02*
X183681523Y-58472200D01*
X183681523Y-58472200D02*
X183776761Y-58376961D01*
X183776761Y-58376961D02*
X183824380Y-58281723D01*
X183824380Y-58281723D02*
X183871999Y-58091247D01*
X183871999Y-58091247D02*
X183871999Y-57948390D01*
X183871999Y-57948390D02*
X183824380Y-57757914D01*
X183824380Y-57757914D02*
X183776761Y-57662676D01*
X183776761Y-57662676D02*
X183681523Y-57567438D01*
X183681523Y-57567438D02*
X183538666Y-57519819D01*
X183538666Y-57519819D02*
X183443428Y-57519819D01*
X183443428Y-57519819D02*
X183300571Y-57567438D01*
X183300571Y-57567438D02*
X183252952Y-57615057D01*
X182633904Y-57519819D02*
X182538666Y-57519819D01*
X182538666Y-57519819D02*
X182443428Y-57567438D01*
X182443428Y-57567438D02*
X182395809Y-57615057D01*
X182395809Y-57615057D02*
X182348190Y-57710295D01*
X182348190Y-57710295D02*
X182300571Y-57900771D01*
X182300571Y-57900771D02*
X182300571Y-58138866D01*
X182300571Y-58138866D02*
X182348190Y-58329342D01*
X182348190Y-58329342D02*
X182395809Y-58424580D01*
X182395809Y-58424580D02*
X182443428Y-58472200D01*
X182443428Y-58472200D02*
X182538666Y-58519819D01*
X182538666Y-58519819D02*
X182633904Y-58519819D01*
X182633904Y-58519819D02*
X182729142Y-58472200D01*
X182729142Y-58472200D02*
X182776761Y-58424580D01*
X182776761Y-58424580D02*
X182824380Y-58329342D01*
X182824380Y-58329342D02*
X182871999Y-58138866D01*
X182871999Y-58138866D02*
X182871999Y-57900771D01*
X182871999Y-57900771D02*
X182824380Y-57710295D01*
X182824380Y-57710295D02*
X182776761Y-57615057D01*
X182776761Y-57615057D02*
X182729142Y-57567438D01*
X182729142Y-57567438D02*
X182633904Y-57519819D01*
%TO.C,SW_R2_C4*%
X119443428Y-67872200D02*
X119300571Y-67919819D01*
X119300571Y-67919819D02*
X119062476Y-67919819D01*
X119062476Y-67919819D02*
X118967238Y-67872200D01*
X118967238Y-67872200D02*
X118919619Y-67824580D01*
X118919619Y-67824580D02*
X118872000Y-67729342D01*
X118872000Y-67729342D02*
X118872000Y-67634104D01*
X118872000Y-67634104D02*
X118919619Y-67538866D01*
X118919619Y-67538866D02*
X118967238Y-67491247D01*
X118967238Y-67491247D02*
X119062476Y-67443628D01*
X119062476Y-67443628D02*
X119252952Y-67396009D01*
X119252952Y-67396009D02*
X119348190Y-67348390D01*
X119348190Y-67348390D02*
X119395809Y-67300771D01*
X119395809Y-67300771D02*
X119443428Y-67205533D01*
X119443428Y-67205533D02*
X119443428Y-67110295D01*
X119443428Y-67110295D02*
X119395809Y-67015057D01*
X119395809Y-67015057D02*
X119348190Y-66967438D01*
X119348190Y-66967438D02*
X119252952Y-66919819D01*
X119252952Y-66919819D02*
X119014857Y-66919819D01*
X119014857Y-66919819D02*
X118872000Y-66967438D01*
X118538666Y-66919819D02*
X118300571Y-67919819D01*
X118300571Y-67919819D02*
X118110095Y-67205533D01*
X118110095Y-67205533D02*
X117919619Y-67919819D01*
X117919619Y-67919819D02*
X117681524Y-66919819D01*
X117538667Y-68015057D02*
X116776762Y-68015057D01*
X115967238Y-67919819D02*
X116300571Y-67443628D01*
X116538666Y-67919819D02*
X116538666Y-66919819D01*
X116538666Y-66919819D02*
X116157714Y-66919819D01*
X116157714Y-66919819D02*
X116062476Y-66967438D01*
X116062476Y-66967438D02*
X116014857Y-67015057D01*
X116014857Y-67015057D02*
X115967238Y-67110295D01*
X115967238Y-67110295D02*
X115967238Y-67253152D01*
X115967238Y-67253152D02*
X116014857Y-67348390D01*
X116014857Y-67348390D02*
X116062476Y-67396009D01*
X116062476Y-67396009D02*
X116157714Y-67443628D01*
X116157714Y-67443628D02*
X116538666Y-67443628D01*
X115586285Y-67015057D02*
X115538666Y-66967438D01*
X115538666Y-66967438D02*
X115443428Y-66919819D01*
X115443428Y-66919819D02*
X115205333Y-66919819D01*
X115205333Y-66919819D02*
X115110095Y-66967438D01*
X115110095Y-66967438D02*
X115062476Y-67015057D01*
X115062476Y-67015057D02*
X115014857Y-67110295D01*
X115014857Y-67110295D02*
X115014857Y-67205533D01*
X115014857Y-67205533D02*
X115062476Y-67348390D01*
X115062476Y-67348390D02*
X115633904Y-67919819D01*
X115633904Y-67919819D02*
X115014857Y-67919819D01*
X114824381Y-68015057D02*
X114062476Y-68015057D01*
X113252952Y-67824580D02*
X113300571Y-67872200D01*
X113300571Y-67872200D02*
X113443428Y-67919819D01*
X113443428Y-67919819D02*
X113538666Y-67919819D01*
X113538666Y-67919819D02*
X113681523Y-67872200D01*
X113681523Y-67872200D02*
X113776761Y-67776961D01*
X113776761Y-67776961D02*
X113824380Y-67681723D01*
X113824380Y-67681723D02*
X113871999Y-67491247D01*
X113871999Y-67491247D02*
X113871999Y-67348390D01*
X113871999Y-67348390D02*
X113824380Y-67157914D01*
X113824380Y-67157914D02*
X113776761Y-67062676D01*
X113776761Y-67062676D02*
X113681523Y-66967438D01*
X113681523Y-66967438D02*
X113538666Y-66919819D01*
X113538666Y-66919819D02*
X113443428Y-66919819D01*
X113443428Y-66919819D02*
X113300571Y-66967438D01*
X113300571Y-66967438D02*
X113252952Y-67015057D01*
X112395809Y-67253152D02*
X112395809Y-67919819D01*
X112633904Y-66872200D02*
X112871999Y-67586485D01*
X112871999Y-67586485D02*
X112252952Y-67586485D01*
%TO.C,SW_R1_C4*%
X119443428Y-49872200D02*
X119300571Y-49919819D01*
X119300571Y-49919819D02*
X119062476Y-49919819D01*
X119062476Y-49919819D02*
X118967238Y-49872200D01*
X118967238Y-49872200D02*
X118919619Y-49824580D01*
X118919619Y-49824580D02*
X118872000Y-49729342D01*
X118872000Y-49729342D02*
X118872000Y-49634104D01*
X118872000Y-49634104D02*
X118919619Y-49538866D01*
X118919619Y-49538866D02*
X118967238Y-49491247D01*
X118967238Y-49491247D02*
X119062476Y-49443628D01*
X119062476Y-49443628D02*
X119252952Y-49396009D01*
X119252952Y-49396009D02*
X119348190Y-49348390D01*
X119348190Y-49348390D02*
X119395809Y-49300771D01*
X119395809Y-49300771D02*
X119443428Y-49205533D01*
X119443428Y-49205533D02*
X119443428Y-49110295D01*
X119443428Y-49110295D02*
X119395809Y-49015057D01*
X119395809Y-49015057D02*
X119348190Y-48967438D01*
X119348190Y-48967438D02*
X119252952Y-48919819D01*
X119252952Y-48919819D02*
X119014857Y-48919819D01*
X119014857Y-48919819D02*
X118872000Y-48967438D01*
X118538666Y-48919819D02*
X118300571Y-49919819D01*
X118300571Y-49919819D02*
X118110095Y-49205533D01*
X118110095Y-49205533D02*
X117919619Y-49919819D01*
X117919619Y-49919819D02*
X117681524Y-48919819D01*
X117538667Y-50015057D02*
X116776762Y-50015057D01*
X115967238Y-49919819D02*
X116300571Y-49443628D01*
X116538666Y-49919819D02*
X116538666Y-48919819D01*
X116538666Y-48919819D02*
X116157714Y-48919819D01*
X116157714Y-48919819D02*
X116062476Y-48967438D01*
X116062476Y-48967438D02*
X116014857Y-49015057D01*
X116014857Y-49015057D02*
X115967238Y-49110295D01*
X115967238Y-49110295D02*
X115967238Y-49253152D01*
X115967238Y-49253152D02*
X116014857Y-49348390D01*
X116014857Y-49348390D02*
X116062476Y-49396009D01*
X116062476Y-49396009D02*
X116157714Y-49443628D01*
X116157714Y-49443628D02*
X116538666Y-49443628D01*
X115014857Y-49919819D02*
X115586285Y-49919819D01*
X115300571Y-49919819D02*
X115300571Y-48919819D01*
X115300571Y-48919819D02*
X115395809Y-49062676D01*
X115395809Y-49062676D02*
X115491047Y-49157914D01*
X115491047Y-49157914D02*
X115586285Y-49205533D01*
X114824381Y-50015057D02*
X114062476Y-50015057D01*
X113252952Y-49824580D02*
X113300571Y-49872200D01*
X113300571Y-49872200D02*
X113443428Y-49919819D01*
X113443428Y-49919819D02*
X113538666Y-49919819D01*
X113538666Y-49919819D02*
X113681523Y-49872200D01*
X113681523Y-49872200D02*
X113776761Y-49776961D01*
X113776761Y-49776961D02*
X113824380Y-49681723D01*
X113824380Y-49681723D02*
X113871999Y-49491247D01*
X113871999Y-49491247D02*
X113871999Y-49348390D01*
X113871999Y-49348390D02*
X113824380Y-49157914D01*
X113824380Y-49157914D02*
X113776761Y-49062676D01*
X113776761Y-49062676D02*
X113681523Y-48967438D01*
X113681523Y-48967438D02*
X113538666Y-48919819D01*
X113538666Y-48919819D02*
X113443428Y-48919819D01*
X113443428Y-48919819D02*
X113300571Y-48967438D01*
X113300571Y-48967438D02*
X113252952Y-49015057D01*
X112395809Y-49253152D02*
X112395809Y-49919819D01*
X112633904Y-48872200D02*
X112871999Y-49586485D01*
X112871999Y-49586485D02*
X112252952Y-49586485D01*
%TO.C,SW_R0_C3*%
X136943428Y-29472200D02*
X136800571Y-29519819D01*
X136800571Y-29519819D02*
X136562476Y-29519819D01*
X136562476Y-29519819D02*
X136467238Y-29472200D01*
X136467238Y-29472200D02*
X136419619Y-29424580D01*
X136419619Y-29424580D02*
X136372000Y-29329342D01*
X136372000Y-29329342D02*
X136372000Y-29234104D01*
X136372000Y-29234104D02*
X136419619Y-29138866D01*
X136419619Y-29138866D02*
X136467238Y-29091247D01*
X136467238Y-29091247D02*
X136562476Y-29043628D01*
X136562476Y-29043628D02*
X136752952Y-28996009D01*
X136752952Y-28996009D02*
X136848190Y-28948390D01*
X136848190Y-28948390D02*
X136895809Y-28900771D01*
X136895809Y-28900771D02*
X136943428Y-28805533D01*
X136943428Y-28805533D02*
X136943428Y-28710295D01*
X136943428Y-28710295D02*
X136895809Y-28615057D01*
X136895809Y-28615057D02*
X136848190Y-28567438D01*
X136848190Y-28567438D02*
X136752952Y-28519819D01*
X136752952Y-28519819D02*
X136514857Y-28519819D01*
X136514857Y-28519819D02*
X136372000Y-28567438D01*
X136038666Y-28519819D02*
X135800571Y-29519819D01*
X135800571Y-29519819D02*
X135610095Y-28805533D01*
X135610095Y-28805533D02*
X135419619Y-29519819D01*
X135419619Y-29519819D02*
X135181524Y-28519819D01*
X135038667Y-29615057D02*
X134276762Y-29615057D01*
X133467238Y-29519819D02*
X133800571Y-29043628D01*
X134038666Y-29519819D02*
X134038666Y-28519819D01*
X134038666Y-28519819D02*
X133657714Y-28519819D01*
X133657714Y-28519819D02*
X133562476Y-28567438D01*
X133562476Y-28567438D02*
X133514857Y-28615057D01*
X133514857Y-28615057D02*
X133467238Y-28710295D01*
X133467238Y-28710295D02*
X133467238Y-28853152D01*
X133467238Y-28853152D02*
X133514857Y-28948390D01*
X133514857Y-28948390D02*
X133562476Y-28996009D01*
X133562476Y-28996009D02*
X133657714Y-29043628D01*
X133657714Y-29043628D02*
X134038666Y-29043628D01*
X132848190Y-28519819D02*
X132752952Y-28519819D01*
X132752952Y-28519819D02*
X132657714Y-28567438D01*
X132657714Y-28567438D02*
X132610095Y-28615057D01*
X132610095Y-28615057D02*
X132562476Y-28710295D01*
X132562476Y-28710295D02*
X132514857Y-28900771D01*
X132514857Y-28900771D02*
X132514857Y-29138866D01*
X132514857Y-29138866D02*
X132562476Y-29329342D01*
X132562476Y-29329342D02*
X132610095Y-29424580D01*
X132610095Y-29424580D02*
X132657714Y-29472200D01*
X132657714Y-29472200D02*
X132752952Y-29519819D01*
X132752952Y-29519819D02*
X132848190Y-29519819D01*
X132848190Y-29519819D02*
X132943428Y-29472200D01*
X132943428Y-29472200D02*
X132991047Y-29424580D01*
X132991047Y-29424580D02*
X133038666Y-29329342D01*
X133038666Y-29329342D02*
X133086285Y-29138866D01*
X133086285Y-29138866D02*
X133086285Y-28900771D01*
X133086285Y-28900771D02*
X133038666Y-28710295D01*
X133038666Y-28710295D02*
X132991047Y-28615057D01*
X132991047Y-28615057D02*
X132943428Y-28567438D01*
X132943428Y-28567438D02*
X132848190Y-28519819D01*
X132324381Y-29615057D02*
X131562476Y-29615057D01*
X130752952Y-29424580D02*
X130800571Y-29472200D01*
X130800571Y-29472200D02*
X130943428Y-29519819D01*
X130943428Y-29519819D02*
X131038666Y-29519819D01*
X131038666Y-29519819D02*
X131181523Y-29472200D01*
X131181523Y-29472200D02*
X131276761Y-29376961D01*
X131276761Y-29376961D02*
X131324380Y-29281723D01*
X131324380Y-29281723D02*
X131371999Y-29091247D01*
X131371999Y-29091247D02*
X131371999Y-28948390D01*
X131371999Y-28948390D02*
X131324380Y-28757914D01*
X131324380Y-28757914D02*
X131276761Y-28662676D01*
X131276761Y-28662676D02*
X131181523Y-28567438D01*
X131181523Y-28567438D02*
X131038666Y-28519819D01*
X131038666Y-28519819D02*
X130943428Y-28519819D01*
X130943428Y-28519819D02*
X130800571Y-28567438D01*
X130800571Y-28567438D02*
X130752952Y-28615057D01*
X130419618Y-28519819D02*
X129800571Y-28519819D01*
X129800571Y-28519819D02*
X130133904Y-28900771D01*
X130133904Y-28900771D02*
X129991047Y-28900771D01*
X129991047Y-28900771D02*
X129895809Y-28948390D01*
X129895809Y-28948390D02*
X129848190Y-28996009D01*
X129848190Y-28996009D02*
X129800571Y-29091247D01*
X129800571Y-29091247D02*
X129800571Y-29329342D01*
X129800571Y-29329342D02*
X129848190Y-29424580D01*
X129848190Y-29424580D02*
X129895809Y-29472200D01*
X129895809Y-29472200D02*
X129991047Y-29519819D01*
X129991047Y-29519819D02*
X130276761Y-29519819D01*
X130276761Y-29519819D02*
X130371999Y-29472200D01*
X130371999Y-29472200D02*
X130419618Y-29424580D01*
%TO.C,SW_R0_C2*%
X154443428Y-25082200D02*
X154300571Y-25129819D01*
X154300571Y-25129819D02*
X154062476Y-25129819D01*
X154062476Y-25129819D02*
X153967238Y-25082200D01*
X153967238Y-25082200D02*
X153919619Y-25034580D01*
X153919619Y-25034580D02*
X153872000Y-24939342D01*
X153872000Y-24939342D02*
X153872000Y-24844104D01*
X153872000Y-24844104D02*
X153919619Y-24748866D01*
X153919619Y-24748866D02*
X153967238Y-24701247D01*
X153967238Y-24701247D02*
X154062476Y-24653628D01*
X154062476Y-24653628D02*
X154252952Y-24606009D01*
X154252952Y-24606009D02*
X154348190Y-24558390D01*
X154348190Y-24558390D02*
X154395809Y-24510771D01*
X154395809Y-24510771D02*
X154443428Y-24415533D01*
X154443428Y-24415533D02*
X154443428Y-24320295D01*
X154443428Y-24320295D02*
X154395809Y-24225057D01*
X154395809Y-24225057D02*
X154348190Y-24177438D01*
X154348190Y-24177438D02*
X154252952Y-24129819D01*
X154252952Y-24129819D02*
X154014857Y-24129819D01*
X154014857Y-24129819D02*
X153872000Y-24177438D01*
X153538666Y-24129819D02*
X153300571Y-25129819D01*
X153300571Y-25129819D02*
X153110095Y-24415533D01*
X153110095Y-24415533D02*
X152919619Y-25129819D01*
X152919619Y-25129819D02*
X152681524Y-24129819D01*
X152538667Y-25225057D02*
X151776762Y-25225057D01*
X150967238Y-25129819D02*
X151300571Y-24653628D01*
X151538666Y-25129819D02*
X151538666Y-24129819D01*
X151538666Y-24129819D02*
X151157714Y-24129819D01*
X151157714Y-24129819D02*
X151062476Y-24177438D01*
X151062476Y-24177438D02*
X151014857Y-24225057D01*
X151014857Y-24225057D02*
X150967238Y-24320295D01*
X150967238Y-24320295D02*
X150967238Y-24463152D01*
X150967238Y-24463152D02*
X151014857Y-24558390D01*
X151014857Y-24558390D02*
X151062476Y-24606009D01*
X151062476Y-24606009D02*
X151157714Y-24653628D01*
X151157714Y-24653628D02*
X151538666Y-24653628D01*
X150348190Y-24129819D02*
X150252952Y-24129819D01*
X150252952Y-24129819D02*
X150157714Y-24177438D01*
X150157714Y-24177438D02*
X150110095Y-24225057D01*
X150110095Y-24225057D02*
X150062476Y-24320295D01*
X150062476Y-24320295D02*
X150014857Y-24510771D01*
X150014857Y-24510771D02*
X150014857Y-24748866D01*
X150014857Y-24748866D02*
X150062476Y-24939342D01*
X150062476Y-24939342D02*
X150110095Y-25034580D01*
X150110095Y-25034580D02*
X150157714Y-25082200D01*
X150157714Y-25082200D02*
X150252952Y-25129819D01*
X150252952Y-25129819D02*
X150348190Y-25129819D01*
X150348190Y-25129819D02*
X150443428Y-25082200D01*
X150443428Y-25082200D02*
X150491047Y-25034580D01*
X150491047Y-25034580D02*
X150538666Y-24939342D01*
X150538666Y-24939342D02*
X150586285Y-24748866D01*
X150586285Y-24748866D02*
X150586285Y-24510771D01*
X150586285Y-24510771D02*
X150538666Y-24320295D01*
X150538666Y-24320295D02*
X150491047Y-24225057D01*
X150491047Y-24225057D02*
X150443428Y-24177438D01*
X150443428Y-24177438D02*
X150348190Y-24129819D01*
X149824381Y-25225057D02*
X149062476Y-25225057D01*
X148252952Y-25034580D02*
X148300571Y-25082200D01*
X148300571Y-25082200D02*
X148443428Y-25129819D01*
X148443428Y-25129819D02*
X148538666Y-25129819D01*
X148538666Y-25129819D02*
X148681523Y-25082200D01*
X148681523Y-25082200D02*
X148776761Y-24986961D01*
X148776761Y-24986961D02*
X148824380Y-24891723D01*
X148824380Y-24891723D02*
X148871999Y-24701247D01*
X148871999Y-24701247D02*
X148871999Y-24558390D01*
X148871999Y-24558390D02*
X148824380Y-24367914D01*
X148824380Y-24367914D02*
X148776761Y-24272676D01*
X148776761Y-24272676D02*
X148681523Y-24177438D01*
X148681523Y-24177438D02*
X148538666Y-24129819D01*
X148538666Y-24129819D02*
X148443428Y-24129819D01*
X148443428Y-24129819D02*
X148300571Y-24177438D01*
X148300571Y-24177438D02*
X148252952Y-24225057D01*
X147871999Y-24225057D02*
X147824380Y-24177438D01*
X147824380Y-24177438D02*
X147729142Y-24129819D01*
X147729142Y-24129819D02*
X147491047Y-24129819D01*
X147491047Y-24129819D02*
X147395809Y-24177438D01*
X147395809Y-24177438D02*
X147348190Y-24225057D01*
X147348190Y-24225057D02*
X147300571Y-24320295D01*
X147300571Y-24320295D02*
X147300571Y-24415533D01*
X147300571Y-24415533D02*
X147348190Y-24558390D01*
X147348190Y-24558390D02*
X147919618Y-25129819D01*
X147919618Y-25129819D02*
X147300571Y-25129819D01*
%TO.C,SW_R2_C1*%
X171943428Y-65472200D02*
X171800571Y-65519819D01*
X171800571Y-65519819D02*
X171562476Y-65519819D01*
X171562476Y-65519819D02*
X171467238Y-65472200D01*
X171467238Y-65472200D02*
X171419619Y-65424580D01*
X171419619Y-65424580D02*
X171372000Y-65329342D01*
X171372000Y-65329342D02*
X171372000Y-65234104D01*
X171372000Y-65234104D02*
X171419619Y-65138866D01*
X171419619Y-65138866D02*
X171467238Y-65091247D01*
X171467238Y-65091247D02*
X171562476Y-65043628D01*
X171562476Y-65043628D02*
X171752952Y-64996009D01*
X171752952Y-64996009D02*
X171848190Y-64948390D01*
X171848190Y-64948390D02*
X171895809Y-64900771D01*
X171895809Y-64900771D02*
X171943428Y-64805533D01*
X171943428Y-64805533D02*
X171943428Y-64710295D01*
X171943428Y-64710295D02*
X171895809Y-64615057D01*
X171895809Y-64615057D02*
X171848190Y-64567438D01*
X171848190Y-64567438D02*
X171752952Y-64519819D01*
X171752952Y-64519819D02*
X171514857Y-64519819D01*
X171514857Y-64519819D02*
X171372000Y-64567438D01*
X171038666Y-64519819D02*
X170800571Y-65519819D01*
X170800571Y-65519819D02*
X170610095Y-64805533D01*
X170610095Y-64805533D02*
X170419619Y-65519819D01*
X170419619Y-65519819D02*
X170181524Y-64519819D01*
X170038667Y-65615057D02*
X169276762Y-65615057D01*
X168467238Y-65519819D02*
X168800571Y-65043628D01*
X169038666Y-65519819D02*
X169038666Y-64519819D01*
X169038666Y-64519819D02*
X168657714Y-64519819D01*
X168657714Y-64519819D02*
X168562476Y-64567438D01*
X168562476Y-64567438D02*
X168514857Y-64615057D01*
X168514857Y-64615057D02*
X168467238Y-64710295D01*
X168467238Y-64710295D02*
X168467238Y-64853152D01*
X168467238Y-64853152D02*
X168514857Y-64948390D01*
X168514857Y-64948390D02*
X168562476Y-64996009D01*
X168562476Y-64996009D02*
X168657714Y-65043628D01*
X168657714Y-65043628D02*
X169038666Y-65043628D01*
X168086285Y-64615057D02*
X168038666Y-64567438D01*
X168038666Y-64567438D02*
X167943428Y-64519819D01*
X167943428Y-64519819D02*
X167705333Y-64519819D01*
X167705333Y-64519819D02*
X167610095Y-64567438D01*
X167610095Y-64567438D02*
X167562476Y-64615057D01*
X167562476Y-64615057D02*
X167514857Y-64710295D01*
X167514857Y-64710295D02*
X167514857Y-64805533D01*
X167514857Y-64805533D02*
X167562476Y-64948390D01*
X167562476Y-64948390D02*
X168133904Y-65519819D01*
X168133904Y-65519819D02*
X167514857Y-65519819D01*
X167324381Y-65615057D02*
X166562476Y-65615057D01*
X165752952Y-65424580D02*
X165800571Y-65472200D01*
X165800571Y-65472200D02*
X165943428Y-65519819D01*
X165943428Y-65519819D02*
X166038666Y-65519819D01*
X166038666Y-65519819D02*
X166181523Y-65472200D01*
X166181523Y-65472200D02*
X166276761Y-65376961D01*
X166276761Y-65376961D02*
X166324380Y-65281723D01*
X166324380Y-65281723D02*
X166371999Y-65091247D01*
X166371999Y-65091247D02*
X166371999Y-64948390D01*
X166371999Y-64948390D02*
X166324380Y-64757914D01*
X166324380Y-64757914D02*
X166276761Y-64662676D01*
X166276761Y-64662676D02*
X166181523Y-64567438D01*
X166181523Y-64567438D02*
X166038666Y-64519819D01*
X166038666Y-64519819D02*
X165943428Y-64519819D01*
X165943428Y-64519819D02*
X165800571Y-64567438D01*
X165800571Y-64567438D02*
X165752952Y-64615057D01*
X164800571Y-65519819D02*
X165371999Y-65519819D01*
X165086285Y-65519819D02*
X165086285Y-64519819D01*
X165086285Y-64519819D02*
X165181523Y-64662676D01*
X165181523Y-64662676D02*
X165276761Y-64757914D01*
X165276761Y-64757914D02*
X165371999Y-64805533D01*
%TO.C,SW8*%
X124523332Y-88437200D02*
X124380475Y-88484819D01*
X124380475Y-88484819D02*
X124142380Y-88484819D01*
X124142380Y-88484819D02*
X124047142Y-88437200D01*
X124047142Y-88437200D02*
X123999523Y-88389580D01*
X123999523Y-88389580D02*
X123951904Y-88294342D01*
X123951904Y-88294342D02*
X123951904Y-88199104D01*
X123951904Y-88199104D02*
X123999523Y-88103866D01*
X123999523Y-88103866D02*
X124047142Y-88056247D01*
X124047142Y-88056247D02*
X124142380Y-88008628D01*
X124142380Y-88008628D02*
X124332856Y-87961009D01*
X124332856Y-87961009D02*
X124428094Y-87913390D01*
X124428094Y-87913390D02*
X124475713Y-87865771D01*
X124475713Y-87865771D02*
X124523332Y-87770533D01*
X124523332Y-87770533D02*
X124523332Y-87675295D01*
X124523332Y-87675295D02*
X124475713Y-87580057D01*
X124475713Y-87580057D02*
X124428094Y-87532438D01*
X124428094Y-87532438D02*
X124332856Y-87484819D01*
X124332856Y-87484819D02*
X124094761Y-87484819D01*
X124094761Y-87484819D02*
X123951904Y-87532438D01*
X123618570Y-87484819D02*
X123380475Y-88484819D01*
X123380475Y-88484819D02*
X123189999Y-87770533D01*
X123189999Y-87770533D02*
X122999523Y-88484819D01*
X122999523Y-88484819D02*
X122761428Y-87484819D01*
X122237618Y-87913390D02*
X122332856Y-87865771D01*
X122332856Y-87865771D02*
X122380475Y-87818152D01*
X122380475Y-87818152D02*
X122428094Y-87722914D01*
X122428094Y-87722914D02*
X122428094Y-87675295D01*
X122428094Y-87675295D02*
X122380475Y-87580057D01*
X122380475Y-87580057D02*
X122332856Y-87532438D01*
X122332856Y-87532438D02*
X122237618Y-87484819D01*
X122237618Y-87484819D02*
X122047142Y-87484819D01*
X122047142Y-87484819D02*
X121951904Y-87532438D01*
X121951904Y-87532438D02*
X121904285Y-87580057D01*
X121904285Y-87580057D02*
X121856666Y-87675295D01*
X121856666Y-87675295D02*
X121856666Y-87722914D01*
X121856666Y-87722914D02*
X121904285Y-87818152D01*
X121904285Y-87818152D02*
X121951904Y-87865771D01*
X121951904Y-87865771D02*
X122047142Y-87913390D01*
X122047142Y-87913390D02*
X122237618Y-87913390D01*
X122237618Y-87913390D02*
X122332856Y-87961009D01*
X122332856Y-87961009D02*
X122380475Y-88008628D01*
X122380475Y-88008628D02*
X122428094Y-88103866D01*
X122428094Y-88103866D02*
X122428094Y-88294342D01*
X122428094Y-88294342D02*
X122380475Y-88389580D01*
X122380475Y-88389580D02*
X122332856Y-88437200D01*
X122332856Y-88437200D02*
X122237618Y-88484819D01*
X122237618Y-88484819D02*
X122047142Y-88484819D01*
X122047142Y-88484819D02*
X121951904Y-88437200D01*
X121951904Y-88437200D02*
X121904285Y-88389580D01*
X121904285Y-88389580D02*
X121856666Y-88294342D01*
X121856666Y-88294342D02*
X121856666Y-88103866D01*
X121856666Y-88103866D02*
X121904285Y-88008628D01*
X121904285Y-88008628D02*
X121951904Y-87961009D01*
X121951904Y-87961009D02*
X122047142Y-87913390D01*
%TO.C,SW_R1_C3*%
X136943428Y-47472200D02*
X136800571Y-47519819D01*
X136800571Y-47519819D02*
X136562476Y-47519819D01*
X136562476Y-47519819D02*
X136467238Y-47472200D01*
X136467238Y-47472200D02*
X136419619Y-47424580D01*
X136419619Y-47424580D02*
X136372000Y-47329342D01*
X136372000Y-47329342D02*
X136372000Y-47234104D01*
X136372000Y-47234104D02*
X136419619Y-47138866D01*
X136419619Y-47138866D02*
X136467238Y-47091247D01*
X136467238Y-47091247D02*
X136562476Y-47043628D01*
X136562476Y-47043628D02*
X136752952Y-46996009D01*
X136752952Y-46996009D02*
X136848190Y-46948390D01*
X136848190Y-46948390D02*
X136895809Y-46900771D01*
X136895809Y-46900771D02*
X136943428Y-46805533D01*
X136943428Y-46805533D02*
X136943428Y-46710295D01*
X136943428Y-46710295D02*
X136895809Y-46615057D01*
X136895809Y-46615057D02*
X136848190Y-46567438D01*
X136848190Y-46567438D02*
X136752952Y-46519819D01*
X136752952Y-46519819D02*
X136514857Y-46519819D01*
X136514857Y-46519819D02*
X136372000Y-46567438D01*
X136038666Y-46519819D02*
X135800571Y-47519819D01*
X135800571Y-47519819D02*
X135610095Y-46805533D01*
X135610095Y-46805533D02*
X135419619Y-47519819D01*
X135419619Y-47519819D02*
X135181524Y-46519819D01*
X135038667Y-47615057D02*
X134276762Y-47615057D01*
X133467238Y-47519819D02*
X133800571Y-47043628D01*
X134038666Y-47519819D02*
X134038666Y-46519819D01*
X134038666Y-46519819D02*
X133657714Y-46519819D01*
X133657714Y-46519819D02*
X133562476Y-46567438D01*
X133562476Y-46567438D02*
X133514857Y-46615057D01*
X133514857Y-46615057D02*
X133467238Y-46710295D01*
X133467238Y-46710295D02*
X133467238Y-46853152D01*
X133467238Y-46853152D02*
X133514857Y-46948390D01*
X133514857Y-46948390D02*
X133562476Y-46996009D01*
X133562476Y-46996009D02*
X133657714Y-47043628D01*
X133657714Y-47043628D02*
X134038666Y-47043628D01*
X132514857Y-47519819D02*
X133086285Y-47519819D01*
X132800571Y-47519819D02*
X132800571Y-46519819D01*
X132800571Y-46519819D02*
X132895809Y-46662676D01*
X132895809Y-46662676D02*
X132991047Y-46757914D01*
X132991047Y-46757914D02*
X133086285Y-46805533D01*
X132324381Y-47615057D02*
X131562476Y-47615057D01*
X130752952Y-47424580D02*
X130800571Y-47472200D01*
X130800571Y-47472200D02*
X130943428Y-47519819D01*
X130943428Y-47519819D02*
X131038666Y-47519819D01*
X131038666Y-47519819D02*
X131181523Y-47472200D01*
X131181523Y-47472200D02*
X131276761Y-47376961D01*
X131276761Y-47376961D02*
X131324380Y-47281723D01*
X131324380Y-47281723D02*
X131371999Y-47091247D01*
X131371999Y-47091247D02*
X131371999Y-46948390D01*
X131371999Y-46948390D02*
X131324380Y-46757914D01*
X131324380Y-46757914D02*
X131276761Y-46662676D01*
X131276761Y-46662676D02*
X131181523Y-46567438D01*
X131181523Y-46567438D02*
X131038666Y-46519819D01*
X131038666Y-46519819D02*
X130943428Y-46519819D01*
X130943428Y-46519819D02*
X130800571Y-46567438D01*
X130800571Y-46567438D02*
X130752952Y-46615057D01*
X130419618Y-46519819D02*
X129800571Y-46519819D01*
X129800571Y-46519819D02*
X130133904Y-46900771D01*
X130133904Y-46900771D02*
X129991047Y-46900771D01*
X129991047Y-46900771D02*
X129895809Y-46948390D01*
X129895809Y-46948390D02*
X129848190Y-46996009D01*
X129848190Y-46996009D02*
X129800571Y-47091247D01*
X129800571Y-47091247D02*
X129800571Y-47329342D01*
X129800571Y-47329342D02*
X129848190Y-47424580D01*
X129848190Y-47424580D02*
X129895809Y-47472200D01*
X129895809Y-47472200D02*
X129991047Y-47519819D01*
X129991047Y-47519819D02*
X130276761Y-47519819D01*
X130276761Y-47519819D02*
X130371999Y-47472200D01*
X130371999Y-47472200D02*
X130419618Y-47424580D01*
%TO.C,SW4*%
X108058427Y-88538768D02*
X108558427Y-89404794D01*
X107192401Y-89038768D02*
X108058427Y-88538768D01*
X100697211Y-92788768D02*
X100264198Y-93038768D01*
X97146507Y-94838768D02*
X96626891Y-95138768D01*
X96626891Y-95138768D02*
X98876891Y-99035882D01*
X95934071Y-95538768D02*
X96800097Y-95038768D01*
X96434071Y-96404794D02*
X95934071Y-95538768D01*
X102947211Y-96685882D02*
X100697211Y-92788768D01*
X102340993Y-97035882D02*
X102947211Y-96685882D01*
X98693879Y-99718895D02*
X97827853Y-100218895D01*
X97644841Y-100901908D02*
X97827853Y-100218895D01*
X103041955Y-101249984D02*
X101791955Y-99084921D01*
X99144841Y-103499984D02*
X97644841Y-100901908D01*
X102858942Y-101932997D02*
X103041955Y-101249984D01*
X99827853Y-103682997D02*
X99144841Y-103499984D01*
X114558427Y-99797098D02*
X115058427Y-100663124D01*
X115058427Y-100663124D02*
X114192401Y-101163124D01*
X103800097Y-107163124D02*
X102934071Y-107663124D01*
X102934071Y-107663124D02*
X102434071Y-106797098D01*
X98693878Y-99718894D02*
G75*
G03*
X98876891Y-99035882I-249999J433012D01*
G01*
X102340993Y-97035882D02*
G75*
G03*
X101791955Y-99084921I750003J-1299039D01*
G01*
%TO.C,B+1*%
X91250000Y-26000000D02*
X93250000Y-26000000D01*
X91250000Y-28000000D02*
X91250000Y-26000000D01*
X93250000Y-26000000D02*
X93250000Y-28000000D01*
X93250000Y-28000000D02*
X91250000Y-28000000D01*
%TO.C,D9*%
X157417000Y-34830000D02*
X157417000Y-36330000D01*
X157417000Y-36330000D02*
X162817000Y-36330000D01*
X159617000Y-35080000D02*
X159617000Y-36080000D01*
X159717000Y-35580000D02*
X160617000Y-35080000D01*
X160617000Y-35080000D02*
X160617000Y-36080000D01*
X160617000Y-36080000D02*
X159717000Y-35580000D01*
X162817000Y-34830000D02*
X157417000Y-34830000D01*
X162817000Y-36330000D02*
X162817000Y-34830000D01*
%TO.C,SW_R2_C2*%
X148317000Y-55580000D02*
X149317000Y-55580000D01*
X148317000Y-56580000D02*
X148317000Y-55580000D01*
X148317000Y-64080000D02*
X148317000Y-64580000D01*
X148317000Y-68180000D02*
X148317000Y-68780000D01*
X148317000Y-68780000D02*
X152817000Y-68780000D01*
X148317000Y-69580000D02*
X148317000Y-68580000D01*
X149317000Y-69580000D02*
X148317000Y-69580000D01*
X152817000Y-64080000D02*
X148317000Y-64080000D01*
X152817000Y-64780000D02*
X152817000Y-64080000D01*
X153317000Y-69280000D02*
X153317000Y-70280000D01*
X153817000Y-70780000D02*
X153317000Y-70280000D01*
X156817000Y-66280000D02*
X154317000Y-66280000D01*
X156817000Y-70780000D02*
X153817000Y-70780000D01*
X157317000Y-66780000D02*
X156817000Y-66280000D01*
X157317000Y-70280000D02*
X156817000Y-70780000D01*
X161317000Y-55580000D02*
X162317000Y-55580000D01*
X162317000Y-55580000D02*
X162317000Y-56580000D01*
X162317000Y-68580000D02*
X162317000Y-69580000D01*
X162317000Y-69580000D02*
X161317000Y-69580000D01*
X153317000Y-69280000D02*
G75*
G03*
X152817000Y-68780000I-500001J-1D01*
G01*
X152817000Y-64780000D02*
G75*
G03*
X154317000Y-66280000I1500001J1D01*
G01*
%TO.C,SW_R2_C0*%
X183317000Y-68470000D02*
X184317000Y-68470000D01*
X183317000Y-69470000D02*
X183317000Y-68470000D01*
X183317000Y-76970000D02*
X183317000Y-77470000D01*
X183317000Y-81070000D02*
X183317000Y-81670000D01*
X183317000Y-81670000D02*
X187817000Y-81670000D01*
X183317000Y-82470000D02*
X183317000Y-81470000D01*
X184317000Y-82470000D02*
X183317000Y-82470000D01*
X187817000Y-76970000D02*
X183317000Y-76970000D01*
X187817000Y-77670000D02*
X187817000Y-76970000D01*
X188317000Y-82170000D02*
X188317000Y-83170000D01*
X188817000Y-83670000D02*
X188317000Y-83170000D01*
X191817000Y-79170000D02*
X189317000Y-79170000D01*
X191817000Y-83670000D02*
X188817000Y-83670000D01*
X192317000Y-79670000D02*
X191817000Y-79170000D01*
X192317000Y-83170000D02*
X191817000Y-83670000D01*
X196317000Y-68470000D02*
X197317000Y-68470000D01*
X197317000Y-68470000D02*
X197317000Y-69470000D01*
X197317000Y-81470000D02*
X197317000Y-82470000D01*
X197317000Y-82470000D02*
X196317000Y-82470000D01*
X188317000Y-82170000D02*
G75*
G03*
X187817000Y-81670000I-500001J-1D01*
G01*
X187817000Y-77670000D02*
G75*
G03*
X189317000Y-79170000I1500001J1D01*
G01*
%TO.C,SW_RST1*%
X99497697Y-70210245D02*
X94582785Y-66768787D01*
X99641091Y-70005457D02*
X99497697Y-70210245D01*
X101505215Y-67343213D02*
X101361821Y-67548001D01*
X94582785Y-66768787D02*
X94726179Y-66563999D01*
X96446909Y-64106543D02*
X96590303Y-63901755D01*
X96590303Y-63901755D02*
X101505215Y-67343213D01*
%TO.C,SW_R2_C3*%
X130817000Y-59970000D02*
X131817000Y-59970000D01*
X130817000Y-60970000D02*
X130817000Y-59970000D01*
X130817000Y-68470000D02*
X130817000Y-68970000D01*
X130817000Y-72570000D02*
X130817000Y-73170000D01*
X130817000Y-73170000D02*
X135317000Y-73170000D01*
X130817000Y-73970000D02*
X130817000Y-72970000D01*
X131817000Y-73970000D02*
X130817000Y-73970000D01*
X135317000Y-68470000D02*
X130817000Y-68470000D01*
X135317000Y-69170000D02*
X135317000Y-68470000D01*
X135817000Y-73670000D02*
X135817000Y-74670000D01*
X136317000Y-75170000D02*
X135817000Y-74670000D01*
X139317000Y-70670000D02*
X136817000Y-70670000D01*
X139317000Y-75170000D02*
X136317000Y-75170000D01*
X139817000Y-71170000D02*
X139317000Y-70670000D01*
X139817000Y-74670000D02*
X139317000Y-75170000D01*
X143817000Y-59970000D02*
X144817000Y-59970000D01*
X144817000Y-59970000D02*
X144817000Y-60970000D01*
X144817000Y-72970000D02*
X144817000Y-73970000D01*
X144817000Y-73970000D02*
X143817000Y-73970000D01*
X135817000Y-73670000D02*
G75*
G03*
X135317000Y-73170000I-500001J-1D01*
G01*
X135317000Y-69170000D02*
G75*
G03*
X136817000Y-70670000I1500001J1D01*
G01*
%TO.C,D5*%
X139917000Y-39220000D02*
X139917000Y-40720000D01*
X139917000Y-40720000D02*
X145317000Y-40720000D01*
X142117000Y-39470000D02*
X142117000Y-40470000D01*
X142217000Y-39970000D02*
X143117000Y-39470000D01*
X143117000Y-39470000D02*
X143117000Y-40470000D01*
X143117000Y-40470000D02*
X142217000Y-39970000D01*
X145317000Y-39220000D02*
X139917000Y-39220000D01*
X145317000Y-40720000D02*
X145317000Y-39220000D01*
%TO.C,B-1*%
X106250000Y-26000000D02*
X108250000Y-26000000D01*
X106250000Y-28000000D02*
X106250000Y-26000000D01*
X108250000Y-26000000D02*
X108250000Y-28000000D01*
X108250000Y-28000000D02*
X106250000Y-28000000D01*
%TO.C,SW_R1_C1*%
X165817000Y-41970000D02*
X166817000Y-41970000D01*
X165817000Y-42970000D02*
X165817000Y-41970000D01*
X165817000Y-50470000D02*
X165817000Y-50970000D01*
X165817000Y-54570000D02*
X165817000Y-55170000D01*
X165817000Y-55170000D02*
X170317000Y-55170000D01*
X165817000Y-55970000D02*
X165817000Y-54970000D01*
X166817000Y-55970000D02*
X165817000Y-55970000D01*
X170317000Y-50470000D02*
X165817000Y-50470000D01*
X170317000Y-51170000D02*
X170317000Y-50470000D01*
X170817000Y-55670000D02*
X170817000Y-56670000D01*
X171317000Y-57170000D02*
X170817000Y-56670000D01*
X174317000Y-52670000D02*
X171817000Y-52670000D01*
X174317000Y-57170000D02*
X171317000Y-57170000D01*
X174817000Y-53170000D02*
X174317000Y-52670000D01*
X174817000Y-56670000D02*
X174317000Y-57170000D01*
X178817000Y-41970000D02*
X179817000Y-41970000D01*
X179817000Y-41970000D02*
X179817000Y-42970000D01*
X179817000Y-54970000D02*
X179817000Y-55970000D01*
X179817000Y-55970000D02*
X178817000Y-55970000D01*
X170817000Y-55670000D02*
G75*
G03*
X170317000Y-55170000I-500001J-1D01*
G01*
X170317000Y-51170000D02*
G75*
G03*
X171817000Y-52670000I1500001J1D01*
G01*
%TO.C,U1*%
X89535000Y-32095000D02*
X92075000Y-32095000D01*
X89535000Y-62575000D02*
X89535000Y-32095000D01*
X92075000Y-32095000D02*
X92075000Y-62575000D01*
X92075000Y-62575000D02*
X89535000Y-62575000D01*
X104775000Y-32095000D02*
X107315000Y-32095000D01*
X104775000Y-62575000D02*
X104775000Y-32095000D01*
X107315000Y-32095000D02*
X107315000Y-62575000D01*
X107315000Y-62575000D02*
X104775000Y-62575000D01*
%TO.C,D8*%
X130100000Y-79850000D02*
X130100000Y-81350000D01*
X130100000Y-81350000D02*
X135500000Y-81350000D01*
X132300000Y-80100000D02*
X132300000Y-81100000D01*
X132400000Y-80600000D02*
X133300000Y-80100000D01*
X133300000Y-80100000D02*
X133300000Y-81100000D01*
X133300000Y-81100000D02*
X132400000Y-80600000D01*
X135500000Y-79850000D02*
X130100000Y-79850000D01*
X135500000Y-81350000D02*
X135500000Y-79850000D01*
%TO.C,SW_R0_C4*%
X113317000Y-26370000D02*
X114317000Y-26370000D01*
X113317000Y-27370000D02*
X113317000Y-26370000D01*
X113317000Y-34870000D02*
X113317000Y-35370000D01*
X113317000Y-38970000D02*
X113317000Y-39570000D01*
X113317000Y-39570000D02*
X117817000Y-39570000D01*
X113317000Y-40370000D02*
X113317000Y-39370000D01*
X114317000Y-40370000D02*
X113317000Y-40370000D01*
X117817000Y-34870000D02*
X113317000Y-34870000D01*
X117817000Y-35570000D02*
X117817000Y-34870000D01*
X118317000Y-40070000D02*
X118317000Y-41070000D01*
X118817000Y-41570000D02*
X118317000Y-41070000D01*
X121817000Y-37070000D02*
X119317000Y-37070000D01*
X121817000Y-41570000D02*
X118817000Y-41570000D01*
X122317000Y-37570000D02*
X121817000Y-37070000D01*
X122317000Y-41070000D02*
X121817000Y-41570000D01*
X126317000Y-26370000D02*
X127317000Y-26370000D01*
X127317000Y-26370000D02*
X127317000Y-27370000D01*
X127317000Y-39370000D02*
X127317000Y-40370000D01*
X127317000Y-40370000D02*
X126317000Y-40370000D01*
X118317000Y-40070000D02*
G75*
G03*
X117817000Y-39570000I-500001J-1D01*
G01*
X117817000Y-35570000D02*
G75*
G03*
X119317000Y-37070000I1500001J1D01*
G01*
%TO.C,SW_R0_C0*%
X183317000Y-32470000D02*
X184317000Y-32470000D01*
X183317000Y-33470000D02*
X183317000Y-32470000D01*
X183317000Y-40970000D02*
X183317000Y-41470000D01*
X183317000Y-45070000D02*
X183317000Y-45670000D01*
X183317000Y-45670000D02*
X187817000Y-45670000D01*
X183317000Y-46470000D02*
X183317000Y-45470000D01*
X184317000Y-46470000D02*
X183317000Y-46470000D01*
X187817000Y-40970000D02*
X183317000Y-40970000D01*
X187817000Y-41670000D02*
X187817000Y-40970000D01*
X188317000Y-46170000D02*
X188317000Y-47170000D01*
X188817000Y-47670000D02*
X188317000Y-47170000D01*
X191817000Y-43170000D02*
X189317000Y-43170000D01*
X191817000Y-47670000D02*
X188817000Y-47670000D01*
X192317000Y-43670000D02*
X191817000Y-43170000D01*
X192317000Y-47170000D02*
X191817000Y-47670000D01*
X196317000Y-32470000D02*
X197317000Y-32470000D01*
X197317000Y-32470000D02*
X197317000Y-33470000D01*
X197317000Y-45470000D02*
X197317000Y-46470000D01*
X197317000Y-46470000D02*
X196317000Y-46470000D01*
X188317000Y-46170000D02*
G75*
G03*
X187817000Y-45670000I-500001J-1D01*
G01*
X187817000Y-41670000D02*
G75*
G03*
X189317000Y-43170000I1500001J1D01*
G01*
%TO.C,SW_R1_C2*%
X148317000Y-37580000D02*
X149317000Y-37580000D01*
X148317000Y-38580000D02*
X148317000Y-37580000D01*
X148317000Y-46080000D02*
X148317000Y-46580000D01*
X148317000Y-50180000D02*
X148317000Y-50780000D01*
X148317000Y-50780000D02*
X152817000Y-50780000D01*
X148317000Y-51580000D02*
X148317000Y-50580000D01*
X149317000Y-51580000D02*
X148317000Y-51580000D01*
X152817000Y-46080000D02*
X148317000Y-46080000D01*
X152817000Y-46780000D02*
X152817000Y-46080000D01*
X153317000Y-51280000D02*
X153317000Y-52280000D01*
X153817000Y-52780000D02*
X153317000Y-52280000D01*
X156817000Y-48280000D02*
X154317000Y-48280000D01*
X156817000Y-52780000D02*
X153817000Y-52780000D01*
X157317000Y-48780000D02*
X156817000Y-48280000D01*
X157317000Y-52280000D02*
X156817000Y-52780000D01*
X161317000Y-37580000D02*
X162317000Y-37580000D01*
X162317000Y-37580000D02*
X162317000Y-38580000D01*
X162317000Y-50580000D02*
X162317000Y-51580000D01*
X162317000Y-51580000D02*
X161317000Y-51580000D01*
X153317000Y-51280000D02*
G75*
G03*
X152817000Y-50780000I-500001J-1D01*
G01*
X152817000Y-46780000D02*
G75*
G03*
X154317000Y-48280000I1500001J1D01*
G01*
%TO.C,SW_R0_C1*%
X165817000Y-23970000D02*
X166817000Y-23970000D01*
X165817000Y-24970000D02*
X165817000Y-23970000D01*
X165817000Y-32470000D02*
X165817000Y-32970000D01*
X165817000Y-36570000D02*
X165817000Y-37170000D01*
X165817000Y-37170000D02*
X170317000Y-37170000D01*
X165817000Y-37970000D02*
X165817000Y-36970000D01*
X166817000Y-37970000D02*
X165817000Y-37970000D01*
X170317000Y-32470000D02*
X165817000Y-32470000D01*
X170317000Y-33170000D02*
X170317000Y-32470000D01*
X170817000Y-37670000D02*
X170817000Y-38670000D01*
X171317000Y-39170000D02*
X170817000Y-38670000D01*
X174317000Y-34670000D02*
X171817000Y-34670000D01*
X174317000Y-39170000D02*
X171317000Y-39170000D01*
X174817000Y-35170000D02*
X174317000Y-34670000D01*
X174817000Y-38670000D02*
X174317000Y-39170000D01*
X178817000Y-23970000D02*
X179817000Y-23970000D01*
X179817000Y-23970000D02*
X179817000Y-24970000D01*
X179817000Y-36970000D02*
X179817000Y-37970000D01*
X179817000Y-37970000D02*
X178817000Y-37970000D01*
X170817000Y-37670000D02*
G75*
G03*
X170317000Y-37170000I-500001J-1D01*
G01*
X170317000Y-33170000D02*
G75*
G03*
X171817000Y-34670000I1500001J1D01*
G01*
%TO.C,SW_R1_C0*%
X183317000Y-50470000D02*
X184317000Y-50470000D01*
X183317000Y-51470000D02*
X183317000Y-50470000D01*
X183317000Y-58970000D02*
X183317000Y-59470000D01*
X183317000Y-63070000D02*
X183317000Y-63670000D01*
X183317000Y-63670000D02*
X187817000Y-63670000D01*
X183317000Y-64470000D02*
X183317000Y-63470000D01*
X184317000Y-64470000D02*
X183317000Y-64470000D01*
X187817000Y-58970000D02*
X183317000Y-58970000D01*
X187817000Y-59670000D02*
X187817000Y-58970000D01*
X188317000Y-64170000D02*
X188317000Y-65170000D01*
X188817000Y-65670000D02*
X188317000Y-65170000D01*
X191817000Y-61170000D02*
X189317000Y-61170000D01*
X191817000Y-65670000D02*
X188817000Y-65670000D01*
X192317000Y-61670000D02*
X191817000Y-61170000D01*
X192317000Y-65170000D02*
X191817000Y-65670000D01*
X196317000Y-50470000D02*
X197317000Y-50470000D01*
X197317000Y-50470000D02*
X197317000Y-51470000D01*
X197317000Y-63470000D02*
X197317000Y-64470000D01*
X197317000Y-64470000D02*
X196317000Y-64470000D01*
X188317000Y-64170000D02*
G75*
G03*
X187817000Y-63670000I-500001J-1D01*
G01*
X187817000Y-59670000D02*
G75*
G03*
X189317000Y-61170000I1500001J1D01*
G01*
%TO.C,SW_R2_C4*%
X113317000Y-62370000D02*
X114317000Y-62370000D01*
X113317000Y-63370000D02*
X113317000Y-62370000D01*
X113317000Y-70870000D02*
X113317000Y-71370000D01*
X113317000Y-74970000D02*
X113317000Y-75570000D01*
X113317000Y-75570000D02*
X117817000Y-75570000D01*
X113317000Y-76370000D02*
X113317000Y-75370000D01*
X114317000Y-76370000D02*
X113317000Y-76370000D01*
X117817000Y-70870000D02*
X113317000Y-70870000D01*
X117817000Y-71570000D02*
X117817000Y-70870000D01*
X118317000Y-76070000D02*
X118317000Y-77070000D01*
X118817000Y-77570000D02*
X118317000Y-77070000D01*
X121817000Y-73070000D02*
X119317000Y-73070000D01*
X121817000Y-77570000D02*
X118817000Y-77570000D01*
X122317000Y-73570000D02*
X121817000Y-73070000D01*
X122317000Y-77070000D02*
X121817000Y-77570000D01*
X126317000Y-62370000D02*
X127317000Y-62370000D01*
X127317000Y-62370000D02*
X127317000Y-63370000D01*
X127317000Y-75370000D02*
X127317000Y-76370000D01*
X127317000Y-76370000D02*
X126317000Y-76370000D01*
X118317000Y-76070000D02*
G75*
G03*
X117817000Y-75570000I-500001J-1D01*
G01*
X117817000Y-71570000D02*
G75*
G03*
X119317000Y-73070000I1500001J1D01*
G01*
%TO.C,SW_R1_C4*%
X113317000Y-44370000D02*
X114317000Y-44370000D01*
X113317000Y-45370000D02*
X113317000Y-44370000D01*
X113317000Y-52870000D02*
X113317000Y-53370000D01*
X113317000Y-56970000D02*
X113317000Y-57570000D01*
X113317000Y-57570000D02*
X117817000Y-57570000D01*
X113317000Y-58370000D02*
X113317000Y-57370000D01*
X114317000Y-58370000D02*
X113317000Y-58370000D01*
X117817000Y-52870000D02*
X113317000Y-52870000D01*
X117817000Y-53570000D02*
X117817000Y-52870000D01*
X118317000Y-58070000D02*
X118317000Y-59070000D01*
X118817000Y-59570000D02*
X118317000Y-59070000D01*
X121817000Y-55070000D02*
X119317000Y-55070000D01*
X121817000Y-59570000D02*
X118817000Y-59570000D01*
X122317000Y-55570000D02*
X121817000Y-55070000D01*
X122317000Y-59070000D02*
X121817000Y-59570000D01*
X126317000Y-44370000D02*
X127317000Y-44370000D01*
X127317000Y-44370000D02*
X127317000Y-45370000D01*
X127317000Y-57370000D02*
X127317000Y-58370000D01*
X127317000Y-58370000D02*
X126317000Y-58370000D01*
X118317000Y-58070000D02*
G75*
G03*
X117817000Y-57570000I-500001J-1D01*
G01*
X117817000Y-53570000D02*
G75*
G03*
X119317000Y-55070000I1500001J1D01*
G01*
%TO.C,D4*%
X110274519Y-86357789D02*
X108975481Y-87107789D01*
X108975481Y-87107789D02*
X111675481Y-91784327D01*
X111158013Y-88388045D02*
X110291987Y-88888045D01*
X110775000Y-88724648D02*
X111658013Y-89254071D01*
X111658013Y-89254071D02*
X110791987Y-89754071D01*
X110791987Y-89754071D02*
X110775000Y-88724648D01*
X112974519Y-91034327D02*
X110274519Y-86357789D01*
X111675481Y-91784327D02*
X112974519Y-91034327D01*
%TO.C,D16*%
X192417000Y-65720000D02*
X192417000Y-67220000D01*
X192417000Y-67220000D02*
X197817000Y-67220000D01*
X194617000Y-65970000D02*
X194617000Y-66970000D01*
X194717000Y-66470000D02*
X195617000Y-65970000D01*
X195617000Y-65970000D02*
X195617000Y-66970000D01*
X195617000Y-66970000D02*
X194717000Y-66470000D01*
X197817000Y-65720000D02*
X192417000Y-65720000D01*
X197817000Y-67220000D02*
X197817000Y-65720000D01*
%TO.C,D6*%
X139917000Y-57220000D02*
X139917000Y-58720000D01*
X139917000Y-58720000D02*
X145317000Y-58720000D01*
X142117000Y-57470000D02*
X142117000Y-58470000D01*
X142217000Y-57970000D02*
X143117000Y-57470000D01*
X143117000Y-57470000D02*
X143117000Y-58470000D01*
X143117000Y-58470000D02*
X142217000Y-57970000D01*
X145317000Y-57220000D02*
X139917000Y-57220000D01*
X145317000Y-58720000D02*
X145317000Y-57220000D01*
%TO.C,SW_R0_C3*%
X130817000Y-23970000D02*
X131817000Y-23970000D01*
X130817000Y-24970000D02*
X130817000Y-23970000D01*
X130817000Y-32470000D02*
X130817000Y-32970000D01*
X130817000Y-36570000D02*
X130817000Y-37170000D01*
X130817000Y-37170000D02*
X135317000Y-37170000D01*
X130817000Y-37970000D02*
X130817000Y-36970000D01*
X131817000Y-37970000D02*
X130817000Y-37970000D01*
X135317000Y-32470000D02*
X130817000Y-32470000D01*
X135317000Y-33170000D02*
X135317000Y-32470000D01*
X135817000Y-37670000D02*
X135817000Y-38670000D01*
X136317000Y-39170000D02*
X135817000Y-38670000D01*
X139317000Y-34670000D02*
X136817000Y-34670000D01*
X139317000Y-39170000D02*
X136317000Y-39170000D01*
X139817000Y-35170000D02*
X139317000Y-34670000D01*
X139817000Y-38670000D02*
X139317000Y-39170000D01*
X143817000Y-23970000D02*
X144817000Y-23970000D01*
X144817000Y-23970000D02*
X144817000Y-24970000D01*
X144817000Y-36970000D02*
X144817000Y-37970000D01*
X144817000Y-37970000D02*
X143817000Y-37970000D01*
X135817000Y-37670000D02*
G75*
G03*
X135317000Y-37170000I-500001J-1D01*
G01*
X135317000Y-33170000D02*
G75*
G03*
X136817000Y-34670000I1500001J1D01*
G01*
%TO.C,D1*%
X122417000Y-41620000D02*
X122417000Y-43120000D01*
X122417000Y-43120000D02*
X127817000Y-43120000D01*
X124617000Y-41870000D02*
X124617000Y-42870000D01*
X124717000Y-42370000D02*
X125617000Y-41870000D01*
X125617000Y-41870000D02*
X125617000Y-42870000D01*
X125617000Y-42870000D02*
X124717000Y-42370000D01*
X127817000Y-41620000D02*
X122417000Y-41620000D01*
X127817000Y-43120000D02*
X127817000Y-41620000D01*
%TO.C,D13*%
X174917000Y-57220000D02*
X174917000Y-58720000D01*
X174917000Y-58720000D02*
X180317000Y-58720000D01*
X177117000Y-57470000D02*
X177117000Y-58470000D01*
X177217000Y-57970000D02*
X178117000Y-57470000D01*
X178117000Y-57470000D02*
X178117000Y-58470000D01*
X178117000Y-58470000D02*
X177217000Y-57970000D01*
X180317000Y-57220000D02*
X174917000Y-57220000D01*
X180317000Y-58720000D02*
X180317000Y-57220000D01*
%TO.C,SW_R0_C2*%
X148317000Y-19580000D02*
X149317000Y-19580000D01*
X148317000Y-20580000D02*
X148317000Y-19580000D01*
X148317000Y-28080000D02*
X148317000Y-28580000D01*
X148317000Y-32180000D02*
X148317000Y-32780000D01*
X148317000Y-32780000D02*
X152817000Y-32780000D01*
X148317000Y-33580000D02*
X148317000Y-32580000D01*
X149317000Y-33580000D02*
X148317000Y-33580000D01*
X152817000Y-28080000D02*
X148317000Y-28080000D01*
X152817000Y-28780000D02*
X152817000Y-28080000D01*
X153317000Y-33280000D02*
X153317000Y-34280000D01*
X153817000Y-34780000D02*
X153317000Y-34280000D01*
X156817000Y-30280000D02*
X154317000Y-30280000D01*
X156817000Y-34780000D02*
X153817000Y-34780000D01*
X157317000Y-30780000D02*
X156817000Y-30280000D01*
X157317000Y-34280000D02*
X156817000Y-34780000D01*
X161317000Y-19580000D02*
X162317000Y-19580000D01*
X162317000Y-19580000D02*
X162317000Y-20580000D01*
X162317000Y-32580000D02*
X162317000Y-33580000D01*
X162317000Y-33580000D02*
X161317000Y-33580000D01*
X153317000Y-33280000D02*
G75*
G03*
X152817000Y-32780000I-500001J-1D01*
G01*
X152817000Y-28780000D02*
G75*
G03*
X154317000Y-30280000I1500001J1D01*
G01*
%TO.C,SW_R2_C1*%
X165817000Y-59970000D02*
X166817000Y-59970000D01*
X165817000Y-60970000D02*
X165817000Y-59970000D01*
X165817000Y-68470000D02*
X165817000Y-68970000D01*
X165817000Y-72570000D02*
X165817000Y-73170000D01*
X165817000Y-73170000D02*
X170317000Y-73170000D01*
X165817000Y-73970000D02*
X165817000Y-72970000D01*
X166817000Y-73970000D02*
X165817000Y-73970000D01*
X170317000Y-68470000D02*
X165817000Y-68470000D01*
X170317000Y-69170000D02*
X170317000Y-68470000D01*
X170817000Y-73670000D02*
X170817000Y-74670000D01*
X171317000Y-75170000D02*
X170817000Y-74670000D01*
X174317000Y-70670000D02*
X171817000Y-70670000D01*
X174317000Y-75170000D02*
X171317000Y-75170000D01*
X174817000Y-71170000D02*
X174317000Y-70670000D01*
X174817000Y-74670000D02*
X174317000Y-75170000D01*
X178817000Y-59970000D02*
X179817000Y-59970000D01*
X179817000Y-59970000D02*
X179817000Y-60970000D01*
X179817000Y-72970000D02*
X179817000Y-73970000D01*
X179817000Y-73970000D02*
X178817000Y-73970000D01*
X170817000Y-73670000D02*
G75*
G03*
X170317000Y-73170000I-500001J-1D01*
G01*
X170317000Y-69170000D02*
G75*
G03*
X171817000Y-70670000I1500001J1D01*
G01*
%TO.C,D17*%
X192417000Y-83720000D02*
X192417000Y-85220000D01*
X192417000Y-85220000D02*
X197817000Y-85220000D01*
X194617000Y-83970000D02*
X194617000Y-84970000D01*
X194717000Y-84470000D02*
X195617000Y-83970000D01*
X195617000Y-83970000D02*
X195617000Y-84970000D01*
X195617000Y-84970000D02*
X194717000Y-84470000D01*
X197817000Y-83720000D02*
X192417000Y-83720000D01*
X197817000Y-85220000D02*
X197817000Y-83720000D01*
%TO.C,D14*%
X174917000Y-75220000D02*
X174917000Y-76720000D01*
X174917000Y-76720000D02*
X180317000Y-76720000D01*
X177117000Y-75470000D02*
X177117000Y-76470000D01*
X177217000Y-75970000D02*
X178117000Y-75470000D01*
X178117000Y-75470000D02*
X178117000Y-76470000D01*
X178117000Y-76470000D02*
X177217000Y-75970000D01*
X180317000Y-75220000D02*
X174917000Y-75220000D01*
X180317000Y-76720000D02*
X180317000Y-75220000D01*
%TO.C,D15*%
X192417000Y-47720000D02*
X192417000Y-49220000D01*
X192417000Y-49220000D02*
X197817000Y-49220000D01*
X194617000Y-47970000D02*
X194617000Y-48970000D01*
X194717000Y-48470000D02*
X195617000Y-47970000D01*
X195617000Y-47970000D02*
X195617000Y-48970000D01*
X195617000Y-48970000D02*
X194717000Y-48470000D01*
X197817000Y-47720000D02*
X192417000Y-47720000D01*
X197817000Y-49220000D02*
X197817000Y-47720000D01*
%TO.C,D10*%
X157417000Y-52830000D02*
X157417000Y-54330000D01*
X157417000Y-54330000D02*
X162817000Y-54330000D01*
X159617000Y-53080000D02*
X159617000Y-54080000D01*
X159717000Y-53580000D02*
X160617000Y-53080000D01*
X160617000Y-53080000D02*
X160617000Y-54080000D01*
X160617000Y-54080000D02*
X159717000Y-53580000D01*
X162817000Y-52830000D02*
X157417000Y-52830000D01*
X162817000Y-54330000D02*
X162817000Y-52830000D01*
%TO.C,D12*%
X174917000Y-39220000D02*
X174917000Y-40720000D01*
X174917000Y-40720000D02*
X180317000Y-40720000D01*
X177117000Y-39470000D02*
X177117000Y-40470000D01*
X177217000Y-39970000D02*
X178117000Y-39470000D01*
X178117000Y-39470000D02*
X178117000Y-40470000D01*
X178117000Y-40470000D02*
X177217000Y-39970000D01*
X180317000Y-39220000D02*
X174917000Y-39220000D01*
X180317000Y-40720000D02*
X180317000Y-39220000D01*
%TO.C,D2*%
X122417000Y-59620000D02*
X122417000Y-61120000D01*
X122417000Y-61120000D02*
X127817000Y-61120000D01*
X124617000Y-59870000D02*
X124617000Y-60870000D01*
X124717000Y-60370000D02*
X125617000Y-59870000D01*
X125617000Y-59870000D02*
X125617000Y-60870000D01*
X125617000Y-60870000D02*
X124717000Y-60370000D01*
X127817000Y-59620000D02*
X122417000Y-59620000D01*
X127817000Y-61120000D02*
X127817000Y-59620000D01*
%TO.C,SW8*%
X125135000Y-92135000D02*
G75*
G03*
X126635000Y-93635000I1500001J1D01*
G01*
X125635000Y-96635000D02*
G75*
G03*
X125135000Y-96135000I-500001J-1D01*
G01*
X134635000Y-96935000D02*
X133635000Y-96935000D01*
X134635000Y-95935000D02*
X134635000Y-96935000D01*
X134635000Y-82935000D02*
X134635000Y-83935000D01*
X133635000Y-82935000D02*
X134635000Y-82935000D01*
X129635000Y-97635000D02*
X129135000Y-98135000D01*
X129635000Y-94135000D02*
X129135000Y-93635000D01*
X129135000Y-98135000D02*
X126135000Y-98135000D01*
X129135000Y-93635000D02*
X126635000Y-93635000D01*
X126135000Y-98135000D02*
X125635000Y-97635000D01*
X125635000Y-96635000D02*
X125635000Y-97635000D01*
X125135000Y-92135000D02*
X125135000Y-91435000D01*
X125135000Y-91435000D02*
X120635000Y-91435000D01*
X121635000Y-96935000D02*
X120635000Y-96935000D01*
X120635000Y-96935000D02*
X120635000Y-95935000D01*
X120635000Y-96135000D02*
X125135000Y-96135000D01*
X120635000Y-95535000D02*
X120635000Y-96135000D01*
X120635000Y-91435000D02*
X120635000Y-91935000D01*
X120635000Y-83935000D02*
X120635000Y-82935000D01*
X120635000Y-82935000D02*
X121635000Y-82935000D01*
%TO.C,SW_R1_C3*%
X130817000Y-41970000D02*
X131817000Y-41970000D01*
X130817000Y-42970000D02*
X130817000Y-41970000D01*
X130817000Y-50470000D02*
X130817000Y-50970000D01*
X130817000Y-54570000D02*
X130817000Y-55170000D01*
X130817000Y-55170000D02*
X135317000Y-55170000D01*
X130817000Y-55970000D02*
X130817000Y-54970000D01*
X131817000Y-55970000D02*
X130817000Y-55970000D01*
X135317000Y-50470000D02*
X130817000Y-50470000D01*
X135317000Y-51170000D02*
X135317000Y-50470000D01*
X135817000Y-55670000D02*
X135817000Y-56670000D01*
X136317000Y-57170000D02*
X135817000Y-56670000D01*
X139317000Y-52670000D02*
X136817000Y-52670000D01*
X139317000Y-57170000D02*
X136317000Y-57170000D01*
X139817000Y-53170000D02*
X139317000Y-52670000D01*
X139817000Y-56670000D02*
X139317000Y-57170000D01*
X143817000Y-41970000D02*
X144817000Y-41970000D01*
X144817000Y-41970000D02*
X144817000Y-42970000D01*
X144817000Y-54970000D02*
X144817000Y-55970000D01*
X144817000Y-55970000D02*
X143817000Y-55970000D01*
X135817000Y-55670000D02*
G75*
G03*
X135317000Y-55170000I-500001J-1D01*
G01*
X135317000Y-51170000D02*
G75*
G03*
X136817000Y-52670000I1500001J1D01*
G01*
%TO.C,D3*%
X122417000Y-77620000D02*
X122417000Y-79120000D01*
X122417000Y-79120000D02*
X127817000Y-79120000D01*
X124617000Y-77870000D02*
X124617000Y-78870000D01*
X124717000Y-78370000D02*
X125617000Y-77870000D01*
X125617000Y-77870000D02*
X125617000Y-78870000D01*
X125617000Y-78870000D02*
X124717000Y-78370000D01*
X127817000Y-77620000D02*
X122417000Y-77620000D01*
X127817000Y-79120000D02*
X127817000Y-77620000D01*
%TO.C,D11*%
X157417000Y-70830000D02*
X157417000Y-72330000D01*
X157417000Y-72330000D02*
X162817000Y-72330000D01*
X159617000Y-71080000D02*
X159617000Y-72080000D01*
X159717000Y-71580000D02*
X160617000Y-71080000D01*
X160617000Y-71080000D02*
X160617000Y-72080000D01*
X160617000Y-72080000D02*
X159717000Y-71580000D01*
X162817000Y-70830000D02*
X157417000Y-70830000D01*
X162817000Y-72330000D02*
X162817000Y-70830000D01*
%TO.C,D7*%
X139917000Y-75220000D02*
X139917000Y-76720000D01*
X139917000Y-76720000D02*
X145317000Y-76720000D01*
X142117000Y-75470000D02*
X142117000Y-76470000D01*
X142217000Y-75970000D02*
X143117000Y-75470000D01*
X143117000Y-75470000D02*
X143117000Y-76470000D01*
X143117000Y-76470000D02*
X142217000Y-75970000D01*
X145317000Y-75220000D02*
X139917000Y-75220000D01*
X145317000Y-76720000D02*
X145317000Y-75220000D01*
%TD*%
M02*
